<svg width="375" height="273" viewBox="0 0 375 273" fill="none" xmlns="http://www.w3.org/2000/svg">
<path d="M241.999 0.889883C233.682 2.76528 225.995 6.93152 219.515 13.0753L215.612 16.7766L213.683 15.3605C209.463 11.0945 196.051 2.7214 176.171 3.35721C169.479 3.56622 169.018 3.1902 163.171 4.72377C157.325 6.25733 140.712 15.5906 137.826 18.0931L134.207 15.7279C113.086 1.9246 86.8873 -2.77628 63.1679 2.97997C55.7604 4.73679 51.1751 6.4296 49.8084 7.0564C45.3396 8.79298 42.8074 10.029 36.2799 13.6585C35.3085 14.1988 33.0363 15.6717 31.231 16.9314C24.1384 22.1933 19.896 26.2542 18.6615 27.627C15.8423 30.5175 12.8645 33.7831 12.0445 34.8844L10.554 36.8873L2.06977 37.0019C-7.50226 37.1314 -11.2928 37.7956 -18.695 40.6412C-31.7402 45.6569 -42.2997 55.2868 -48.7212 68.0254C-52.7987 76.1143 -54.7498 84.214 -54.7384 93.0042C-54.7291 100.036 -54.0198 104.251 -51.5972 111.669L-49.462 118.205L-50.6139 119.41C-52.8333 121.731 -55.7228 125.806 -57.5555 129.2C-62.1948 141.132 -65.7773 169.637 -42.9935 188.204L-39.7644 190.373L-39.5509 196.005C-39.1254 207.213 -28.5189 225.006 -28.5189 225.006C-25.0482 229.586 -14.5777 238.983 -0.460373 239.932C3.51527 240.264 3.50596 240.26 5.06933 242.488L11.0343 249.48C19.1877 257.898 26.53 262.172 38.8224 265.656C43.0147 266.844 57.1972 267.227 61.7307 266.274L65.2524 265.534L72.4773 263.307C72.7244 263.307 74.2961 262.645 75.9696 261.836L79.0126 260.365L81.277 261.972C85.1906 264.748 89.632 267.227 92.8477 268.43C94.5537 269.069 96.4868 269.804 97.1428 270.064C99.3478 270.938 107.167 272.081 110.881 272.07C118.88 272.048 127.068 270.044 133.832 266.452C133.832 266.452 141.664 262.098 145.629 257.945C149.594 253.792 149.536 254.389 149.536 254.389L154.796 255.544L172.593 258.402C176.88 258.614 181.914 258.523 185.275 258.172C193.176 257.35 203.75 254.883 208.653 252.718C212.333 251.093 212.811 251.164 216.268 253.855C221.158 257.664 223.186 258.838 228.557 260.971C241.154 265.975 254.913 265.115 267.399 258.542L271.343 256.465L274.12 257.767C285.729 263.213 301.697 265.916 315.894 264.839C325.674 262.244 347.258 256.081 355.348 252.188C357.126 251.154 359.76 249.425 361.204 248.344L363.827 246.38L371.323 246.157C375.446 246.034 379.034 245.804 379.297 245.645C379.56 245.486 381.288 244.888 383.136 244.315C398.336 239.609 409.668 228.199 414.246 212.991C415.957 207.308 416.251 197.776 414.916 191.321C414.062 187.194 411.804 181.33 409.667 177.691L408.316 175.389L410.848 173.315C414.88 170.013 418.272 166.308 420.826 162.416C425.229 155.706 425.012 157.018 425.012 137.046V89.5099V69.4513L422.145 63.8695C420.568 60.7994 418.262 56.9841 417.02 55.3905C411.499 48.3069 402.979 41.4674 395.646 38.2322C391.068 36.2123 390.404 35.9321 388.502 35.2214C387.615 34.8896 385.903 33.4678 384.699 32.0621C381.682 28.5409 377.59 24.4588 374.915 22.3027C373.682 21.3092 371.945 19.9024 371.055 19.1768C366.533 15.4905 356.191 9.71365 350.308 7.58796L340.118 4.22524C330.125 1.5262 315.436 0.887819 304.724 2.68684C298.671 3.70298 291.819 5.36214 289.82 6.29572C289.251 6.56098 286.874 7.49868 284.538 8.37857L280.29 9.97891L277.3 7.95643C273.196 5.17997 270.959 4.10087 265.254 2.14548C260.758 0.604497 259.731 0.45174 252.855 0.298983C247.593 0.181835 244.358 0.358331 241.999 0.889883Z" fill="#FEEFF1"/>
</svg>
