<svg width="364" height="244" viewBox="0 0 364 244" fill="none" xmlns="http://www.w3.org/2000/svg">
<g clip-path="url(#clip0_330_1575)">
<path d="M287.102 7.11437C335.624 8.54474 364 54.7976 364 80.4274C364 119.444 342.862 137.36 278.979 184.735C233.1 218.759 210.02 239.846 185.5 244C160.981 239.846 137.964 218.586 92.0212 184.735C27.992 137.558 7 119.444 7 80.4274C7 54.7976 35.3765 8.54474 83.8982 7.11437C130.609 5.73739 140.837 16.7801 185.5 41.0036C230.163 16.7801 240.392 5.73739 287.102 7.11437Z" fill="#F6DAE6"/>
<path d="M280.102 0.114371C328.624 1.54474 357 47.7976 357 73.4274C357 112.444 335.862 130.36 271.979 177.735C226.1 211.759 203.02 232.846 178.5 237C153.981 232.846 130.964 211.586 85.0212 177.735C20.992 130.558 0 112.444 0 73.4274C0 47.7976 28.3765 1.54474 76.8982 0.114371C123.609 -1.26261 133.837 9.78011 178.5 34.0036C223.163 9.78011 233.392 -1.26261 280.102 0.114371Z" fill="#FAFAFA"/>
<path d="M276.517 13.0001C321.785 14.2877 347 51.0033 347 74.0756C347 109.199 325.495 129.001 265.896 171.649C223.094 202.278 201.561 221.261 178.686 225C155.811 221.261 134.337 202.122 91.4755 171.649C31.7401 129.179 10 109.199 10 74.0755C10 51.0032 37.7322 14.2876 83 13C126.578 11.7604 137.018 26.1936 178.686 48C220.354 26.1936 232.939 11.7605 276.517 13.0001Z" fill="#FAFAFA" stroke="#F6DAE6" stroke-width="3" stroke-linecap="round" stroke-linejoin="round" stroke-dasharray="17 17"/>
</g>
<defs>
<clipPath id="clip0_330_1575">
<rect width="364" height="244" fill="white"/>
</clipPath>
</defs>
</svg>
