<svg width="405" height="76" viewBox="0 0 405 76" fill="none" xmlns="http://www.w3.org/2000/svg">
<path d="M46.5128 69.982C46.5128 73.3056 43.8208 76 40.5001 76C37.1793 76 34.4873 73.3056 34.4873 69.982C34.4873 66.6583 37.1793 63.9639 40.5001 63.9639C43.8208 63.9639 46.5128 66.6583 46.5128 69.982Z" fill="#FAFAFA"/>
<path d="M127.513 69.982C127.513 73.3056 124.821 76 121.5 76C118.179 76 115.487 73.3056 115.487 69.982C115.487 66.6583 118.179 63.9639 121.5 63.9639C124.821 63.9639 127.513 66.6583 127.513 69.982Z" fill="#FAFAFA"/>
<path d="M208.513 69.982C208.513 73.3056 205.821 76 202.5 76C199.179 76 196.487 73.3056 196.487 69.982C196.487 66.6583 199.179 63.9639 202.5 63.9639C205.821 63.9639 208.513 66.6583 208.513 69.982Z" fill="#FAFAFA"/>
<path d="M289.513 69.982C289.513 73.3056 286.821 76 283.5 76C280.179 76 277.487 73.3056 277.487 69.982C277.487 66.6583 280.179 63.9639 283.5 63.9639C286.821 63.9639 289.513 66.6583 289.513 69.982Z" fill="#FAFAFA"/>
<path d="M370.513 69.982C370.513 73.3056 367.821 76 364.5 76C361.179 76 358.487 73.3056 358.487 69.982C358.487 66.6583 361.179 63.9639 364.5 63.9639C367.821 63.9639 370.513 66.6583 370.513 69.982Z" fill="#FAFAFA"/>
<path d="M0 63.9636C6.8029 63.9636 21.1239 64.3003 40.5002 44.099C59.8765 64.3003 74.1971 63.9636 81 63.9636C87.8029 63.9636 102.124 64.3003 121.5 44.099C140.877 64.3003 155.197 63.9636 162 63.9636C168.803 63.9636 183.124 64.3003 202.5 44.099C221.877 64.3003 236.197 63.9636 243 63.9636C249.803 63.9636 264.124 64.3003 283.5 44.099C302.877 64.3003 317.197 63.9636 324 63.9636C330.803 63.9636 345.124 64.3003 364.5 44.099C383.877 64.3003 398.197 63.9636 405 63.9636V0H324H243H162H81H0V63.9636Z" fill="#FAFAFA"/>
</svg>
