<svg width="405" height="76" viewBox="0 0 405 76" fill="none" xmlns="http://www.w3.org/2000/svg">
<path d="M46.5128 6.01804C46.5128 2.69437 43.8208 0 40.5001 0C37.1793 0 34.4873 2.69437 34.4873 6.01804C34.4873 9.34172 37.1793 12.0361 40.5001 12.0361C43.8208 12.0361 46.5128 9.34172 46.5128 6.01804Z" fill="#FAFAFA"/>
<path d="M127.513 6.01804C127.513 2.69437 124.821 0 121.5 0C118.179 0 115.487 2.69437 115.487 6.01804C115.487 9.34172 118.179 12.0361 121.5 12.0361C124.821 12.0361 127.513 9.34172 127.513 6.01804Z" fill="#FAFAFA"/>
<path d="M208.513 6.01804C208.513 2.69437 205.821 0 202.5 0C199.179 0 196.487 2.69437 196.487 6.01804C196.487 9.34172 199.179 12.0361 202.5 12.0361C205.821 12.0361 208.513 9.34172 208.513 6.01804Z" fill="#FAFAFA"/>
<path d="M289.513 6.01804C289.513 2.69437 286.821 0 283.5 0C280.179 0 277.487 2.69437 277.487 6.01804C277.487 9.34172 280.179 12.0361 283.5 12.0361C286.821 12.0361 289.513 9.34172 289.513 6.01804Z" fill="#FAFAFA"/>
<path d="M370.513 6.01804C370.513 2.69437 367.821 0 364.5 0C361.179 0 358.487 2.69437 358.487 6.01804C358.487 9.34172 361.179 12.0361 364.5 12.0361C367.821 12.0361 370.513 9.34172 370.513 6.01804Z" fill="#FAFAFA"/>
<path d="M0 12.0364C6.8029 12.0364 21.1239 11.6997 40.5002 31.901C59.8765 11.6997 74.1971 12.0364 81 12.0364C87.8029 12.0364 102.124 11.6997 121.5 31.901C140.877 11.6997 155.197 12.0364 162 12.0364C168.803 12.0364 183.124 11.6997 202.5 31.901C221.877 11.6997 236.197 12.0364 243 12.0364C249.803 12.0364 264.124 11.6997 283.5 31.901C302.877 11.6997 317.197 12.0364 324 12.0364C330.803 12.0364 345.124 11.6997 364.5 31.901C383.877 11.6997 398.197 12.0364 405 12.0364V76H324H243H162H81H0V12.0364Z" fill="#FAFAFA"/>
</svg>
