<svg width="305" height="93" viewBox="0 0 305 93" fill="none" xmlns="http://www.w3.org/2000/svg">
<path d="M301.15 82.2698C301.1 82.2371 301.047 82.209 300.992 82.1857C295.754 79.9797 290.639 76.1633 288.142 72.4675C285.554 68.6368 284.372 64.7743 283.624 62.3337C283.609 62.284 283.594 62.2348 283.579 62.1863H293.823C296.626 62.1863 298.714 59.8764 298.714 57.2957V42.1223C298.714 39.5417 296.626 37.2317 293.823 37.2317H283.263C281.21 37.2317 279.484 38.9578 279.484 41.0107C279.484 43.1322 281.223 44.7897 283.263 44.7897H291.156V54.6283H279.817C277.094 54.6283 274.966 57.1129 275.324 59.764L275.325 59.7676C275.839 63.4674 277.285 70.2251 281.6 76.6209C283.064 78.7908 285.56 81.174 288.36 83.3493C291.173 85.5347 294.361 87.5626 297.269 89.0054C297.272 89.0068 297.275 89.0083 297.278 89.0097C297.288 89.0144 297.298 89.019 297.308 89.0234C299.156 89.845 301.445 89.4351 302.477 87.4863C303.608 85.5692 302.797 83.3439 301.15 82.2698ZM279.261 46.8466C279.261 44.7251 277.522 43.0676 275.482 43.0676H271.136C272.041 42.5241 272.591 41.5408 272.591 40.4549C272.591 39.5984 272.31 38.7884 271.747 38.183C271.177 37.5704 270.378 37.2317 269.479 37.2317H267.701C265.87 37.2317 264.477 38.6243 264.477 40.4549C264.477 41.5746 265.094 42.5357 266.017 43.0676H261.976C259.936 43.0676 258.197 44.7251 258.197 46.8466C258.197 48.8995 259.923 50.6256 261.976 50.6256H262.111C260.655 51.1544 259.586 52.5675 259.586 54.1832C259.586 56.3047 261.325 57.9622 263.365 57.9622H266.576C265.028 58.4337 263.922 59.8595 263.922 61.5753C263.922 63.4033 265.253 64.9898 267.056 65.2996H265.199C262.405 65.2996 260.309 67.5447 260.309 70.1903V74.7478C260.309 77.3285 262.396 79.6384 265.199 79.6384H272.425C275.228 79.6384 277.315 77.3285 277.315 74.7478V70.1903C277.315 67.5447 275.219 65.2996 272.425 65.2996H271.665C273.429 64.9909 274.814 63.4143 274.814 61.5753C274.814 59.8278 273.634 58.3951 272.078 57.9443C274.006 57.7594 275.481 56.1648 275.481 54.1832C275.481 52.5764 274.453 51.1562 272.979 50.6256H275.482C277.535 50.6256 279.261 48.8995 279.261 46.8466ZM270.035 72.3579V72.3583V72.3579Z" fill="#24110A" stroke="white" stroke-width="2" stroke-linejoin="round"/>
<path d="M256.604 36.3759C256.42 33.9668 254.353 32.0671 251.808 32.2618L231.555 33.8117C229.186 33.993 227.254 36.1706 227.441 38.6076L229.743 68.6912C229.939 71.2454 232.189 72.9851 234.539 72.8052L254.792 71.2553C257.319 71.062 259.1 68.9861 258.906 66.4594L256.604 36.3759ZM234.565 40.556L249.86 39.3855L251.783 64.511L236.487 65.6815L235.755 56.1165L247.256 55.2364C249.14 55.0922 250.602 53.3885 250.458 51.5041C250.309 49.5573 248.597 48.1592 246.725 48.3024L235.225 49.1825L234.565 40.556Z" fill="#24110A" stroke="white" stroke-width="2" stroke-linejoin="round"/>
<path d="M221.309 44.8285C221.959 42.2562 219.967 39.6837 217.285 39.6219L209.757 39.4483C209.752 37.8258 208.597 36.2534 206.765 36.0506C204.731 35.6542 202.892 36.9254 202.279 38.8742C202.193 39.1258 202.099 39.401 201.999 39.697C201.611 40.841 201.117 42.2944 200.516 43.8882C199.785 45.6285 200.366 47.8266 202.297 48.7296C199.803 48.7441 197.835 50.4859 197.5 52.8974C197.363 52.6543 197.195 52.4261 196.997 52.2191C195.842 51.009 194.05 50.6185 192.574 51.2175L192.625 48.0145L193.008 48.0233C195.116 48.0719 196.824 46.4404 196.873 44.3324C196.92 42.2931 195.303 40.5162 193.182 40.4673L192.793 40.4583L192.836 38.5686C192.885 36.4607 191.253 34.7521 189.145 34.7035C187.106 34.6565 185.329 36.2735 185.28 38.3944L185.233 40.4248C183.642 40.8497 182.576 42.3575 182.538 44.0018C182.499 45.7035 183.504 47.2202 185.069 47.7039L184.895 56.8945C183.792 57.7208 182.561 58.4975 181.202 59.1857C181.19 59.1921 181.177 59.1986 181.165 59.2055C179.477 60.1512 178.694 62.3614 179.544 64.2425C179.549 64.2522 179.553 64.2619 179.558 64.2715C180.469 66.1277 182.834 67.014 184.684 65.9104C184.685 65.9096 184.687 65.9087 184.689 65.9079L184.638 68.0968C184.591 70.1492 186.277 71.9146 188.329 71.9619C190.45 72.0108 192.147 70.3104 192.194 68.271L192.366 60.8226C192.448 60.7639 192.529 60.7054 192.61 60.6471C194.196 59.5069 195.691 58.4317 196.748 57.4259C196.996 57.2096 197.206 56.9664 197.378 56.7045L197.212 63.8982C197.181 65.2469 197.857 66.4242 198.878 67.1148C196.88 67.2043 195.319 68.8479 195.274 70.8029C195.23 72.6961 196.541 74.2672 198.336 74.6028C195.037 76.1239 190.784 77.5356 185.502 78.2056C185.487 78.2077 185.471 78.2101 185.455 78.2129C183.583 78.5425 182.055 80.3377 182.224 82.3791C182.341 84.5583 184.435 86.0848 186.48 85.7628C199.982 83.9226 208.072 78.1616 211.599 74.9623C211.6 74.9614 211.602 74.9605 211.603 74.9595L212.072 74.9703C211.491 75.22 210.962 75.5878 210.531 76.0451C210.514 76.0633 210.498 76.0821 210.482 76.1015C209.194 77.6908 209.397 80.2777 211.389 81.3344C213.657 82.8191 217.603 84.9005 222.282 85.755C224.421 86.1822 226.378 84.7003 226.981 82.7612C226.989 82.7354 226.996 82.7093 227.002 82.683C227.428 80.7806 226.309 78.8141 224.191 78.381C220.889 77.6616 217.797 76.2452 215.83 75.1226L215.816 75.1148C215.778 75.0939 215.74 75.0736 215.701 75.054L225.636 75.2831C227.675 75.3302 229.452 73.7132 229.501 71.5923C229.548 69.5399 227.862 67.7745 225.81 67.7271L222.861 67.6591C223.906 67.0147 224.629 65.874 224.66 64.5313L224.9 54.1405C224.964 51.3381 222.703 49.198 220.123 49.1385L220.082 49.1375C220.62 47.4387 221.061 45.8137 221.309 44.8285ZM221.309 44.8285C221.309 44.8288 221.309 44.8292 221.309 44.8295L220.34 44.5843L221.309 44.8283C221.309 44.8284 221.309 44.8284 221.309 44.8285ZM213.752 67.449L213.789 65.8372C213.838 63.7163 212.138 62.0191 210.098 61.9721C209.777 61.9647 209.465 61.9963 209.166 62.0628C209.5 61.7086 209.769 61.2821 209.953 60.8091C209.972 60.762 209.986 60.7137 209.997 60.6644C210.11 60.1632 210.229 59.6564 210.346 59.1581C210.395 58.9507 210.444 58.7447 210.491 58.5413C210.971 59.6161 211.657 60.7946 212.667 62.0077C213.221 62.7189 214.085 63.0222 214.855 63.0399C215.628 63.0577 216.51 62.7918 217.096 62.0992C217.117 62.0752 217.138 62.0511 217.158 62.0268L217.104 64.357C217.073 65.6937 217.718 66.8698 218.732 67.5639L213.752 67.449ZM207.357 46.9529L212.777 47.0779C212.676 47.3677 212.553 47.7293 212.437 48.0745C212.338 48.3714 212.236 48.6809 212.147 48.9545L205.688 48.8056C206.373 48.4288 206.938 47.8198 207.277 47.0735C207.289 47.0564 207.3 47.0395 207.312 47.0209C207.323 47.0053 207.334 46.9886 207.346 46.9697C207.35 46.9644 207.353 46.9588 207.357 46.9529ZM204.808 62.3183C205.105 62.5891 205.445 62.8114 205.812 62.9683C205.86 62.9889 205.91 63.0056 205.961 63.0184C206.435 63.1377 206.894 63.1507 207.325 63.0757C206.668 63.7361 206.257 64.6439 206.233 65.663L206.196 67.2748L202.994 67.201C204.039 66.5543 204.737 65.4092 204.768 64.0725L204.808 62.3183ZM216.667 56.6188L217.282 56.633L217.263 57.4881C217.029 57.1991 216.833 56.9054 216.667 56.6188Z" fill="#24110A" stroke="white" stroke-width="2" stroke-linejoin="round"/>
<path d="M151.304 41.3342C149.614 43.147 146.672 45.9285 142.25 48.7831C142.219 48.8028 142.19 48.8241 142.162 48.8469C140.724 50.0142 140.155 52.2063 141.05 54.0026C141.055 54.0116 141.059 54.0206 141.064 54.0296C142.071 55.9049 144.279 56.4379 146.009 55.356L146.024 55.346C151.346 51.8784 154.948 48.3157 156.948 46.0588C156.951 46.0559 156.954 46.0529 156.956 46.0499C156.959 46.0465 156.962 46.043 156.965 46.0394C158.193 44.5808 158.179 42.5074 156.981 41.0754L165.104 40.7052C163.915 41.9334 163.752 43.9666 164.88 45.3093C166.75 47.8148 170.192 51.638 176.099 55.0567C177.834 56.1518 180.136 55.4694 180.977 53.4899C180.981 53.4805 180.985 53.4712 180.989 53.4617C181.688 51.6655 181.171 49.465 179.37 48.4016C174.976 45.7131 172.226 43.0284 170.838 41.2548L170.838 41.2548L170.834 41.2494C170.599 40.9536 170.335 40.6962 170.051 40.4797L176.645 40.1791C178.642 40.0881 180.126 38.284 180.033 36.2417C179.943 34.2684 178.31 32.5373 176.301 32.6289L160.757 33.3374L160.676 31.5603C160.587 29.6004 159.017 27.853 156.944 27.9475C154.935 28.039 153.467 29.9115 153.557 31.8848L153.638 33.662L141.576 34.2118C139.568 34.3033 138.099 36.1758 138.189 38.1491C138.282 40.1914 139.924 41.8529 141.921 41.7619L151.304 41.3342ZM144.881 77.7089L144.881 77.709L144.892 77.7034C151.827 74.2051 157.146 70.3743 160.968 66.9517C165.538 71.0753 171.702 75.3102 179.788 78.0726C181.725 78.7967 183.796 77.46 184.204 75.5288C184.631 73.5376 183.704 71.5249 181.752 70.8426C175.289 68.5835 170.087 65.0645 166.214 61.6303C167.934 59.7069 169.055 58.0277 169.892 56.7742C169.958 56.675 170.022 56.5784 170.085 56.4846C170.099 56.4641 170.112 56.443 170.124 56.4214C171.093 54.7128 170.535 52.4333 168.805 51.4786C168.784 51.4673 168.763 51.4568 168.742 51.447C167.024 50.6503 164.857 51.0987 163.693 52.7967C163.686 52.808 163.678 52.8195 163.671 52.8312C163.085 53.766 162.278 54.9997 161.066 56.4259C159.897 54.9847 158.99 53.8527 158.331 52.8642C157.205 51.0503 155.053 50.6061 153.352 51.5922C153.342 51.5978 153.332 51.6035 153.323 51.6094C151.606 52.6834 151.134 54.982 152.243 56.6335C153.028 58.0449 154.221 59.7165 155.803 61.5719C152.491 64.5367 147.974 67.7383 141.981 70.8269C139.988 71.7258 139.495 74.0433 140.216 75.7751C140.599 76.7672 141.296 77.4909 142.171 77.8399C143.045 78.1888 144.018 78.131 144.881 77.7089Z" fill="#24110A" stroke="white" stroke-width="2" stroke-linejoin="round"/>
<path d="M115.672 74.9482C115.674 74.9425 115.675 74.9368 115.677 74.9311C115.679 74.9238 115.681 74.9165 115.682 74.9091C117.364 67.8385 118.446 61.8845 118.539 60.0398C118.678 57.251 116.825 54.6887 113.797 54.6887H106.589C106.789 54.0385 106.949 53.4398 107.087 52.925C107.101 52.8721 107.115 52.8201 107.128 52.7691H109.41C112.33 52.7691 114.505 50.3627 114.505 47.674V34.6281C114.505 31.7358 112.302 29.533 109.41 29.533H96.7148C93.8224 29.533 91.6196 31.7358 91.6196 34.6281V47.674C91.6196 50.3627 93.7948 52.7691 96.7148 52.7691H98.9864C97.9047 56.165 96.0387 61.2701 93.5902 66.3712C92.6675 68.2935 93.4094 70.6341 95.1829 71.6014L95.2004 71.6108C97.1691 72.6345 99.5202 71.834 100.527 69.8979C100.535 69.8832 100.542 69.8682 100.549 69.8532C101.715 67.3095 102.793 64.9396 103.777 62.5388H110.453C110.403 64.1602 109.891 68.8944 108.45 73.7751C106.982 78.7525 104.528 83.8089 102.942 85.8766C102.906 85.9229 102.875 85.9723 102.848 86.0241C101.824 87.9928 102.624 90.3439 104.561 91.3507C104.57 91.3557 104.58 91.3604 104.589 91.365C106.478 92.2719 108.854 91.5766 109.715 89.5812C111.868 86.1672 114.127 80.4495 115.672 74.9482ZM99.4698 44.9189V37.3832H106.655V44.9189H99.4698ZM106.647 37.1711C106.647 37.1711 106.647 37.172 106.648 37.1739C106.647 37.1721 106.647 37.1711 106.647 37.1711ZM99.4776 37.1711C99.4776 37.1711 99.4774 37.1721 99.4768 37.1739C99.4772 37.172 99.4775 37.1711 99.4776 37.1711ZM124.625 45.4509C124.625 43.2606 122.891 41.5258 120.7 41.5258C118.582 41.5258 116.775 43.2476 116.775 45.4509V52.5881C116.775 54.7914 118.582 56.5132 120.7 56.5132C122.891 56.5132 124.625 54.7784 124.625 52.5881V45.4509ZM136.476 36.3832C136.476 34.1799 134.669 32.4581 132.551 32.4581C130.36 32.4581 128.626 34.1928 128.626 36.3832V69.963C128.626 72.1534 130.36 73.8881 132.551 73.8881C134.669 73.8881 136.476 72.1663 136.476 69.963V36.3832Z" fill="#24110A" stroke="white" stroke-width="2" stroke-linejoin="round"/>
<path d="M53.2103 70.8917C52.0802 70.1699 51.7426 68.5176 52.4193 67.2801C54.022 64.3517 54.5349 62.7353 55.1528 60.7877C55.2574 60.458 55.3651 60.1188 55.4815 59.762L54.411 59.8201M53.2103 70.8917L52.6172 71.6968C52.6261 71.7034 52.635 71.7098 52.6439 71.7163M53.2103 70.8917L52.6721 71.7345C52.6626 71.7285 52.6532 71.7224 52.6439 71.7163M53.2103 70.8917C54.3984 71.767 55.9579 71.2647 56.6374 70.0792C59.0659 65.7637 59.9072 62.7458 60.6472 60.0913C60.803 59.5326 60.9542 58.99 61.1149 58.4548L86.8247 57.0593C88.209 56.9842 89.2346 55.7799 89.1555 54.3224C89.0792 52.9169 87.9265 51.7787 86.5421 51.8539L76.1965 36.9523M52.6439 71.7163C51.0344 70.6653 50.6536 68.4248 51.5418 66.8003L51.542 66.8C53.0954 63.9619 53.5774 62.4432 54.1881 60.5192C54.26 60.2927 54.3336 60.0606 54.411 59.8201M52.6439 71.7163C54.3878 72.9766 56.5841 72.1831 57.5049 70.5765L57.505 70.5765L57.5088 70.5696C60.0005 66.142 60.8732 63.0085 61.615 60.3453C61.7031 60.029 61.7893 59.7194 61.8762 59.415L86.8789 58.0579C88.8625 57.9502 90.2604 56.2281 90.154 54.2682C90.0512 52.3737 88.4842 50.747 86.4879 50.8553L71.4178 51.6733L71.4076 51.4841L73.5239 51.3692C75.3592 51.2696 76.6638 49.657 76.5659 47.8532C76.468 46.0495 74.9965 44.5876 73.1612 44.6872L71.0449 44.8021L71.0261 44.4567L81.3003 43.899C83.2345 43.794 84.6791 42.0172 84.5755 40.1094C84.4684 38.1362 82.8309 36.5922 80.9094 36.6965L76.1965 36.9523M54.411 59.8201C54.5148 59.4977 54.6253 59.16 54.7473 58.8004L53.2042 58.8842C51.8693 58.9566 50.6699 57.8732 50.5908 56.4156C50.5145 55.0101 51.5867 53.7512 52.9216 53.6787L64.5308 53.0486L64.4766 52.05M54.411 59.8201L53.2584 59.8827C51.3368 59.987 49.6994 58.443 49.5923 56.4698C49.4887 54.562 50.9332 52.7852 52.8674 52.6802L64.4766 52.05M64.4766 52.05L64.4663 51.8608M64.4766 52.05L65.4751 51.9959M65.4751 51.9959L65.4648 51.8066L64.4663 51.8608M65.4751 51.9959L63.3467 35.6231C62.543 34.5182 60.9467 34.3438 59.8519 35.1863C59.0767 35.8092 58.7901 36.8937 59.0228 37.8844L58.0147 37.9391M65.4751 51.9959L76.1965 36.9523M64.4663 51.8608L64.4121 50.8623L60.9609 51.0496C59.7248 51.1167 58.6795 50.1293 58.6088 48.8279C58.5382 47.5265 59.4705 46.4318 60.7066 46.3647L64.1578 46.1774L64.1036 45.1788M64.4663 51.8608L61.0151 52.0481C59.1797 52.1478 57.7082 50.6859 57.6103 48.8821C57.5124 47.0783 58.817 45.4658 60.6524 45.3661L64.1036 45.1788M64.1036 45.1788L65.1022 45.1246L65.0834 44.7792L64.0849 44.8334M64.1036 45.1788L64.0849 44.8334M64.0849 44.8334L64.0307 43.8349L53.6576 44.3979C52.3227 44.4704 51.1205 43.3348 51.0442 41.9294C50.9651 40.4718 52.0401 39.2649 53.375 39.1924L58.3374 38.9231C58.1865 38.6109 58.0786 38.2789 58.0147 37.9391M64.0849 44.8334L53.7118 45.3964C51.7776 45.5014 50.1492 43.8914 50.0457 41.9836C49.9386 40.0104 51.3993 38.2982 53.3208 38.1939L58.0147 37.9391M58.0147 37.9391C57.7733 36.6568 58.1584 35.2642 59.2256 34.4068L59.242 34.3938C60.7469 33.2357 62.9944 33.4388 64.1554 35.0349L64.1671 35.0512L64.949 36.1729C65.292 36.5905 65.4925 37.0529 65.5894 37.528L68.6107 37.364C68.6533 36.929 68.7471 36.4989 68.9139 36.0921C68.928 36.0578 68.944 36.0243 68.9618 35.9918L69.6384 34.7543C69.6554 34.7232 69.674 34.6931 69.6941 34.6641C70.7905 33.0833 72.8396 32.537 74.4723 33.5731C75.6387 34.289 76.2669 35.6284 76.1965 36.9523M95.2395 74.8754C95.1331 72.9155 93.5571 71.3549 91.5734 71.4626L80.607 72.0578L80.3198 66.7672L81.7934 66.6872C83.6825 66.5846 85.2072 64.8888 84.9172 62.855C84.7895 60.9822 83.2326 59.3853 81.2541 59.4927L68.3993 60.1904C66.465 60.2954 65.0206 62.0722 65.1241 63.9801C65.2312 65.9533 66.8687 67.4973 68.7902 67.393L73.3786 67.1439L73.6658 72.4345L61.4139 73.0995C59.4923 73.2038 58.0316 74.916 58.1387 76.8892C58.2423 78.7971 59.8706 80.4071 61.8048 80.3021L91.9644 78.6651C93.9606 78.5567 95.3424 76.77 95.2395 74.8754Z" fill="#24110A" stroke="white" stroke-width="2" stroke-linejoin="round"/>
<path d="M3.30245 43.9942C3.30927 44.0008 3.31618 44.0072 3.32318 44.0136C4.92821 45.4751 7.49248 45.4302 8.85476 43.6499L11.4384 40.2733L18.545 40.4274L18.419 46.237L17.2976 46.2127L17.3176 45.2922C17.3634 43.1776 15.7456 41.248 13.4086 41.1973C11.2725 41.151 9.43445 42.9917 9.38829 45.1202L9.35141 46.8211C8.3932 47.5193 7.75115 48.6227 7.72373 49.8871C7.69577 51.1762 8.2671 52.329 9.21642 53.0459L9.07196 59.7073C7.17529 59.9148 5.72284 61.524 5.68035 63.4832C5.63905 65.3878 6.94333 67.0197 8.74865 67.3751C8.19375 67.7816 7.72895 68.331 7.40383 68.9881C7.39836 68.9992 7.39309 69.0104 7.38803 69.0216L3.26147 78.202C2.23527 80.3008 3.18208 82.8034 5.17297 83.8375C5.19313 83.848 5.21364 83.8578 5.23447 83.8669C7.27606 84.7565 9.75864 83.8135 10.6439 81.7132L14.8945 72.5368C14.9001 72.5247 14.9055 72.5124 14.9106 72.5C15.6085 70.8193 15.233 68.7141 13.7971 67.5412L45.4826 68.2283C47.6188 68.2746 49.3292 66.5592 49.3753 64.4307C49.4215 62.3022 47.7871 60.5143 45.6509 60.468L42.9056 60.4084L43.0329 54.5348L49.3361 54.6715C51.4723 54.7178 53.1827 53.0024 53.2288 50.8739C53.275 48.7454 51.6406 46.9575 49.5044 46.9111L43.2012 46.7744L43.3272 40.9648L43.5758 40.9702C45.712 41.0165 47.4224 39.3011 47.4685 37.1726C47.5147 35.0441 45.8803 33.2562 43.7441 33.2099L16.8658 32.627C17.606 30.8676 16.9418 28.7739 15.3618 27.7558C13.4789 26.4519 10.9514 27.057 9.87311 28.9402C7.32808 32.855 4.60989 36.2655 2.90527 38.249C1.32059 39.9922 1.78395 42.5305 3.30245 43.9942ZM26.8652 75.8141L26.8629 75.8089L24.6016 70.77C24.6012 70.769 24.6008 70.7681 24.6004 70.7672C23.6863 68.7024 21.2608 67.5788 19.1175 68.5767C19.1077 68.5812 19.098 68.586 19.0883 68.5908C17.028 69.6328 16.1687 72.113 17.0949 74.2089L17.0948 74.2089L17.0993 74.2187L19.3623 79.1944C20.3017 81.3125 22.7432 82.2135 24.816 81.2685C26.9792 80.4136 27.7699 77.8614 26.8652 75.8141ZM37.99 73.2072C37.9854 73.1958 37.9807 73.1845 37.9757 73.1733C37.0329 71.0397 34.5962 70.1671 32.5544 70.9534C32.5332 70.9615 32.5122 70.9704 32.4916 70.98C30.3916 71.9577 29.5738 74.4391 30.321 76.4844C30.3273 76.5017 30.3341 76.5188 30.3413 76.5357L32.8278 82.3298C33.6045 84.4082 36.032 85.6176 38.1857 84.562C40.2353 83.742 41.355 81.2686 40.3472 79.1207L37.99 73.2072ZM53.5601 76.8191C53.5545 76.8121 53.5488 76.8051 53.543 76.7981L48.1862 70.4061C48.1809 70.3998 48.1755 70.3935 48.1701 70.3873C48.1637 70.3801 48.1573 70.373 48.1507 70.366C46.5531 68.655 44.0622 68.5997 42.3911 70.0763L42.3874 70.0796C40.5703 71.7014 40.5157 74.225 41.8604 75.9208C41.8671 75.9293 41.8739 75.9375 41.8808 75.9457L47.239 82.2738C47.2494 82.2861 47.2602 82.2982 47.2712 82.31C48.8676 84.0197 51.4688 84.073 53.1327 82.6849C53.1535 82.6676 53.1735 82.6495 53.1928 82.6306C54.8479 81.0053 54.8987 78.5073 53.5601 76.8191ZM18.1233 59.871L17.0019 59.8467L17.1293 53.9731L18.2507 53.9974L18.1233 59.871ZM26.3626 60.0497L26.0526 60.0429L26.18 54.1693L26.4899 54.1761L26.3626 60.0497ZM34.6064 54.3521L35.1037 54.3629L34.9763 60.2365L34.4791 60.2257L34.6064 54.3521ZM26.4743 40.5994L35.3979 40.7929L35.2719 46.6025L34.7747 46.5917L34.7808 46.3113C34.8276 44.1557 32.9813 42.2622 30.8719 42.2164C28.6641 42.1685 26.7116 43.9537 26.6643 46.1353L26.6582 46.4157L26.3483 46.409L26.4743 40.5994Z" fill="#24110A" stroke="white" stroke-width="2" stroke-linejoin="round"/>
<mask id="path-8-outside-1_177_1869" maskUnits="userSpaceOnUse" x="28.6167" y="0" width="254" height="24" fill="black">
<rect fill="white" x="28.6167" width="254" height="24"/>
<path d="M47.3602 14.9719C47.9392 15.2035 48.1708 15.9677 47.8697 16.4772C46.1328 19.5341 43.3538 19.7193 42.497 19.7193C39.139 19.6035 37.68 17.7972 36.8231 15.8982C36.7537 15.7824 36.5916 15.7361 36.4758 15.8519C36.4758 15.8982 36.4063 15.8982 36.36 15.9677C34.7389 17.1024 33.3494 16.7088 32.701 16.3614C31.4272 15.7361 30.6167 14.2771 30.6167 12.8876C30.6167 11.4981 31.543 9.64545 33.1178 9.06649C33.7431 8.83491 34.9705 8.6728 36.2905 9.64545C36.4063 9.76124 36.5916 9.64545 36.5916 9.52966C36.7074 8.9507 36.7537 8.32542 36.7537 7.67699H34.8547C34.2063 7.67699 33.6968 7.1675 33.6968 6.51907C33.6968 5.89379 34.2063 5.36115 34.8547 5.36115H36.8231V3.85585C36.7537 3.23058 37.2863 2.65162 37.9116 2.58214C38.56 2.53583 39.0695 3.04531 39.139 3.69375C39.139 4.15691 39.139 4.73587 39.1853 5.36115H40.3432C40.9917 5.36115 41.5011 5.89379 41.5011 6.51907C41.5011 7.1675 40.9917 7.67699 40.3432 7.67699H39.139C39.0232 9.29807 38.7916 11.1044 38.3748 12.6097C38.3284 12.8413 38.3284 13.0034 38.3748 13.235C39.0695 15.6666 39.8337 17.2877 42.5433 17.4035C43.238 17.4035 44.697 17.2182 45.7391 15.5508C46.0865 14.9719 46.7812 14.7403 47.3602 14.9719ZM35.7115 13.1887C35.8273 13.0034 35.8273 12.7718 35.781 12.5402C35.7115 12.4939 35.7115 12.4245 35.6652 12.3781C35.5958 12.1929 35.48 12.0308 35.3178 11.8455C34.901 11.4518 34.3915 11.1044 33.9283 11.2665C33.3494 11.4518 32.9325 12.3087 32.9325 12.8876C32.9325 13.3508 33.2336 14.0455 33.7431 14.2771C33.8589 14.3466 34.2757 14.5782 35.0168 14.0455C35.3179 13.8834 35.5494 13.5824 35.7115 13.1887ZM45.276 11.2665C44.6275 11.2665 44.118 10.7571 44.118 10.1086C44.118 9.48334 44.6275 8.9507 45.276 8.9507H46.596C47.2907 9.02017 47.7539 9.52966 47.7539 10.1781C47.7539 10.8034 47.2444 11.336 46.596 11.2665H45.276Z"/>
<path d="M68.9438 6.63486C69.5922 6.63486 70.1712 7.1675 70.1712 7.86225C70.1712 8.48753 69.5922 9.06649 68.9438 9.06649H66.6974L67.0911 12.3781C67.2069 13.235 66.5817 13.9992 65.7016 14.0455C64.2658 14.115 61.5331 14.6245 61.0237 15.8982C60.6068 16.7088 61.1394 18.0288 62.3437 19.6499C62.7605 20.1825 62.6911 20.9236 62.1816 21.3867C61.6489 21.8036 60.9079 21.7341 60.491 21.2246C59.1015 19.4183 58.4762 17.8667 58.4762 16.4772C58.4762 15.8982 58.5225 15.3887 58.7541 14.9256C59.7499 12.7718 62.4132 12.0308 64.2658 11.7297C64.4279 11.7297 64.5437 11.5676 64.4974 11.3823C64.4279 10.8034 64.3121 9.99282 64.1964 9.06649H57.4341C56.7393 9.06649 56.2067 8.48753 56.2067 7.86225C56.2067 7.1675 56.7393 6.63486 57.4341 6.63486H63.9184C63.7332 5.47694 63.5711 4.31902 63.4553 3.50848C63.3858 2.8832 63.849 2.23477 64.5437 2.18845C65.1922 2.07266 65.8174 2.53583 65.8869 3.23058L66.3501 6.63486H68.9438Z"/>
<path d="M94.2559 14.8098C94.8349 15.1571 95.1128 15.8982 94.7654 16.5235C94.4875 17.1024 93.7233 17.334 93.1443 17.0561C88.5821 14.694 84.8073 11.7297 82.9083 10.1086C82.7925 9.99282 82.6073 10.0623 82.4915 10.1781L80.1293 13.814C79.7125 14.3466 78.9714 14.5087 78.3924 14.1613C77.8135 13.7676 77.6282 13.0034 78.0451 12.4245L81.2872 7.4454C81.7504 6.75065 82.723 6.63486 83.3715 7.21382C84.1125 7.86225 88.5821 11.8455 94.2559 14.8098ZM89.6242 9.52966L89.5085 8.83491C89.3232 8.32542 89.6706 7.79278 90.2032 7.67699C90.7127 7.51488 91.2453 7.86225 91.4074 8.37174L91.5232 9.06649C91.7085 9.59913 91.3611 10.1086 90.8285 10.2244C90.319 10.3402 89.7864 10.0623 89.6242 9.52966ZM92.6348 9.76124L92.3338 9.13597C92.1022 8.6728 92.3338 8.09384 92.8664 7.86225C93.3296 7.63067 93.9085 7.86225 94.1401 8.37174L94.418 9.02017C94.6496 9.48334 94.418 10.0623 93.9085 10.2939C93.3759 10.5255 92.7969 10.2939 92.6348 9.76124Z"/>
<path d="M116.419 9.13597C118.109 11.2202 117.808 14.3929 115.492 18.9088C115.145 19.4878 114.45 19.7193 113.825 19.372C113.246 19.0246 113.061 18.2604 113.362 17.6814C115.145 14.3466 115.562 11.915 114.52 10.6413C112.829 8.557 107.039 9.29807 103.102 10.3402C102.477 10.5718 101.782 10.1781 101.597 9.52966C101.366 8.90438 101.782 8.20963 102.408 8.02436C105.534 7.21382 113.477 5.47694 116.419 9.13597Z"/>
<path d="M130.892 6.12538C130.198 6.12538 129.688 5.54642 129.688 4.85167C129.688 4.15691 130.198 3.62427 130.892 3.62427H135.061C135.756 3.62427 136.288 4.15691 136.288 4.85167C136.288 5.54642 135.756 6.12538 135.061 6.12538H130.892ZM138.419 18.214C139.114 18.2604 139.646 18.793 139.693 19.4878C139.693 20.1825 139.183 20.7615 138.488 20.692C131.657 20.5762 127.882 16.7551 126.377 14.8561C125.983 14.3466 126.145 13.5361 126.724 13.235C127.372 12.8876 128.113 13.0034 128.53 13.5824C129.804 15.1571 132.93 18.0288 138.419 18.214Z"/>
<path d="M154.63 4.55061C153.935 4.55061 153.426 4.04112 153.426 3.34637C153.356 2.69794 153.935 2.11898 154.583 2.11898H156.598C157.247 2.07266 157.826 2.65162 157.826 3.2769C157.826 3.97165 157.293 4.50429 156.598 4.55061H154.63ZM160.419 8.25595C163.384 11.6139 161.068 17.5656 159.956 19.9972C159.678 20.6457 158.914 20.8773 158.335 20.5299C157.756 20.1825 157.525 19.4878 157.826 18.8393C158.984 16.3614 160.419 11.915 158.567 9.83072C157.293 8.37174 153.703 8.9507 151.619 9.52966C150.994 9.71492 150.299 9.36755 150.068 8.71911C149.836 8.09384 150.183 7.39909 150.809 7.21382C153.125 6.51907 158.104 5.59273 160.419 8.25595Z"/>
<path d="M177.51 8.02436C179.178 8.20963 180.799 8.78859 181.957 10.0623C183.694 11.915 183.925 14.9256 182.651 18.8393C182.42 19.4878 181.725 19.8351 181.1 19.6035C180.521 19.372 180.174 18.6772 180.405 18.0288C181.1 15.7361 181.494 13.1192 180.174 11.6834C179.479 10.9192 178.321 10.5255 177.047 10.4097C176.399 13.1887 175.658 16.2919 174.778 19.0709C174.546 19.6499 173.921 19.9972 173.342 19.8351C172.693 19.6036 172.346 18.9551 172.578 18.3298C173.342 15.8519 174.037 12.9571 174.615 10.4097C173.805 10.456 172.994 10.5718 172.3 10.7571C171.651 10.8728 170.956 10.456 170.794 9.83072C170.609 9.18228 171.026 8.55701 171.651 8.37174C172.531 8.20963 173.805 7.97805 175.194 7.90857C175.542 6.12538 175.82 4.55061 176.005 3.62427C176.167 2.99899 176.746 2.53583 177.395 2.65162C178.02 2.76741 178.437 3.34637 178.321 3.97165L177.51 8.02436ZM188.742 10.456C189.205 10.9192 189.205 11.6834 188.673 12.1466C188.209 12.6097 187.468 12.6097 187.005 12.0771L184.62 9.59913C184.157 9.06649 184.157 8.32542 184.689 7.86225C185.153 7.39909 185.894 7.4454 186.357 7.90857L188.742 10.456Z"/>
<path d="M211.368 16.6393C211.715 17.2182 211.553 17.9825 210.905 18.2604C208.705 19.4183 206.574 19.7193 204.536 19.0709C202.29 18.3762 200.368 16.1993 199.279 14.5782C198.469 16.014 197.589 17.5193 196.616 18.9551C196.269 19.5341 195.504 19.7193 194.925 19.3025C194.416 18.9551 194.231 18.214 194.578 17.6351C198.237 12.0771 200.599 6.40328 201.526 4.08744C201.757 3.46216 202.452 3.1611 203.1 3.34637C203.726 3.57795 204.027 4.27271 203.795 4.89798C203.262 6.35696 202.174 9.02017 200.553 12.1466C200.669 12.2623 200.715 12.3781 200.784 12.4939C201.479 13.6518 203.332 16.1298 205.3 16.7551C206.62 17.1719 208.079 16.9867 209.631 16.1993C210.279 15.8982 210.974 16.0835 211.368 16.6393Z"/>
<path d="M219.473 4.27271C220.122 4.20323 220.701 4.78219 220.701 5.43062L220.863 15.5508C220.863 16.1993 220.353 16.7551 219.659 16.7551C218.964 16.7551 218.431 16.2456 218.431 15.6203L218.269 5.47694C218.269 4.78219 218.779 4.27271 219.473 4.27271ZM233.253 16.6393C233.901 16.7551 234.364 17.334 234.248 18.0288C234.179 18.6772 233.554 19.1404 232.905 19.0246C227.81 18.1446 225.147 15.8519 224.059 14.5087C223.595 13.9992 223.758 13.235 224.29 12.9571C224.916 12.6097 225.68 12.7255 226.143 13.235C227.116 14.2771 229.269 15.8982 233.253 16.6393ZM227.185 7.05171C226.49 7.05171 225.958 6.51907 225.958 5.82432C225.958 5.19904 226.49 4.62008 227.185 4.62008H231.516C232.164 4.62008 232.743 5.19904 232.743 5.82432C232.743 6.51907 232.164 7.05171 231.516 7.05171H227.185Z"/>
<path d="M252.775 11.5676C254.165 13.3045 253.979 15.8519 252.127 19.4183C251.849 19.9972 251.154 20.1825 250.575 19.8815C250.042 19.5341 249.811 18.8393 250.112 18.2604C251.386 15.7824 251.733 13.9297 250.969 13.0034C249.695 11.4518 245.063 12.0771 242.238 12.8413C241.59 13.0034 240.964 12.656 240.779 12.0308C240.547 11.4518 240.964 10.7571 241.543 10.6413C244.206 9.87703 250.39 8.60332 252.775 11.5676Z"/>
<path d="M278.875 8.37174C279.453 8.37174 279.986 8.83491 279.986 9.48334C279.986 10.1086 279.453 10.6413 278.875 10.6413H276.327L276.674 13.6982C276.744 14.5087 276.096 15.2729 275.239 15.3193C274.197 15.3887 271.881 15.7824 271.232 16.9867C270.769 17.7972 271.116 18.9551 271.649 19.9972C271.927 20.6457 271.695 21.3404 271.186 21.6878C270.607 22.0815 269.843 21.8499 269.565 21.271C268.916 19.9972 268.569 18.9088 268.569 17.8667C268.569 17.1024 268.754 16.4077 269.102 15.8519C270.074 13.9992 272.274 13.3045 273.849 13.0729C274.011 13.0034 274.127 12.8413 274.127 12.656C274.081 12.1929 274.011 11.4518 273.895 10.6413H266.948C266.323 10.6413 265.79 10.1086 265.79 9.48334C265.79 8.83491 266.323 8.37174 266.948 8.37174H273.664C273.618 7.63067 273.502 6.82013 273.432 6.12538H269.102C268.453 6.12538 267.944 5.59273 267.944 4.96746C267.944 4.3885 268.453 3.85585 269.102 3.85585H273.201C273.201 3.69375 273.154 3.50848 273.154 3.34637C273.085 2.65162 273.548 2.07266 274.243 2.00318C274.891 1.95687 275.517 2.42004 275.586 3.11479L275.632 3.85585H276.79C277.439 3.85585 277.948 4.3885 277.948 4.96746C277.948 5.59273 277.439 6.12538 276.79 6.12538H275.864L276.096 8.37174H278.875Z"/>
</mask>
<path d="M47.3602 14.9719C47.9392 15.2035 48.1708 15.9677 47.8697 16.4772C46.1328 19.5341 43.3538 19.7193 42.497 19.7193C39.139 19.6035 37.68 17.7972 36.8231 15.8982C36.7537 15.7824 36.5916 15.7361 36.4758 15.8519C36.4758 15.8982 36.4063 15.8982 36.36 15.9677C34.7389 17.1024 33.3494 16.7088 32.701 16.3614C31.4272 15.7361 30.6167 14.2771 30.6167 12.8876C30.6167 11.4981 31.543 9.64545 33.1178 9.06649C33.7431 8.83491 34.9705 8.6728 36.2905 9.64545C36.4063 9.76124 36.5916 9.64545 36.5916 9.52966C36.7074 8.9507 36.7537 8.32542 36.7537 7.67699H34.8547C34.2063 7.67699 33.6968 7.1675 33.6968 6.51907C33.6968 5.89379 34.2063 5.36115 34.8547 5.36115H36.8231V3.85585C36.7537 3.23058 37.2863 2.65162 37.9116 2.58214C38.56 2.53583 39.0695 3.04531 39.139 3.69375C39.139 4.15691 39.139 4.73587 39.1853 5.36115H40.3432C40.9917 5.36115 41.5011 5.89379 41.5011 6.51907C41.5011 7.1675 40.9917 7.67699 40.3432 7.67699H39.139C39.0232 9.29807 38.7916 11.1044 38.3748 12.6097C38.3284 12.8413 38.3284 13.0034 38.3748 13.235C39.0695 15.6666 39.8337 17.2877 42.5433 17.4035C43.238 17.4035 44.697 17.2182 45.7391 15.5508C46.0865 14.9719 46.7812 14.7403 47.3602 14.9719ZM35.7115 13.1887C35.8273 13.0034 35.8273 12.7718 35.781 12.5402C35.7115 12.4939 35.7115 12.4245 35.6652 12.3781C35.5958 12.1929 35.48 12.0308 35.3178 11.8455C34.901 11.4518 34.3915 11.1044 33.9283 11.2665C33.3494 11.4518 32.9325 12.3087 32.9325 12.8876C32.9325 13.3508 33.2336 14.0455 33.7431 14.2771C33.8589 14.3466 34.2757 14.5782 35.0168 14.0455C35.3179 13.8834 35.5494 13.5824 35.7115 13.1887ZM45.276 11.2665C44.6275 11.2665 44.118 10.7571 44.118 10.1086C44.118 9.48334 44.6275 8.9507 45.276 8.9507H46.596C47.2907 9.02017 47.7539 9.52966 47.7539 10.1781C47.7539 10.8034 47.2444 11.336 46.596 11.2665H45.276Z" fill="#24110A"/>
<path d="M68.9438 6.63486C69.5922 6.63486 70.1712 7.1675 70.1712 7.86225C70.1712 8.48753 69.5922 9.06649 68.9438 9.06649H66.6974L67.0911 12.3781C67.2069 13.235 66.5817 13.9992 65.7016 14.0455C64.2658 14.115 61.5331 14.6245 61.0237 15.8982C60.6068 16.7088 61.1394 18.0288 62.3437 19.6499C62.7605 20.1825 62.6911 20.9236 62.1816 21.3867C61.6489 21.8036 60.9079 21.7341 60.491 21.2246C59.1015 19.4183 58.4762 17.8667 58.4762 16.4772C58.4762 15.8982 58.5225 15.3887 58.7541 14.9256C59.7499 12.7718 62.4132 12.0308 64.2658 11.7297C64.4279 11.7297 64.5437 11.5676 64.4974 11.3823C64.4279 10.8034 64.3121 9.99282 64.1964 9.06649H57.4341C56.7393 9.06649 56.2067 8.48753 56.2067 7.86225C56.2067 7.1675 56.7393 6.63486 57.4341 6.63486H63.9184C63.7332 5.47694 63.5711 4.31902 63.4553 3.50848C63.3858 2.8832 63.849 2.23477 64.5437 2.18845C65.1922 2.07266 65.8174 2.53583 65.8869 3.23058L66.3501 6.63486H68.9438Z" fill="#24110A"/>
<path d="M94.2559 14.8098C94.8349 15.1571 95.1128 15.8982 94.7654 16.5235C94.4875 17.1024 93.7233 17.334 93.1443 17.0561C88.5821 14.694 84.8073 11.7297 82.9083 10.1086C82.7925 9.99282 82.6073 10.0623 82.4915 10.1781L80.1293 13.814C79.7125 14.3466 78.9714 14.5087 78.3924 14.1613C77.8135 13.7676 77.6282 13.0034 78.0451 12.4245L81.2872 7.4454C81.7504 6.75065 82.723 6.63486 83.3715 7.21382C84.1125 7.86225 88.5821 11.8455 94.2559 14.8098ZM89.6242 9.52966L89.5085 8.83491C89.3232 8.32542 89.6706 7.79278 90.2032 7.67699C90.7127 7.51488 91.2453 7.86225 91.4074 8.37174L91.5232 9.06649C91.7085 9.59913 91.3611 10.1086 90.8285 10.2244C90.319 10.3402 89.7864 10.0623 89.6242 9.52966ZM92.6348 9.76124L92.3338 9.13597C92.1022 8.6728 92.3338 8.09384 92.8664 7.86225C93.3296 7.63067 93.9085 7.86225 94.1401 8.37174L94.418 9.02017C94.6496 9.48334 94.418 10.0623 93.9085 10.2939C93.3759 10.5255 92.7969 10.2939 92.6348 9.76124Z" fill="#24110A"/>
<path d="M116.419 9.13597C118.109 11.2202 117.808 14.3929 115.492 18.9088C115.145 19.4878 114.45 19.7193 113.825 19.372C113.246 19.0246 113.061 18.2604 113.362 17.6814C115.145 14.3466 115.562 11.915 114.52 10.6413C112.829 8.557 107.039 9.29807 103.102 10.3402C102.477 10.5718 101.782 10.1781 101.597 9.52966C101.366 8.90438 101.782 8.20963 102.408 8.02436C105.534 7.21382 113.477 5.47694 116.419 9.13597Z" fill="#24110A"/>
<path d="M130.892 6.12538C130.198 6.12538 129.688 5.54642 129.688 4.85167C129.688 4.15691 130.198 3.62427 130.892 3.62427H135.061C135.756 3.62427 136.288 4.15691 136.288 4.85167C136.288 5.54642 135.756 6.12538 135.061 6.12538H130.892ZM138.419 18.214C139.114 18.2604 139.646 18.793 139.693 19.4878C139.693 20.1825 139.183 20.7615 138.488 20.692C131.657 20.5762 127.882 16.7551 126.377 14.8561C125.983 14.3466 126.145 13.5361 126.724 13.235C127.372 12.8876 128.113 13.0034 128.53 13.5824C129.804 15.1571 132.93 18.0288 138.419 18.214Z" fill="#24110A"/>
<path d="M154.63 4.55061C153.935 4.55061 153.426 4.04112 153.426 3.34637C153.356 2.69794 153.935 2.11898 154.583 2.11898H156.598C157.247 2.07266 157.826 2.65162 157.826 3.2769C157.826 3.97165 157.293 4.50429 156.598 4.55061H154.63ZM160.419 8.25595C163.384 11.6139 161.068 17.5656 159.956 19.9972C159.678 20.6457 158.914 20.8773 158.335 20.5299C157.756 20.1825 157.525 19.4878 157.826 18.8393C158.984 16.3614 160.419 11.915 158.567 9.83072C157.293 8.37174 153.703 8.9507 151.619 9.52966C150.994 9.71492 150.299 9.36755 150.068 8.71911C149.836 8.09384 150.183 7.39909 150.809 7.21382C153.125 6.51907 158.104 5.59273 160.419 8.25595Z" fill="#24110A"/>
<path d="M177.51 8.02436C179.178 8.20963 180.799 8.78859 181.957 10.0623C183.694 11.915 183.925 14.9256 182.651 18.8393C182.42 19.4878 181.725 19.8351 181.1 19.6035C180.521 19.372 180.174 18.6772 180.405 18.0288C181.1 15.7361 181.494 13.1192 180.174 11.6834C179.479 10.9192 178.321 10.5255 177.047 10.4097C176.399 13.1887 175.658 16.2919 174.778 19.0709C174.546 19.6499 173.921 19.9972 173.342 19.8351C172.693 19.6036 172.346 18.9551 172.578 18.3298C173.342 15.8519 174.037 12.9571 174.615 10.4097C173.805 10.456 172.994 10.5718 172.3 10.7571C171.651 10.8728 170.956 10.456 170.794 9.83072C170.609 9.18228 171.026 8.55701 171.651 8.37174C172.531 8.20963 173.805 7.97805 175.194 7.90857C175.542 6.12538 175.82 4.55061 176.005 3.62427C176.167 2.99899 176.746 2.53583 177.395 2.65162C178.02 2.76741 178.437 3.34637 178.321 3.97165L177.51 8.02436ZM188.742 10.456C189.205 10.9192 189.205 11.6834 188.673 12.1466C188.209 12.6097 187.468 12.6097 187.005 12.0771L184.62 9.59913C184.157 9.06649 184.157 8.32542 184.689 7.86225C185.153 7.39909 185.894 7.4454 186.357 7.90857L188.742 10.456Z" fill="#24110A"/>
<path d="M211.368 16.6393C211.715 17.2182 211.553 17.9825 210.905 18.2604C208.705 19.4183 206.574 19.7193 204.536 19.0709C202.29 18.3762 200.368 16.1993 199.279 14.5782C198.469 16.014 197.589 17.5193 196.616 18.9551C196.269 19.5341 195.504 19.7193 194.925 19.3025C194.416 18.9551 194.231 18.214 194.578 17.6351C198.237 12.0771 200.599 6.40328 201.526 4.08744C201.757 3.46216 202.452 3.1611 203.1 3.34637C203.726 3.57795 204.027 4.27271 203.795 4.89798C203.262 6.35696 202.174 9.02017 200.553 12.1466C200.669 12.2623 200.715 12.3781 200.784 12.4939C201.479 13.6518 203.332 16.1298 205.3 16.7551C206.62 17.1719 208.079 16.9867 209.631 16.1993C210.279 15.8982 210.974 16.0835 211.368 16.6393Z" fill="#24110A"/>
<path d="M219.473 4.27271C220.122 4.20323 220.701 4.78219 220.701 5.43062L220.863 15.5508C220.863 16.1993 220.353 16.7551 219.659 16.7551C218.964 16.7551 218.431 16.2456 218.431 15.6203L218.269 5.47694C218.269 4.78219 218.779 4.27271 219.473 4.27271ZM233.253 16.6393C233.901 16.7551 234.364 17.334 234.248 18.0288C234.179 18.6772 233.554 19.1404 232.905 19.0246C227.81 18.1446 225.147 15.8519 224.059 14.5087C223.595 13.9992 223.758 13.235 224.29 12.9571C224.916 12.6097 225.68 12.7255 226.143 13.235C227.116 14.2771 229.269 15.8982 233.253 16.6393ZM227.185 7.05171C226.49 7.05171 225.958 6.51907 225.958 5.82432C225.958 5.19904 226.49 4.62008 227.185 4.62008H231.516C232.164 4.62008 232.743 5.19904 232.743 5.82432C232.743 6.51907 232.164 7.05171 231.516 7.05171H227.185Z" fill="#24110A"/>
<path d="M252.775 11.5676C254.165 13.3045 253.979 15.8519 252.127 19.4183C251.849 19.9972 251.154 20.1825 250.575 19.8815C250.042 19.5341 249.811 18.8393 250.112 18.2604C251.386 15.7824 251.733 13.9297 250.969 13.0034C249.695 11.4518 245.063 12.0771 242.238 12.8413C241.59 13.0034 240.964 12.656 240.779 12.0308C240.547 11.4518 240.964 10.7571 241.543 10.6413C244.206 9.87703 250.39 8.60332 252.775 11.5676Z" fill="#24110A"/>
<path d="M278.875 8.37174C279.453 8.37174 279.986 8.83491 279.986 9.48334C279.986 10.1086 279.453 10.6413 278.875 10.6413H276.327L276.674 13.6982C276.744 14.5087 276.096 15.2729 275.239 15.3193C274.197 15.3887 271.881 15.7824 271.232 16.9867C270.769 17.7972 271.116 18.9551 271.649 19.9972C271.927 20.6457 271.695 21.3404 271.186 21.6878C270.607 22.0815 269.843 21.8499 269.565 21.271C268.916 19.9972 268.569 18.9088 268.569 17.8667C268.569 17.1024 268.754 16.4077 269.102 15.8519C270.074 13.9992 272.274 13.3045 273.849 13.0729C274.011 13.0034 274.127 12.8413 274.127 12.656C274.081 12.1929 274.011 11.4518 273.895 10.6413H266.948C266.323 10.6413 265.79 10.1086 265.79 9.48334C265.79 8.83491 266.323 8.37174 266.948 8.37174H273.664C273.618 7.63067 273.502 6.82013 273.432 6.12538H269.102C268.453 6.12538 267.944 5.59273 267.944 4.96746C267.944 4.3885 268.453 3.85585 269.102 3.85585H273.201C273.201 3.69375 273.154 3.50848 273.154 3.34637C273.085 2.65162 273.548 2.07266 274.243 2.00318C274.891 1.95687 275.517 2.42004 275.586 3.11479L275.632 3.85585H276.79C277.439 3.85585 277.948 4.3885 277.948 4.96746C277.948 5.59273 277.439 6.12538 276.79 6.12538H275.864L276.096 8.37174H278.875Z" fill="#24110A"/>
<path d="M47.3602 14.9719C47.9392 15.2035 48.1708 15.9677 47.8697 16.4772C46.1328 19.5341 43.3538 19.7193 42.497 19.7193C39.139 19.6035 37.68 17.7972 36.8231 15.8982C36.7537 15.7824 36.5916 15.7361 36.4758 15.8519C36.4758 15.8982 36.4063 15.8982 36.36 15.9677C34.7389 17.1024 33.3494 16.7088 32.701 16.3614C31.4272 15.7361 30.6167 14.2771 30.6167 12.8876C30.6167 11.4981 31.543 9.64545 33.1178 9.06649C33.7431 8.83491 34.9705 8.6728 36.2905 9.64545C36.4063 9.76124 36.5916 9.64545 36.5916 9.52966C36.7074 8.9507 36.7537 8.32542 36.7537 7.67699H34.8547C34.2063 7.67699 33.6968 7.1675 33.6968 6.51907C33.6968 5.89379 34.2063 5.36115 34.8547 5.36115H36.8231V3.85585C36.7537 3.23058 37.2863 2.65162 37.9116 2.58214C38.56 2.53583 39.0695 3.04531 39.139 3.69375C39.139 4.15691 39.139 4.73587 39.1853 5.36115H40.3432C40.9917 5.36115 41.5011 5.89379 41.5011 6.51907C41.5011 7.1675 40.9917 7.67699 40.3432 7.67699H39.139C39.0232 9.29807 38.7916 11.1044 38.3748 12.6097C38.3284 12.8413 38.3284 13.0034 38.3748 13.235C39.0695 15.6666 39.8337 17.2877 42.5433 17.4035C43.238 17.4035 44.697 17.2182 45.7391 15.5508C46.0865 14.9719 46.7812 14.7403 47.3602 14.9719ZM35.7115 13.1887C35.8273 13.0034 35.8273 12.7718 35.781 12.5402C35.7115 12.4939 35.7115 12.4245 35.6652 12.3781C35.5958 12.1929 35.48 12.0308 35.3178 11.8455C34.901 11.4518 34.3915 11.1044 33.9283 11.2665C33.3494 11.4518 32.9325 12.3087 32.9325 12.8876C32.9325 13.3508 33.2336 14.0455 33.7431 14.2771C33.8589 14.3466 34.2757 14.5782 35.0168 14.0455C35.3179 13.8834 35.5494 13.5824 35.7115 13.1887ZM45.276 11.2665C44.6275 11.2665 44.118 10.7571 44.118 10.1086C44.118 9.48334 44.6275 8.9507 45.276 8.9507H46.596C47.2907 9.02017 47.7539 9.52966 47.7539 10.1781C47.7539 10.8034 47.2444 11.336 46.596 11.2665H45.276Z" stroke="white" stroke-width="4" mask="url(#path-8-outside-1_177_1869)"/>
<path d="M68.9438 6.63486C69.5922 6.63486 70.1712 7.1675 70.1712 7.86225C70.1712 8.48753 69.5922 9.06649 68.9438 9.06649H66.6974L67.0911 12.3781C67.2069 13.235 66.5817 13.9992 65.7016 14.0455C64.2658 14.115 61.5331 14.6245 61.0237 15.8982C60.6068 16.7088 61.1394 18.0288 62.3437 19.6499C62.7605 20.1825 62.6911 20.9236 62.1816 21.3867C61.6489 21.8036 60.9079 21.7341 60.491 21.2246C59.1015 19.4183 58.4762 17.8667 58.4762 16.4772C58.4762 15.8982 58.5225 15.3887 58.7541 14.9256C59.7499 12.7718 62.4132 12.0308 64.2658 11.7297C64.4279 11.7297 64.5437 11.5676 64.4974 11.3823C64.4279 10.8034 64.3121 9.99282 64.1964 9.06649H57.4341C56.7393 9.06649 56.2067 8.48753 56.2067 7.86225C56.2067 7.1675 56.7393 6.63486 57.4341 6.63486H63.9184C63.7332 5.47694 63.5711 4.31902 63.4553 3.50848C63.3858 2.8832 63.849 2.23477 64.5437 2.18845C65.1922 2.07266 65.8174 2.53583 65.8869 3.23058L66.3501 6.63486H68.9438Z" stroke="white" stroke-width="4" mask="url(#path-8-outside-1_177_1869)"/>
<path d="M94.2559 14.8098C94.8349 15.1571 95.1128 15.8982 94.7654 16.5235C94.4875 17.1024 93.7233 17.334 93.1443 17.0561C88.5821 14.694 84.8073 11.7297 82.9083 10.1086C82.7925 9.99282 82.6073 10.0623 82.4915 10.1781L80.1293 13.814C79.7125 14.3466 78.9714 14.5087 78.3924 14.1613C77.8135 13.7676 77.6282 13.0034 78.0451 12.4245L81.2872 7.4454C81.7504 6.75065 82.723 6.63486 83.3715 7.21382C84.1125 7.86225 88.5821 11.8455 94.2559 14.8098ZM89.6242 9.52966L89.5085 8.83491C89.3232 8.32542 89.6706 7.79278 90.2032 7.67699C90.7127 7.51488 91.2453 7.86225 91.4074 8.37174L91.5232 9.06649C91.7085 9.59913 91.3611 10.1086 90.8285 10.2244C90.319 10.3402 89.7864 10.0623 89.6242 9.52966ZM92.6348 9.76124L92.3338 9.13597C92.1022 8.6728 92.3338 8.09384 92.8664 7.86225C93.3296 7.63067 93.9085 7.86225 94.1401 8.37174L94.418 9.02017C94.6496 9.48334 94.418 10.0623 93.9085 10.2939C93.3759 10.5255 92.7969 10.2939 92.6348 9.76124Z" stroke="white" stroke-width="4" mask="url(#path-8-outside-1_177_1869)"/>
<path d="M116.419 9.13597C118.109 11.2202 117.808 14.3929 115.492 18.9088C115.145 19.4878 114.45 19.7193 113.825 19.372C113.246 19.0246 113.061 18.2604 113.362 17.6814C115.145 14.3466 115.562 11.915 114.52 10.6413C112.829 8.557 107.039 9.29807 103.102 10.3402C102.477 10.5718 101.782 10.1781 101.597 9.52966C101.366 8.90438 101.782 8.20963 102.408 8.02436C105.534 7.21382 113.477 5.47694 116.419 9.13597Z" stroke="white" stroke-width="4" mask="url(#path-8-outside-1_177_1869)"/>
<path d="M130.892 6.12538C130.198 6.12538 129.688 5.54642 129.688 4.85167C129.688 4.15691 130.198 3.62427 130.892 3.62427H135.061C135.756 3.62427 136.288 4.15691 136.288 4.85167C136.288 5.54642 135.756 6.12538 135.061 6.12538H130.892ZM138.419 18.214C139.114 18.2604 139.646 18.793 139.693 19.4878C139.693 20.1825 139.183 20.7615 138.488 20.692C131.657 20.5762 127.882 16.7551 126.377 14.8561C125.983 14.3466 126.145 13.5361 126.724 13.235C127.372 12.8876 128.113 13.0034 128.53 13.5824C129.804 15.1571 132.93 18.0288 138.419 18.214Z" stroke="white" stroke-width="4" mask="url(#path-8-outside-1_177_1869)"/>
<path d="M154.63 4.55061C153.935 4.55061 153.426 4.04112 153.426 3.34637C153.356 2.69794 153.935 2.11898 154.583 2.11898H156.598C157.247 2.07266 157.826 2.65162 157.826 3.2769C157.826 3.97165 157.293 4.50429 156.598 4.55061H154.63ZM160.419 8.25595C163.384 11.6139 161.068 17.5656 159.956 19.9972C159.678 20.6457 158.914 20.8773 158.335 20.5299C157.756 20.1825 157.525 19.4878 157.826 18.8393C158.984 16.3614 160.419 11.915 158.567 9.83072C157.293 8.37174 153.703 8.9507 151.619 9.52966C150.994 9.71492 150.299 9.36755 150.068 8.71911C149.836 8.09384 150.183 7.39909 150.809 7.21382C153.125 6.51907 158.104 5.59273 160.419 8.25595Z" stroke="white" stroke-width="4" mask="url(#path-8-outside-1_177_1869)"/>
<path d="M177.51 8.02436C179.178 8.20963 180.799 8.78859 181.957 10.0623C183.694 11.915 183.925 14.9256 182.651 18.8393C182.42 19.4878 181.725 19.8351 181.1 19.6035C180.521 19.372 180.174 18.6772 180.405 18.0288C181.1 15.7361 181.494 13.1192 180.174 11.6834C179.479 10.9192 178.321 10.5255 177.047 10.4097C176.399 13.1887 175.658 16.2919 174.778 19.0709C174.546 19.6499 173.921 19.9972 173.342 19.8351C172.693 19.6036 172.346 18.9551 172.578 18.3298C173.342 15.8519 174.037 12.9571 174.615 10.4097C173.805 10.456 172.994 10.5718 172.3 10.7571C171.651 10.8728 170.956 10.456 170.794 9.83072C170.609 9.18228 171.026 8.55701 171.651 8.37174C172.531 8.20963 173.805 7.97805 175.194 7.90857C175.542 6.12538 175.82 4.55061 176.005 3.62427C176.167 2.99899 176.746 2.53583 177.395 2.65162C178.02 2.76741 178.437 3.34637 178.321 3.97165L177.51 8.02436ZM188.742 10.456C189.205 10.9192 189.205 11.6834 188.673 12.1466C188.209 12.6097 187.468 12.6097 187.005 12.0771L184.62 9.59913C184.157 9.06649 184.157 8.32542 184.689 7.86225C185.153 7.39909 185.894 7.4454 186.357 7.90857L188.742 10.456Z" stroke="white" stroke-width="4" mask="url(#path-8-outside-1_177_1869)"/>
<path d="M211.368 16.6393C211.715 17.2182 211.553 17.9825 210.905 18.2604C208.705 19.4183 206.574 19.7193 204.536 19.0709C202.29 18.3762 200.368 16.1993 199.279 14.5782C198.469 16.014 197.589 17.5193 196.616 18.9551C196.269 19.5341 195.504 19.7193 194.925 19.3025C194.416 18.9551 194.231 18.214 194.578 17.6351C198.237 12.0771 200.599 6.40328 201.526 4.08744C201.757 3.46216 202.452 3.1611 203.1 3.34637C203.726 3.57795 204.027 4.27271 203.795 4.89798C203.262 6.35696 202.174 9.02017 200.553 12.1466C200.669 12.2623 200.715 12.3781 200.784 12.4939C201.479 13.6518 203.332 16.1298 205.3 16.7551C206.62 17.1719 208.079 16.9867 209.631 16.1993C210.279 15.8982 210.974 16.0835 211.368 16.6393Z" stroke="white" stroke-width="4" mask="url(#path-8-outside-1_177_1869)"/>
<path d="M219.473 4.27271C220.122 4.20323 220.701 4.78219 220.701 5.43062L220.863 15.5508C220.863 16.1993 220.353 16.7551 219.659 16.7551C218.964 16.7551 218.431 16.2456 218.431 15.6203L218.269 5.47694C218.269 4.78219 218.779 4.27271 219.473 4.27271ZM233.253 16.6393C233.901 16.7551 234.364 17.334 234.248 18.0288C234.179 18.6772 233.554 19.1404 232.905 19.0246C227.81 18.1446 225.147 15.8519 224.059 14.5087C223.595 13.9992 223.758 13.235 224.29 12.9571C224.916 12.6097 225.68 12.7255 226.143 13.235C227.116 14.2771 229.269 15.8982 233.253 16.6393ZM227.185 7.05171C226.49 7.05171 225.958 6.51907 225.958 5.82432C225.958 5.19904 226.49 4.62008 227.185 4.62008H231.516C232.164 4.62008 232.743 5.19904 232.743 5.82432C232.743 6.51907 232.164 7.05171 231.516 7.05171H227.185Z" stroke="white" stroke-width="4" mask="url(#path-8-outside-1_177_1869)"/>
<path d="M252.775 11.5676C254.165 13.3045 253.979 15.8519 252.127 19.4183C251.849 19.9972 251.154 20.1825 250.575 19.8815C250.042 19.5341 249.811 18.8393 250.112 18.2604C251.386 15.7824 251.733 13.9297 250.969 13.0034C249.695 11.4518 245.063 12.0771 242.238 12.8413C241.59 13.0034 240.964 12.656 240.779 12.0308C240.547 11.4518 240.964 10.7571 241.543 10.6413C244.206 9.87703 250.39 8.60332 252.775 11.5676Z" stroke="white" stroke-width="4" mask="url(#path-8-outside-1_177_1869)"/>
<path d="M278.875 8.37174C279.453 8.37174 279.986 8.83491 279.986 9.48334C279.986 10.1086 279.453 10.6413 278.875 10.6413H276.327L276.674 13.6982C276.744 14.5087 276.096 15.2729 275.239 15.3193C274.197 15.3887 271.881 15.7824 271.232 16.9867C270.769 17.7972 271.116 18.9551 271.649 19.9972C271.927 20.6457 271.695 21.3404 271.186 21.6878C270.607 22.0815 269.843 21.8499 269.565 21.271C268.916 19.9972 268.569 18.9088 268.569 17.8667C268.569 17.1024 268.754 16.4077 269.102 15.8519C270.074 13.9992 272.274 13.3045 273.849 13.0729C274.011 13.0034 274.127 12.8413 274.127 12.656C274.081 12.1929 274.011 11.4518 273.895 10.6413H266.948C266.323 10.6413 265.79 10.1086 265.79 9.48334C265.79 8.83491 266.323 8.37174 266.948 8.37174H273.664C273.618 7.63067 273.502 6.82013 273.432 6.12538H269.102C268.453 6.12538 267.944 5.59273 267.944 4.96746C267.944 4.3885 268.453 3.85585 269.102 3.85585H273.201C273.201 3.69375 273.154 3.50848 273.154 3.34637C273.085 2.65162 273.548 2.07266 274.243 2.00318C274.891 1.95687 275.517 2.42004 275.586 3.11479L275.632 3.85585H276.79C277.439 3.85585 277.948 4.3885 277.948 4.96746C277.948 5.59273 277.439 6.12538 276.79 6.12538H275.864L276.096 8.37174H278.875Z" stroke="white" stroke-width="4" mask="url(#path-8-outside-1_177_1869)"/>
</svg>
