<svg width="306" height="93" viewBox="0 0 306 93" fill="none" xmlns="http://www.w3.org/2000/svg">
<path d="M301.604 83.1074C302.883 83.9411 303.439 85.6085 302.605 86.998C301.882 88.3875 300.215 88.7765 298.714 88.1096C293.03 85.2896 286.185 80.1455 283.43 76.0616C279.234 69.8426 277.819 63.2534 277.316 59.6301C277.038 57.5736 278.705 55.6283 280.817 55.6283H292.489C292.878 55.6283 293.156 55.1837 293.156 54.7946V44.6234C293.156 44.2344 292.878 43.7897 292.489 43.7897H284.263C282.763 43.7897 281.484 42.567 281.484 41.0107C281.484 39.5101 282.763 38.2317 284.263 38.2317H294.824C297.047 38.2317 298.714 40.0659 298.714 42.1223V57.2957C298.714 59.3522 297.047 61.1863 294.824 61.1863H283.986C283.596 61.1863 283.319 61.5754 283.43 61.8533C284.153 64.1505 285.332 68.6131 288.314 73.0273C290.95 76.9289 296.245 80.8503 301.604 83.1074ZM276.482 44.0676C277.983 44.0676 279.261 45.2904 279.261 46.8466C279.261 48.3473 277.983 49.6256 276.482 49.6256H262.976C261.476 49.6256 260.197 48.3473 260.197 46.8466C260.197 45.2904 261.476 44.0676 262.976 44.0676H276.482ZM272.703 51.4042C274.259 51.4042 275.482 52.6825 275.482 54.1832C275.482 55.7394 274.259 56.9622 272.703 56.9622H264.366C262.865 56.9622 261.587 55.7394 261.587 54.1832C261.587 52.6825 262.865 51.4042 264.366 51.4042H272.703ZM272.036 58.7963C273.536 58.7963 274.815 60.0191 274.815 61.5753C274.815 63.076 273.536 64.3543 272.036 64.3543H268.701C267.145 64.3543 265.922 63.076 265.922 61.5753C265.922 60.0191 267.145 58.7963 268.701 58.7963H272.036ZM273.425 66.2996C275.648 66.2996 277.316 68.0782 277.316 70.1903V74.7478C277.316 76.8043 275.648 78.6384 273.425 78.6384H266.2C263.977 78.6384 262.309 76.8043 262.309 74.7478V70.1903C262.309 68.0782 263.977 66.2996 266.2 66.2996H273.425ZM272.036 72.5246V72.3579C272.036 71.9688 271.758 71.5798 271.313 71.5798H268.256C267.867 71.5798 267.589 71.9688 267.589 72.3579V72.5246C267.589 72.9137 267.867 73.3583 268.256 73.3583H271.313C271.758 73.3583 272.036 72.9137 272.036 72.5246ZM268.701 42.5114C267.423 42.5114 266.478 41.5665 266.478 40.4549C266.478 39.1766 267.423 38.2317 268.701 38.2317H270.48C271.758 38.2317 272.592 39.1766 272.592 40.4549C272.592 41.5665 271.758 42.5114 270.48 42.5114H268.701Z" fill="#24110A"/>
<path fill-rule="evenodd" clip-rule="evenodd" d="M302.381 81.2641C302.491 81.3106 302.597 81.3668 302.697 81.4321C304.713 82.747 305.779 85.5306 304.351 87.9746C303.01 90.4813 300.1 90.9141 297.902 89.9372C297.876 89.9257 297.851 89.9137 297.825 89.9012C294.851 88.4257 291.607 86.3608 288.747 84.139C285.913 81.9374 283.322 79.4781 281.772 77.1802C280.825 75.7767 280.013 74.3571 279.316 72.9555V74.7478C279.316 77.8528 276.808 80.6384 273.425 80.6384H266.2C262.817 80.6384 260.309 77.8527 260.309 74.7478V70.1903C260.309 67.4417 262.197 65.0427 264.883 64.4433C264.277 63.6366 263.922 62.6382 263.922 61.5753C263.922 60.6071 264.202 59.7108 264.687 58.9622H264.366C261.787 58.9622 259.587 56.8699 259.587 54.1832C259.587 53.0025 260.033 51.9105 260.764 51.0693C259.248 50.2606 258.197 48.6579 258.197 46.8466C258.197 44.1599 260.397 42.0676 262.976 42.0676H264.818C264.6 41.5783 264.478 41.0347 264.478 40.4549C264.478 38.072 266.318 36.2317 268.701 36.2317H270.48C271.637 36.2317 272.709 36.6728 273.48 37.502C274.237 38.3168 274.592 39.3811 274.592 40.4549C274.592 41.0223 274.477 41.5691 274.265 42.0676H276.482C279.061 42.0676 281.261 44.1599 281.261 46.8466C281.261 49.3684 279.224 51.486 276.731 51.619C277.208 52.3666 277.482 53.2501 277.482 54.1832C277.482 54.393 277.469 54.5994 277.443 54.8016C278.373 54.0719 279.541 53.6283 280.817 53.6283H291.156V45.7897H284.263C281.684 45.7897 279.484 43.6975 279.484 41.0107C279.484 38.4055 281.658 36.2317 284.263 36.2317H294.824C298.207 36.2317 300.714 39.0174 300.714 42.1223V57.2957C300.714 60.4006 298.207 63.1863 294.824 63.1863H285.937C286.691 65.568 287.836 68.7469 289.971 71.9077C292.329 75.3978 297.263 79.1091 302.381 81.2641ZM294.824 61.1863C297.047 61.1863 298.714 59.3522 298.714 57.2957V42.1223C298.714 40.0659 297.047 38.2317 294.824 38.2317H284.263C282.763 38.2317 281.484 39.5101 281.484 41.0107C281.484 42.567 282.763 43.7897 284.263 43.7897H292.489C292.878 43.7897 293.156 44.2344 293.156 44.6234V54.7946C293.156 55.1837 292.878 55.6283 292.489 55.6283H280.817C278.705 55.6283 277.038 57.5736 277.316 59.6301C277.819 63.2534 279.234 69.8426 283.43 76.0616C286.185 80.1455 293.03 85.2896 298.714 88.1096C300.215 88.7765 301.882 88.3875 302.605 86.998C303.439 85.6085 302.883 83.9411 301.604 83.1074C296.245 80.8503 290.95 76.9289 288.314 73.0273C285.637 69.0653 284.414 65.0644 283.668 62.6251C283.583 62.3467 283.504 62.0886 283.43 61.8533C283.319 61.5754 283.596 61.1863 283.986 61.1863H294.824ZM275.384 58.1518C275.38 58.1542 275.377 58.1567 275.373 58.1592C275.376 58.1618 275.378 58.1644 275.381 58.1671C275.382 58.162 275.383 58.1569 275.384 58.1518ZM276.114 64.0402C275.968 64.2783 275.801 64.5031 275.618 64.7122C275.88 64.8162 276.133 64.9384 276.374 65.0771C276.281 64.7237 276.194 64.3777 276.114 64.0402ZM266.2 66.2996C263.977 66.2996 262.309 68.0782 262.309 70.1903V74.7478C262.309 76.8043 263.977 78.6384 266.2 78.6384H273.425C275.648 78.6384 277.316 76.8043 277.316 74.7478V70.1903C277.316 68.0782 275.648 66.2996 273.425 66.2996H266.2ZM272.571 64.2996C273.828 64.0405 274.815 62.8937 274.815 61.5753C274.815 60.3522 274.025 59.335 272.958 58.9556C272.875 58.9259 272.789 58.9001 272.703 58.8784C272.488 58.8247 272.264 58.7963 272.036 58.7963H268.701C268.361 58.7963 268.037 58.8547 267.738 58.9622C266.669 59.3466 265.922 60.3591 265.922 61.5753C265.922 62.8937 266.866 64.0405 268.15 64.2996C268.328 64.3355 268.512 64.3543 268.701 64.3543H272.036C272.218 64.3543 272.397 64.3355 272.571 64.2996ZM273.147 56.9282C274.485 56.7209 275.482 55.5879 275.482 54.1832C275.482 53.0562 274.792 52.0545 273.789 51.6256C273.457 51.4834 273.09 51.4042 272.703 51.4042H264.366C263.992 51.4042 263.632 51.4834 263.303 51.6256C262.308 52.0545 261.587 53.0562 261.587 54.1832C261.587 55.7394 262.865 56.9622 264.366 56.9622H272.703C272.854 56.9622 273.003 56.9506 273.147 56.9282ZM276.482 49.6256C277.983 49.6256 279.261 48.3473 279.261 46.8466C279.261 45.2904 277.983 44.0676 276.482 44.0676H262.976C261.476 44.0676 260.197 45.2904 260.197 46.8466C260.197 48.3373 261.459 49.6086 262.946 49.6254C262.956 49.6255 262.966 49.6256 262.976 49.6256H276.482ZM271.828 42.0676C272.312 41.6868 272.592 41.0988 272.592 40.4549C272.592 39.1766 271.758 38.2317 270.48 38.2317H268.701C267.423 38.2317 266.478 39.1766 266.478 40.4549C266.478 41.0988 266.795 41.6868 267.31 42.0676C267.684 42.3441 268.163 42.5114 268.701 42.5114H270.48C271.017 42.5114 271.476 42.3441 271.828 42.0676ZM268.256 73.3583C267.867 73.3583 267.589 72.9137 267.589 72.5246V72.3579C267.589 71.9688 267.867 71.5798 268.256 71.5798H271.313C271.758 71.5798 272.036 71.9688 272.036 72.3579V72.5246C272.036 72.9137 271.758 73.3583 271.313 73.3583H268.256Z" fill="white"/>
<path d="M252.885 33.2589C254.86 33.1077 256.463 34.575 256.607 36.4522L258.909 66.5357C259.06 68.5117 257.692 70.107 255.716 70.2582L235.463 71.8081C233.635 71.948 231.891 70.5908 231.74 68.6149L229.438 38.5313C229.294 36.6542 230.804 34.9487 232.631 34.8088L252.885 33.2589ZM253.811 64.839L251.837 39.0531C251.807 38.6579 251.534 38.331 251.04 38.3688L235.232 39.5785C234.886 39.605 234.518 39.981 234.548 40.3762L235.304 50.2559L247.802 49.2995C249.135 49.1974 250.355 50.1972 250.461 51.5804C250.563 52.9141 249.514 54.1372 248.18 54.2393L235.682 55.1957L236.521 66.1621C236.548 66.5079 236.962 66.7247 237.308 66.6982L253.115 65.4885C253.609 65.4507 253.837 65.1848 253.811 64.839Z" fill="#24110A"/>
<path fill-rule="evenodd" clip-rule="evenodd" d="M252.732 31.2648C255.846 31.0264 258.376 33.3585 258.601 36.2996L260.903 66.3832C261.139 69.4604 258.946 72.0169 255.868 72.2524L235.615 73.8023C232.742 74.0222 229.985 71.8999 229.746 68.7675L227.444 38.6839C227.214 35.6871 229.568 33.0374 232.478 32.8146L252.732 31.2648ZM249.939 40.4589L236.638 41.4768L237.145 48.1091L247.649 47.3053C248.694 47.2253 249.701 47.5184 250.522 48.081L249.939 40.4589ZM251.053 55.0144C250.331 55.6997 249.384 56.153 248.332 56.2335L237.829 57.0373L238.408 64.6082L251.709 63.5903L251.053 55.0144ZM236.521 66.1621C236.547 66.5079 236.962 66.7247 237.307 66.6982L253.115 65.4885C253.609 65.4507 253.837 65.1848 253.81 64.8391L251.837 39.0531C251.807 38.6579 251.533 38.3311 251.039 38.3689L235.232 39.5785C234.886 39.605 234.517 39.981 234.548 40.3762L235.304 50.2559L247.802 49.2995C249.135 49.1974 250.355 50.1972 250.46 51.5804C250.563 52.9141 249.513 54.1372 248.18 54.2393L235.682 55.1957L236.521 66.1621ZM256.607 36.4522C256.463 34.575 254.86 33.1077 252.884 33.2589L232.631 34.8088C230.803 34.9487 229.294 36.6542 229.438 38.5313L231.74 68.6149C231.891 70.5908 233.635 71.948 235.462 71.8082L255.716 70.2583C257.692 70.1071 259.06 68.5117 258.909 66.5358L256.607 36.4522Z" fill="white"/>
<path fill-rule="evenodd" clip-rule="evenodd" d="M212.212 73.9502C212.212 73.9502 212.043 74.0575 211.928 74.2217C211.352 74.7444 210.646 75.3404 209.808 75.9789C205.69 79.1149 198.362 83.2725 187.334 84.7734C185.827 85.0167 184.297 83.8695 184.222 82.3111C184.09 80.807 185.233 79.4435 186.629 79.1977C191.877 78.5318 196.14 77.1469 199.482 75.6358C199.639 75.5647 199.794 75.4934 199.947 75.4218C201.138 74.8652 202.206 74.2953 203.155 73.7414L199.988 73.6683C199.723 73.6622 199.469 73.621 199.23 73.5492C198.061 73.1984 197.244 72.1173 197.274 70.826C197.305 69.4829 198.311 68.3405 199.638 68.1416C199.793 68.1184 199.953 68.108 200.116 68.1118L208.173 68.2976L208.233 65.686C208.248 65.0348 208.476 64.4469 208.85 63.9861C209.252 63.4906 209.823 63.142 210.48 63.0194C210.533 63.0094 210.587 63.001 210.642 62.9941C210.783 62.9761 210.928 62.9684 211.075 62.9718C212.576 63.0064 213.825 64.2583 213.79 65.8142L213.736 68.1479C213.736 68.1479 213.732 68.3146 213.563 68.4219L226.787 68.7269C228.287 68.7615 229.536 70.0689 229.501 71.5692C229.465 73.125 228.159 74.318 226.659 74.2834L212.212 73.9502ZM209.675 78.5489C205.168 81.6854 197.937 85.3452 187.625 86.7523C185.042 87.1524 182.385 85.246 182.226 82.4471C182.021 79.8688 183.934 77.6415 186.282 77.228C186.313 77.2224 186.345 77.2176 186.377 77.2136C190.547 76.6845 194.058 75.6839 196.948 74.5383C195.891 73.6412 195.239 72.2901 195.274 70.7798C195.316 68.9569 196.399 67.3475 197.98 66.5829C197.476 65.8104 197.189 64.8809 197.212 63.8752L197.322 59.1229C196.43 59.8475 195.399 60.5929 194.355 61.3438L194.194 68.2941C194.135 70.8726 191.992 73.0236 189.306 72.9616C186.702 72.9016 184.579 70.6783 184.639 68.0737L184.656 67.3377C182.636 67.6737 180.565 66.5542 179.661 64.7122C179.651 64.6931 179.642 64.6738 179.633 64.6544C178.568 62.2966 179.539 59.5304 181.677 58.333C181.701 58.3194 181.726 58.3062 181.751 58.2936C182.898 57.7127 183.949 57.0666 184.905 56.3809L185.057 48.3702C183.461 47.5531 182.496 45.8258 182.539 43.9788C182.58 42.1905 183.613 40.4797 185.25 39.7187L185.281 38.3713C185.343 35.6853 187.59 33.6443 190.169 33.7038C192.829 33.7651 194.898 35.9316 194.836 38.5917L194.815 39.5201C197.194 39.8782 198.928 41.9759 198.873 44.3555C198.817 46.8039 196.977 48.7514 194.61 48.998L194.594 49.9572C195.811 49.8553 197.058 50.2085 198.062 50.9485C198.687 49.6749 199.754 48.685 201.076 48.156C200.114 46.8078 199.967 45.0123 200.587 43.5191C201.179 41.9492 201.663 40.5222 202.05 39.3828C202.15 39.0889 202.243 38.8142 202.33 38.561C203.077 36.2073 205.345 34.5809 207.916 35.0613C209.908 35.2989 211.26 36.7707 211.644 38.4684L218.308 38.6221C221.616 38.6984 224.09 41.8633 223.279 45.0735L223.279 45.0747L221.34 44.5843L223.279 45.0723L223.279 45.0735C223.084 45.8494 222.771 47.014 222.385 48.3022C221.983 48.2044 221.568 48.1485 221.147 48.1387L220.351 48.1204C220.153 48.7704 219.937 49.444 219.711 50.1062L221.1 50.1382C221.332 50.1436 221.561 50.1701 221.784 50.2161C222.158 50.2933 222.517 50.4254 222.849 50.6045C224.073 51.2652 224.936 52.5663 224.9 54.1175L224.762 60.11L224.661 64.5082C224.64 65.3933 224.209 66.161 223.564 66.652C223.076 67.0241 222.465 67.2373 221.818 67.2224C221.148 67.2069 220.544 66.9657 220.077 66.5716C219.461 66.0515 219.084 65.2652 219.104 64.3801L219.29 56.3231C219.299 55.9341 218.861 55.646 218.472 55.6371L216.083 55.582C216.289 56.1107 216.593 56.8474 217.107 57.6061C217.155 57.6762 217.204 57.7464 217.255 57.8167C217.355 57.9545 217.463 58.0924 217.578 58.2294C218.389 59.2488 218.194 60.4674 217.337 61.4484C217.285 61.5103 217.228 61.5673 217.167 61.6194C216.421 62.2564 215.046 62.1664 214.448 61.3817C213.591 60.3558 212.984 59.3584 212.543 58.4339C212.019 57.3339 211.73 56.3372 211.536 55.5185C211.533 55.5046 211.529 55.4907 211.526 55.4769L211.082 55.4666C211.077 55.5054 211.073 55.5447 211.067 55.5846C211.01 56.0338 210.91 56.5579 210.785 57.1346C210.684 57.6037 210.566 58.1076 210.442 58.6343C210.424 58.7098 210.407 58.7857 210.389 58.862C210.268 59.374 210.143 59.9055 210.022 60.4457C209.916 60.7158 209.779 60.9602 209.615 61.1737C209.183 61.7355 208.569 62.0828 207.888 62.1176C207.667 62.129 207.437 62.1071 207.205 62.0486C207.07 61.991 206.941 61.9219 206.82 61.8428C205.949 61.2769 205.447 60.204 205.713 59.2345C205.852 58.5483 205.99 57.9276 206.126 57.3529C206.136 57.3118 206.145 57.271 206.155 57.2304C206.257 56.8072 206.358 56.4087 206.458 56.0271C206.518 55.8008 206.577 55.5803 206.636 55.3641L205.692 55.3423C205.247 55.3321 204.963 55.6035 204.954 55.9925L204.768 64.0494C204.748 64.9346 204.334 65.7026 203.695 66.1938C203.211 66.566 202.597 66.7791 201.926 66.7636C201.279 66.7487 200.679 66.5076 200.208 66.1134C199.587 65.5932 199.191 64.8064 199.212 63.9213L199.451 53.5306C199.458 53.2577 199.489 52.9938 199.543 52.7408C199.907 51.0377 201.306 49.8316 203.097 49.7357L203.102 49.7354C203.141 49.7334 203.179 49.7319 203.218 49.7309C203.289 49.7291 203.359 49.7291 203.431 49.7307L211.16 49.9089L213.877 49.9716C213.998 49.5297 214.775 47.2126 214.892 46.9373C215.069 46.4966 214.8 46.1013 214.356 46.091L211.361 46.022L207.688 45.9372C207.683 46.1629 207.607 46.2769 207.485 46.4586C207.458 46.5006 207.427 46.5462 207.395 46.5976C207.178 47.1037 206.837 47.5168 206.423 47.7992C205.711 48.2847 204.785 48.3843 203.918 47.9073C203.786 47.8568 203.661 47.7983 203.545 47.7328C202.294 47.0311 201.907 45.5184 202.445 44.2597C203.056 42.6411 203.559 41.1602 203.949 40.0113C204.05 39.7127 204.144 39.4365 204.23 39.1861C204.71 37.6405 206.121 36.7279 207.615 37.0404C208.688 37.142 209.454 37.9269 209.686 38.8577C209.789 39.2737 209.786 39.7188 209.656 40.1452L209.65 40.423L211.649 40.4691M197.385 56.3684C198.053 55.5513 198.142 54.3903 197.684 53.4898C197.622 53.3685 197.551 53.2518 197.469 53.1414C197.409 53.0607 197.344 52.9833 197.274 52.9097C196.546 52.1475 195.508 51.8279 194.562 51.977C194.096 52.0503 193.653 52.2368 193.28 52.5396L192.541 53.2453L192.642 46.9915L194.031 47.0236C194.118 47.0256 194.205 47.0237 194.29 47.0182C195.723 46.9245 196.84 45.7781 196.874 44.3094C196.908 42.8091 195.715 41.5029 194.159 41.467L192.77 41.435L192.837 38.5456C192.873 36.9898 191.678 35.7391 190.123 35.7032C188.622 35.6686 187.316 36.8616 187.28 38.4174L187.214 41.3068C185.713 41.2722 184.573 42.5246 184.538 44.0249C184.502 45.5807 185.585 46.8288 187.086 46.8634L186.886 57.3957C185.64 58.3677 184.229 59.2803 182.654 60.0779C181.415 60.772 180.821 62.4262 181.456 63.8307C182.06 65.0609 183.487 65.6715 184.704 65.266C184.877 65.2081 185.047 65.1296 185.209 65.0291C185.771 64.7641 186.166 64.4953 186.732 64.0636L186.638 68.1198C186.604 69.6201 187.852 70.9276 189.353 70.9622C190.908 70.9981 192.16 69.7483 192.195 68.248L192.378 60.3021C192.596 60.1446 192.812 59.9894 193.025 59.8362C194.633 58.6797 196.072 57.6443 197.076 56.6856C197.19 56.5875 197.293 56.4812 197.385 56.3684ZM206.207 66.2517L206.219 66.252L206.22 66.228C206.216 66.2359 206.212 66.2438 206.207 66.2517ZM215.466 64.0148C215.688 64.5828 215.804 65.2054 215.789 65.8603L215.775 66.4724L217.565 66.5137C217.253 65.8573 217.087 65.117 217.105 64.3339L217.115 63.8679C216.679 63.9981 216.238 64.049 215.832 64.0396C215.712 64.0369 215.59 64.0287 215.466 64.0148ZM226.091 66.7103C226.437 66.0712 226.642 65.3404 226.66 64.5543L226.9 54.1636C226.967 51.2411 224.94 48.9242 222.385 48.3022" fill="white"/>
<path d="M213.877 49.9716C213.998 49.5297 214.775 47.2126 214.892 46.9373C215.069 46.4966 214.8 46.1013 214.356 46.091L211.361 46.022L211.16 49.9089L213.877 49.9716Z" fill="white"/>
<path d="M222.385 48.3022C221.983 48.2044 221.568 48.1485 221.147 48.1387L220.351 48.1204C220.153 48.7704 219.937 49.444 219.711 50.1062L221.1 50.1382C221.332 50.1436 221.561 50.1701 221.784 50.2161C222.158 50.2933 222.517 50.4254 222.849 50.6045L222.385 48.3022Z" fill="white"/>
<path fill-rule="evenodd" clip-rule="evenodd" d="M212.212 73.9502C212.212 73.9502 212.043 74.0575 211.928 74.2217C211.352 74.7444 210.646 75.3404 209.808 75.9789L209.675 78.5489C209.711 79.9833 210.406 81.396 211.879 82.1954C214.223 83.7246 218.274 85.8554 223.095 86.7374C225.822 87.2773 228.211 85.3908 228.936 83.058C228.952 83.0065 228.966 82.9543 228.978 82.9017C229.521 80.4798 228.085 77.9556 225.399 77.4027C223.987 77.0946 222.611 76.6528 221.35 76.1615L226.613 76.2829C229.191 76.3423 231.439 74.3013 231.501 71.6153C231.561 69.0108 229.438 66.7875 226.833 66.7274L226.091 66.7103L224.762 60.11L224.661 64.5082C224.64 65.3933 224.209 66.161 223.564 66.652C223.076 67.0241 222.465 67.2373 221.818 67.2224C221.148 67.2069 220.544 66.9657 220.077 66.5716C219.461 66.0515 219.084 65.2652 219.104 64.3801L219.29 56.3231C219.299 55.9341 218.861 55.646 218.472 55.6371L216.083 55.582C216.289 56.1107 216.593 56.8474 217.107 57.6061C217.155 57.6762 217.204 57.7464 217.255 57.8167C217.355 57.9545 217.463 58.0924 217.578 58.2294C218.389 59.2488 218.194 60.4674 217.337 61.4484C217.285 61.5103 217.228 61.5673 217.167 61.6194C216.421 62.2564 215.046 62.1664 214.448 61.3817C213.591 60.3558 212.984 59.3584 212.543 58.4339C212.019 57.3339 211.73 56.3372 211.536 55.5185L211.526 55.4769L211.082 55.4666C211.077 55.5054 211.073 55.5447 211.067 55.5846C211.01 56.0338 210.91 56.5579 210.785 57.1346L210.48 63.0194C210.533 63.0094 210.587 63.001 210.642 62.9941C210.783 62.9761 210.928 62.9684 211.075 62.9718C212.576 63.0064 213.825 64.2583 213.79 65.8142L213.736 68.1479C213.736 68.1479 213.732 68.3146 213.563 68.4219L226.787 68.7269C228.287 68.7615 229.536 70.0689 229.501 71.5692C229.465 73.125 228.159 74.318 226.659 74.2834L212.212 73.9502ZM215.466 64.0148C215.688 64.5828 215.804 65.2054 215.789 65.8603L215.775 66.4724L217.565 66.5137C217.253 65.8573 217.087 65.117 217.105 64.3339L217.115 63.8679C216.679 63.9981 216.238 64.049 215.832 64.0396C215.712 64.0369 215.59 64.0287 215.466 64.0148Z" fill="white"/>
<path d="M142.875 40.7629C141.492 40.8259 140.259 39.6581 140.188 38.1035C140.119 36.6044 141.239 35.2737 142.622 35.2107L155.682 34.6153L155.556 31.8392C155.487 30.3401 156.607 29.0094 157.99 28.9464C159.424 28.881 160.609 30.1067 160.677 31.6058L160.804 34.3819L177.347 33.6278C178.73 33.5648 179.966 34.7881 180.034 36.2872C180.105 37.8418 178.983 39.117 177.6 39.1801L142.875 40.7629ZM153.189 41.8506C154.317 40.6865 155.853 40.6164 157.023 41.509C158.098 42.5727 158.174 44.2384 157.2 45.3955C155.248 47.5988 151.712 51.0982 146.478 54.5081C145.231 55.2883 143.674 54.9141 142.945 53.5564C142.267 52.1964 142.703 50.5074 143.792 49.6232C148.429 46.6299 151.478 43.7091 153.189 41.8506ZM182.422 71.7866C183.83 72.2788 184.564 73.7475 184.225 75.3208C183.93 76.7252 182.432 77.6281 181.126 77.1312C172.785 74.2845 166.526 69.8405 161.97 65.5972C158.178 69.1083 152.717 73.1406 145.442 76.8105C144.187 77.4241 142.728 76.9342 142.145 75.4029C141.569 74.0382 142.005 72.3492 143.414 71.7286C149.933 68.3714 154.752 64.8691 158.198 61.6519C156.304 59.5128 154.935 57.6278 154.096 56.1082C153.272 54.9217 153.606 53.2374 154.853 52.4572C156.103 51.7326 157.657 52.0512 158.489 53.4043C159.315 54.6463 160.51 56.094 162.033 57.9719C163.745 56.1135 164.801 54.5075 165.518 53.362C166.384 52.0985 168.011 51.7462 169.321 52.3541C170.532 53.0222 170.967 54.6715 170.254 55.9281C169.293 57.3628 167.999 59.3691 165.795 61.6951C169.814 65.4066 175.381 69.3256 182.422 71.7866ZM179.855 49.259C181.174 50.0334 181.608 51.6828 181.057 53.0988C180.454 54.5173 178.833 54.9806 177.617 54.2015C171.819 50.8493 168.466 47.1075 166.662 44.686C165.741 43.6153 166.019 41.8222 167.266 41.042C168.516 40.3174 170.07 40.636 171.05 41.871C172.522 43.7513 175.368 46.5147 179.855 49.259Z" fill="#24110A"/>
<path fill-rule="evenodd" clip-rule="evenodd" d="M142.875 40.7629C141.492 40.8259 140.259 39.6581 140.188 38.1035C140.12 36.6044 141.239 35.2737 142.622 35.2107L155.682 34.6153L155.556 31.8392C155.487 30.3401 156.607 29.0094 157.99 28.9464C159.424 28.881 160.609 30.1067 160.677 31.6058L160.804 34.3819L177.347 33.6278C178.73 33.5648 179.966 34.7881 180.034 36.2872C180.105 37.8418 178.983 39.117 177.6 39.1801L142.875 40.7629ZM157.485 42.099C157.36 41.8886 157.206 41.69 157.023 41.509C155.853 40.6164 154.317 40.6865 153.189 41.8506C153.053 41.9987 152.908 42.1536 152.755 42.3147C150.982 44.175 148.059 46.8684 143.792 49.6231C142.704 50.5073 142.267 52.1964 142.945 53.5564C143.674 54.9141 145.231 55.2883 146.478 54.5081C151.712 51.0982 155.248 47.5988 157.2 45.3955C158.008 44.4354 158.093 43.1251 157.485 42.099ZM149.78 42.4502L142.966 42.7608C140.356 42.8798 138.305 40.7246 138.19 38.1946C138.078 35.747 139.896 33.3328 142.531 33.2127L153.593 32.7085L153.558 31.9303C153.446 29.4827 155.264 27.0686 157.899 26.9484C160.61 26.8249 162.565 29.0941 162.675 31.5147L162.711 32.2929L177.256 31.6299C179.891 31.5098 181.921 33.7485 182.032 36.1961C182.147 38.7261 180.301 41.059 177.691 41.178L173.244 41.3807C174.695 43.0262 177.178 45.2756 180.886 47.5448C183.167 48.8971 183.768 51.6482 182.921 53.8244C182.917 53.8335 182.914 53.8426 182.91 53.8517C182.906 53.8614 182.902 53.8711 182.898 53.8808C181.819 56.4207 178.837 57.3221 176.582 55.9131C175.01 55.0025 173.608 54.0634 172.36 53.1265C172.762 54.3526 172.658 55.7436 171.994 56.9146C171.97 56.9577 171.944 56.9999 171.916 57.0411C171.853 57.1353 171.788 57.2326 171.721 57.3329C170.992 58.4255 170.026 59.8728 168.625 61.5311C172.333 64.6851 177.171 67.8324 183.082 69.8986C185.578 70.7709 186.698 73.3273 186.182 75.7365C185.663 78.1945 183.018 79.9643 180.452 79.0144C172.607 76.3325 166.541 72.2903 161.965 68.2871C158.136 71.6134 152.961 75.2575 146.343 78.5961L146.321 78.6073C145.222 79.1446 143.955 79.2292 142.8 78.7687C141.645 78.308 140.761 77.3665 140.288 76.1468C139.421 74.0462 139.972 71.1032 142.545 69.9265C148.029 67.0983 152.244 64.1839 155.41 61.4637C154.117 59.8838 153.102 58.4309 152.389 57.1544C151.567 55.905 151.443 54.3782 151.93 53.0559C150.628 54.0827 149.176 55.1377 147.57 56.1838C147.56 56.1906 147.549 56.1973 147.539 56.2038C145.327 57.5874 142.468 56.8955 141.183 54.5026C141.174 54.4847 141.164 54.4667 141.155 54.4486C140.042 52.2161 140.746 49.5208 142.532 48.0706C142.588 48.0249 142.647 47.9822 142.708 47.9429C145.763 45.9707 148.094 44.037 149.78 42.4502ZM155.307 50.1722C156.721 48.8634 157.848 47.6797 158.697 46.722C158.708 46.7092 158.719 46.6963 158.73 46.6832C159.866 45.3342 160.155 43.5612 159.629 42.0013L164.332 41.7869C163.895 43.1671 164.11 44.7403 165.095 45.9293C165.978 47.1106 167.194 48.5664 168.826 50.1314C167 49.8372 165.037 50.5273 163.869 52.2312C163.853 52.2539 163.838 52.2769 163.823 52.3002C163.386 52.998 162.829 53.8573 162.069 54.8372C161.28 53.8535 160.654 53.0453 160.171 52.322C159.056 50.5393 157.126 49.8047 155.307 50.1722ZM158.489 53.4043C157.657 52.0512 156.103 51.7326 154.853 52.4572C153.606 53.2374 153.272 54.9217 154.096 56.1082C154.935 57.6278 156.304 59.5127 158.198 61.6519C154.752 64.8691 149.933 68.3714 143.414 71.7286C142.005 72.3492 141.569 74.0382 142.145 75.4029C142.728 76.9342 144.187 77.4241 145.442 76.8105C152.717 73.1406 158.178 69.1083 161.97 65.5972C166.526 69.8405 172.785 74.2845 181.126 77.1312C182.432 77.6281 183.93 76.7252 184.226 75.3208C184.564 73.7475 183.83 72.2788 182.422 71.7866C176.217 69.6178 171.157 66.3167 167.292 63.0231C166.772 62.5794 166.273 62.1358 165.796 61.6952C165.796 61.6951 165.796 61.6952 165.796 61.6952C166.002 61.4771 166.201 61.2617 166.392 61.0495C168.106 59.1451 169.215 57.4837 170.062 56.2152C170.128 56.1171 170.192 56.0214 170.254 55.928C170.967 54.6715 170.532 53.0222 169.322 52.3541C168.011 51.7462 166.385 52.0985 165.518 53.362C165.008 54.177 164.326 55.225 163.359 56.4312C162.966 56.9204 162.527 57.4357 162.033 57.9719C161.885 57.7891 161.74 57.6103 161.598 57.4355C161.305 57.0746 161.025 56.7303 160.759 56.4006C159.83 55.2488 159.069 54.2759 158.489 53.4043ZM166.662 44.686C168.467 47.1075 171.819 50.8493 177.617 54.2015C178.833 54.9806 180.455 54.5172 181.057 53.0988C181.608 51.6828 181.174 50.0334 179.856 49.259C175.368 46.5147 172.522 43.7513 171.051 41.871C170.943 41.7349 170.828 41.61 170.707 41.4963C169.732 40.5785 168.379 40.3972 167.266 41.042C166.992 41.2133 166.765 41.4335 166.587 41.6841C165.955 42.5748 165.944 43.8504 166.662 44.686Z" fill="white"/>
<path d="M114.798 55.6887C117.138 55.6887 118.657 57.6498 118.54 59.9898C118.453 61.7278 117.395 67.5932 115.71 74.6777C114.165 80.1766 111.916 85.8312 109.825 89.118C109.24 90.5805 107.485 91.1655 106.022 90.4635C104.56 89.703 103.975 87.948 104.735 86.4854C106.424 84.285 108.922 79.1016 110.41 74.0581C111.954 68.8252 112.458 63.743 112.458 62.2993C112.458 61.6905 112.341 61.5388 111.873 61.5388H104.735C104.56 61.5388 104.267 61.5388 104.15 61.4218C103.097 64.0544 101.927 66.6284 100.64 69.4365C99.8798 70.899 98.1247 71.4841 96.6622 70.7235C95.3752 70.0215 94.7902 68.2665 95.4922 66.8039C98.3002 60.9538 100.348 55.1036 101.342 51.7691H97.7152C95.3752 51.7691 93.6201 49.8385 93.6201 47.674V34.6281C93.6201 32.2881 95.3752 30.533 97.7152 30.533H110.41C112.75 30.533 114.505 32.2881 114.505 34.6281V47.674C114.505 49.8385 112.75 51.7691 110.41 51.7691H107.368C107.075 52.7636 106.783 54.1091 106.198 55.6887H114.798ZM99.4703 45.0414C99.4703 45.4509 99.7628 45.9189 100.172 45.9189H107.953C108.363 45.9189 108.655 45.4509 108.655 45.0414V37.2607C108.655 36.6757 108.363 36.3832 107.953 36.3832H100.172C99.7628 36.3832 99.4703 36.6757 99.4703 37.2607V45.0414ZM121.701 42.5258C123.339 42.5258 124.626 43.8129 124.626 45.4509V52.5881C124.626 54.2261 123.339 55.5132 121.701 55.5132C120.121 55.5132 118.776 54.2261 118.776 52.5881V45.4509C118.776 43.8129 120.121 42.5258 121.701 42.5258ZM133.551 33.4581C135.131 33.4581 136.476 34.7451 136.476 36.3832V69.963C136.476 71.6011 135.131 72.8881 133.551 72.8881C131.913 72.8881 130.626 71.6011 130.626 69.963V36.3832C130.626 34.7451 131.913 33.4581 133.551 33.4581Z" fill="#24110A"/>
<path fill-rule="evenodd" clip-rule="evenodd" d="M105.157 92.2666C105.138 92.2573 105.119 92.2478 105.1 92.238C102.69 90.9849 101.674 88.0377 102.961 85.5627C103.015 85.4591 103.078 85.3604 103.149 85.2678C104.634 83.3328 107.043 78.4034 108.492 73.4921C109.671 69.4957 110.213 65.6086 110.389 63.5388H105.446C104.523 65.7503 103.524 67.945 102.458 70.2698C102.445 70.3 102.43 70.3298 102.415 70.3592C101.162 72.769 98.2144 73.7849 95.7395 72.498C95.7278 72.4919 95.7161 72.4857 95.7045 72.4793C93.4446 71.2466 92.5458 68.3204 93.6891 65.9385C95.8185 61.5022 97.504 57.0598 98.6076 53.7691H97.7152C94.2153 53.7691 91.6201 50.887 91.6201 47.674V34.6281C91.6201 31.1835 94.2706 28.533 97.7152 28.533H110.41C113.855 28.533 116.505 31.1835 116.505 34.6281V47.674C116.505 50.5725 114.393 53.2018 111.41 53.6887H114.798C115.614 53.6887 116.356 53.8414 117.016 54.114C116.86 53.6357 116.776 53.1233 116.776 52.5881V45.4509C116.776 42.6824 119.043 40.5258 121.701 40.5258C124.443 40.5258 126.626 42.7083 126.626 45.4509V52.5881C126.626 55.3307 124.443 57.5132 121.701 57.5132C121.126 57.5132 120.569 57.4122 120.05 57.226C120.417 58.1146 120.587 59.0987 120.538 60.0897C120.44 62.0412 119.334 68.0838 117.656 75.1404C117.649 75.1667 117.643 75.1927 117.635 75.2187C116.088 80.7284 113.815 86.5139 111.601 90.0511C110.466 92.5709 107.473 93.3782 105.157 92.2666ZM109.825 89.118C111.916 85.8312 114.165 80.1766 115.71 74.6777C117.395 67.5932 118.453 61.7278 118.54 59.9898C118.657 57.6498 117.138 55.6887 114.798 55.6887H106.198C106.464 54.9699 106.67 54.2995 106.842 53.6887C106.939 53.3456 107.026 53.0213 107.107 52.7177C107.199 52.374 107.283 52.0568 107.368 51.7691H110.41C112.75 51.7691 114.505 49.8385 114.505 47.674V34.6281C114.505 32.2881 112.75 30.533 110.41 30.533H97.7152C95.3752 30.533 93.6201 32.2881 93.6201 34.6281V47.674C93.6201 49.8385 95.3752 51.7691 97.7152 51.7691H101.342C101.166 52.3611 100.956 53.0325 100.715 53.7691C99.5967 57.181 97.8017 61.9925 95.4922 66.804C94.7902 68.2665 95.3752 70.0215 96.6622 70.7235C98.1247 71.4841 99.8798 70.8991 100.64 69.4365C101.623 67.2934 102.537 65.2865 103.383 63.286C103.645 62.6653 103.901 62.0452 104.15 61.4218C104.205 61.4762 104.297 61.5053 104.398 61.5209C104.514 61.5388 104.642 61.5388 104.735 61.5388H111.873C112.341 61.5388 112.458 61.6905 112.458 62.2993C112.458 63.743 111.954 68.8252 110.41 74.0581C108.922 79.1016 106.424 84.285 104.735 86.4854C103.975 87.948 104.56 89.703 106.022 90.4635C107.485 91.1655 109.24 90.5805 109.825 89.118ZM111.873 63.5388C111.882 63.5388 111.88 63.5393 111.868 63.5388H111.873ZM101.47 43.9189H106.655V38.3832H101.47V43.9189ZM133.551 31.4581C136.209 31.4581 138.476 33.6146 138.476 36.3832V69.963C138.476 72.7316 136.209 74.8881 133.551 74.8881C130.809 74.8881 128.626 72.7057 128.626 69.963V36.3832C128.626 33.6405 130.809 31.4581 133.551 31.4581ZM100.172 45.9189C99.7628 45.9189 99.4703 45.4509 99.4703 45.0414V37.2607C99.4703 36.6757 99.7628 36.3832 100.172 36.3832H107.953C108.363 36.3832 108.655 36.6757 108.655 37.2607V45.0414C108.655 45.4509 108.363 45.9189 107.953 45.9189H100.172ZM124.626 45.4509C124.626 43.8129 123.339 42.5258 121.701 42.5258C120.121 42.5258 118.776 43.8129 118.776 45.4509V52.5881C118.776 54.2261 120.121 55.5132 121.701 55.5132C123.339 55.5132 124.626 54.2261 124.626 52.5881V45.4509ZM136.476 36.3832C136.476 34.7451 135.131 33.4581 133.551 33.4581C131.913 33.4581 130.626 34.7451 130.626 36.3832V69.963C130.626 71.6011 131.913 72.8881 133.551 72.8881C135.131 72.8881 136.476 71.6011 136.476 69.963V36.3832Z" fill="white"/>
<path d="M92.6276 72.4611C94.012 72.3859 95.1619 73.4721 95.241 74.9296C95.3173 76.3351 94.2945 77.5914 92.9102 77.6666L62.7506 79.3035C61.4157 79.376 60.2136 78.2405 60.1373 76.835C60.0582 75.3775 61.1331 74.1705 62.4681 74.0981L75.7185 73.3789L75.3455 66.5076C75.3371 66.3515 75.3314 66.2474 75.4218 66.0858L69.736 66.3944C68.4011 66.4669 67.2018 65.3834 67.1226 63.9259C67.0464 62.5204 68.1185 61.2614 69.4535 61.189L82.3083 60.4912C83.6927 60.4161 84.8454 61.5543 84.9217 62.9598C85.1492 64.4093 84.0741 65.6162 82.7392 65.6887L80.2671 65.8228L80.6627 73.1105L92.6276 72.4611ZM87.8247 57.0593L62.1149 58.4548C61.191 61.533 60.577 64.8555 57.6374 70.0792C56.9579 71.2647 55.3984 71.767 54.2103 70.8917C53.0802 70.1699 52.7426 68.5176 53.4193 67.2801C55.5396 63.406 55.7524 61.8282 56.8246 58.7419L54.2042 58.8842C52.8693 58.9566 51.6699 57.8732 51.5908 56.4156C51.5145 55.0101 52.5867 53.7512 53.9216 53.6787L66.5293 52.9944L66.4106 50.8081L61.9609 51.0496C60.7248 51.1167 59.6795 50.1293 59.6088 48.8279C59.5382 47.5265 60.4705 46.4318 61.7066 46.3647L66.1564 46.1232L66.0292 43.7807L54.6576 44.3979C53.3227 44.4704 52.1205 43.3348 52.0442 41.9294C51.9651 40.4718 53.0401 39.2649 54.375 39.1924L60.4564 38.8624C59.6498 37.7054 59.8066 36.0262 60.8519 35.1863C61.9467 34.3438 63.543 34.5182 64.3467 35.6231L65.1534 36.7801C65.5771 37.2792 65.7099 37.8985 65.6478 38.5806L70.592 38.3122C70.5552 37.6355 70.6202 37.0055 70.8392 36.4715L71.5158 35.234C72.3436 34.0405 73.8127 33.6997 74.9428 34.4215C76.1224 35.1406 76.5589 36.7876 75.8822 38.0251L81.9636 37.695C83.2985 37.6225 84.4979 38.706 84.577 40.1636C84.6533 41.569 83.5811 42.828 82.2461 42.9005L70.9734 43.5123L71.1005 45.8548L74.2154 45.6857C75.4514 45.6186 76.4968 46.6061 76.5674 47.9074C76.638 49.2088 75.7057 50.3036 74.4697 50.3707L71.3548 50.5397L71.4735 52.726L87.5421 51.8539C88.9265 51.7787 90.0792 52.9169 90.1555 54.3224C90.2346 55.7799 89.209 56.9842 87.8247 57.0593Z" fill="#24110A"/>
<path fill-rule="evenodd" clip-rule="evenodd" d="M59.3805 71.0601L59.3727 71.0738C58.21 73.1024 55.3762 74.1858 53.0773 72.5404C50.9899 71.1619 50.5644 68.3328 51.6646 66.3206C52.9964 63.8872 53.5034 62.4926 54.0204 60.8875C51.6451 60.8598 49.7237 58.9155 49.5939 56.524C49.4631 54.1138 51.2799 51.8192 53.8134 51.6816L58.5398 51.4251C57.9981 50.7284 57.6622 49.8621 57.6119 48.9363C57.558 47.9428 57.8386 46.9819 58.37 46.1994L54.7661 46.395C52.2326 46.5325 50.1781 44.448 50.0473 42.0378C49.9122 39.5489 51.7586 37.3315 54.2668 37.1954L57.9502 36.9955C57.9987 35.7334 58.5277 34.4883 59.5994 33.6272C59.6103 33.6185 59.6212 33.6099 59.6323 33.6014C61.5472 32.1277 64.446 32.3595 65.9642 34.4466C65.9721 34.4574 65.9799 34.4684 65.9876 34.4793L66.7484 35.5707C66.9849 35.8645 67.1675 36.1728 67.305 36.4877L68.7617 36.4086C68.82 36.1751 68.8947 35.9423 68.9889 35.7127C69.017 35.6441 69.0489 35.5771 69.0845 35.512L69.7612 34.2745C69.7951 34.2125 69.8323 34.1523 69.8726 34.0942C71.2378 32.1258 73.8669 31.3744 76.002 32.7248C77.1613 33.4391 77.8988 34.6217 78.1265 35.9003L81.8553 35.6979C84.3635 35.5618 86.4391 37.5663 86.5742 40.0552C86.705 42.4655 84.8882 44.76 82.3547 44.8975L77.5147 45.1602C78.1278 45.8807 78.5107 46.8055 78.5646 47.799C78.6149 48.7249 78.3747 49.6224 77.9116 50.3736L87.4339 49.8568C90.042 49.7152 92.0233 51.8304 92.1527 54.214C92.2863 56.6763 90.5162 58.9162 87.9332 59.0564L84.867 59.2228C86.033 60.0049 86.8031 61.3239 86.9123 62.7497C87.2654 65.3681 85.291 67.5531 82.8478 67.6857L82.3727 67.7115L82.5515 71.0051L92.5194 70.464C95.1024 70.3238 97.1046 72.3589 97.2382 74.8212C97.3676 77.2049 95.6268 79.5221 93.0187 79.6636L62.8592 81.3006C60.3256 81.4381 58.2712 79.3537 58.1404 76.9434C58.0053 74.4546 59.8517 72.2372 62.3598 72.101L73.6132 71.4902L73.4344 68.1967L69.8446 68.3915C67.3364 68.5276 65.2608 66.5231 65.1257 64.0343C65.0456 62.5575 65.6966 61.1241 66.7957 60.2037L63.6454 60.3747C63.6246 60.4492 63.6038 60.5242 63.5828 60.5997C62.8396 63.2704 61.9354 66.52 59.3805 71.0601ZM62.115 58.4548L87.8248 57.0593C89.2092 56.9842 90.2347 55.7799 90.1556 54.3224C90.0793 52.9169 88.9266 51.7787 87.5423 51.8539L71.4736 52.726L71.355 50.5397L74.4698 50.3707C75.7059 50.3036 76.6382 49.2088 76.5676 47.9074C76.4969 46.6061 75.4516 45.6186 74.2155 45.6857L71.1007 45.8548L70.9735 43.5123L82.2463 42.9005C83.5812 42.828 84.6534 41.569 84.5771 40.1636C84.498 38.706 83.2987 37.6225 81.9637 37.695L75.8824 38.0251C76.2239 37.4004 76.2819 36.6714 76.1038 36.0101C75.9291 35.3613 75.5271 34.7776 74.943 34.4215C73.8129 33.6997 72.3438 34.0405 71.516 35.234L70.8393 36.4715C70.6204 37.0055 70.5554 37.6355 70.5921 38.3122L65.6479 38.5806C65.6768 38.264 65.6636 37.961 65.5989 37.6772C65.5242 37.3496 65.3806 37.0476 65.1535 36.7801L64.3469 35.6231C63.5431 34.5182 61.9468 34.3438 60.8521 35.1863C60.3344 35.6023 60.0346 36.224 59.9619 36.8863C59.8877 37.5613 60.0494 38.2783 60.4565 38.8624L54.3752 39.1924C53.0403 39.2649 51.9653 40.4718 52.0444 41.9294C52.1207 43.3348 53.3228 44.4704 54.6577 44.3979L66.0294 43.7807L66.1565 46.1232L61.7067 46.3647C60.4707 46.4318 59.5384 47.5265 59.609 48.8279C59.6796 50.1293 60.725 51.1167 61.961 51.0496L66.4108 50.8081L66.5295 52.9944L53.9218 53.6787C52.5869 53.7512 51.5147 55.0101 51.591 56.4156C51.6701 57.8732 52.8694 58.9566 54.2043 58.8842L56.8248 58.7419C56.5639 59.4927 56.354 60.1542 56.155 60.7812C56.1543 60.7834 56.1537 60.7856 56.153 60.7877C55.535 62.7353 55.0222 64.3517 53.4194 67.2801C52.7428 68.5176 53.0804 70.1699 54.2105 70.8917C55.3985 71.767 56.958 71.2647 57.6375 70.0792C60.066 65.7637 60.9074 62.7458 61.6474 60.0913C61.8031 59.5326 61.9544 58.99 62.115 58.4548ZM69.7362 66.3944C68.4012 66.4669 67.2019 65.3834 67.1228 63.9259C67.0465 62.5204 68.1187 61.2614 69.4536 61.189L82.3085 60.4912C83.6929 60.4161 84.8456 61.5543 84.9219 62.9598C85.1493 64.4093 84.0743 65.6162 82.7394 65.6887L80.2673 65.8228L80.6628 73.1105L92.6278 72.4611C94.0122 72.3859 95.162 73.4721 95.2412 74.9296C95.3174 76.3351 94.2947 77.5914 92.9103 77.6666L62.7508 79.3036C61.4158 79.376 60.2137 78.2405 60.1374 76.835C60.0583 75.3775 61.1333 74.1705 62.4682 74.0981L75.7187 73.3789L75.3457 66.5076C75.3372 66.3515 75.3316 66.2474 75.422 66.0858L69.7362 66.3944Z" fill="white"/>
<path d="M8.10746 42.2414C7.14342 43.5013 5.26809 43.5887 4.04332 42.4734C2.81994 41.2942 2.5495 39.3672 3.70079 38.1113C5.4305 36.0996 8.19084 32.6373 10.775 28.6588C11.5546 27.2669 13.4382 26.7954 14.853 27.7867C16.2082 28.6486 16.6659 30.5797 15.6991 31.9676L15.1817 32.7889L43.7693 33.4088C45.3298 33.4427 46.5504 34.7499 46.5157 36.3502C46.4809 37.9504 45.2048 39.2035 43.6444 39.1697L42.396 39.1426L42.2267 46.9517L49.5296 47.1101C51.0901 47.1439 52.3107 48.4512 52.276 50.0514C52.2413 51.6517 50.9651 52.9048 49.4047 52.8709L42.1017 52.7126L41.931 60.5857L45.6761 60.6669C47.2365 60.7008 48.4571 62.008 48.4224 63.6083C48.3877 65.2085 47.1116 66.4616 45.5512 66.4278L9.47335 65.6454C7.91289 65.6115 6.69229 64.3043 6.72699 62.7041C6.76169 61.1038 8.03782 59.8507 9.59828 59.8845L10.0976 59.8954L10.2753 51.7022C9.34874 51.2338 8.74538 50.2601 8.77037 49.108C8.79397 48.0198 9.43897 47.0732 10.3864 46.5814L10.4349 44.3411C10.4696 42.7409 11.8734 41.3625 13.4338 41.3963C15.1816 41.4342 16.3994 42.8695 16.3647 44.4697L16.323 46.39L19.444 46.4577L19.6133 38.6485L10.9996 38.4617L8.10746 42.2414ZM16.1981 52.1508L16.0274 60.024L19.1483 60.0917L19.319 52.2185L16.1981 52.1508ZM25.2488 52.3471L25.078 60.2202L27.3875 60.2703L27.5582 52.3972L25.2488 52.3471ZM36.0012 60.4571L36.172 52.584L33.6752 52.5298L33.5045 60.403L36.0012 60.4571ZM36.2969 46.8231L36.4663 39.014L25.543 38.7771L25.3737 46.5863L27.6832 46.6363L27.7109 45.3562C27.7456 43.7559 29.2118 42.3789 30.8971 42.4154C32.4576 42.4492 33.8626 43.8886 33.8279 45.4888L33.8002 46.769L36.2969 46.8231ZM12.5637 67.1213C14.1103 67.7952 14.6928 69.729 14.034 71.3157L9.77549 80.5091C9.11661 82.0958 7.2274 82.8233 5.68082 82.1493C4.13702 81.3474 3.42964 79.4109 4.21337 77.8269L8.34699 68.6308C9.13072 67.0468 10.8951 66.3166 12.5637 67.1213ZM23.7338 70.3734L25.9974 75.4175C26.7117 77.034 26.0459 78.9407 24.4716 79.547C22.8945 80.2813 21.0358 79.6006 20.3215 77.9841L18.0565 73.0039C17.3421 71.3875 18.008 69.4807 19.5865 68.6824C21.1636 67.9482 23.0195 68.7569 23.7338 70.3734ZM37.1079 72.7767L39.477 78.7197C40.2537 80.3375 39.4006 82.2402 37.8263 82.8465C36.2478 83.6447 34.3933 82.772 33.8038 81.1582L31.3071 75.3406C30.7177 73.7268 31.3835 71.82 32.9606 71.0858C34.5349 70.4795 36.3936 71.1602 37.1079 72.7767ZM52.8234 76.6397C53.8568 77.9429 53.8151 79.8631 52.539 81.1163C51.267 82.1773 49.2696 82.134 48.049 80.8268L42.6909 74.4987C41.6575 73.1955 41.6992 71.2753 43.1001 70.0249C44.3735 68.8998 46.246 68.9404 47.4666 70.2476L52.8234 76.6397Z" fill="#24110A"/>
<path fill-rule="evenodd" clip-rule="evenodd" d="M2.69651 43.9522C2.68251 43.9395 2.66869 43.9265 2.65505 43.9134C0.841306 42.1651 0.185887 39.0162 2.2021 36.7864C3.88207 34.8307 6.55978 31.4701 9.06684 27.6166C10.4442 25.2454 13.6138 24.5071 15.9641 26.1235C17.5393 27.1464 18.3858 29.0176 18.1868 30.8536L43.8124 31.4093C46.5243 31.4681 48.5725 33.7367 48.5149 36.3935C48.4627 38.7992 46.6994 40.8121 44.3532 41.1274L44.2693 44.9956L49.5727 45.1106C52.2846 45.1694 54.3328 47.438 54.2752 50.0948C54.2176 52.7516 52.0729 54.9293 49.361 54.8705L44.0576 54.7555L43.9736 58.6296L45.7192 58.6674C48.4311 58.7262 50.4793 60.9948 50.4217 63.6516C50.3813 65.5145 49.3148 67.1419 47.7461 67.9278C48.1692 68.1785 48.5676 68.4965 48.9282 68.8827C48.9526 68.9088 48.9763 68.9356 48.9993 68.963L54.356 75.355C54.3676 75.3689 54.3791 75.3829 54.3903 75.397C56.0342 77.4702 55.9741 80.5458 53.94 82.5433C53.9015 82.5811 53.8614 82.6174 53.8199 82.652C51.7641 84.367 48.559 84.3038 46.5869 82.1917C46.5648 82.168 46.5433 82.1439 46.5224 82.1192L41.1643 75.7912C41.1573 75.7829 41.1504 75.7746 41.1435 75.7663C41.1368 75.758 41.1301 75.7497 41.1235 75.7414C39.4674 73.6529 39.5349 70.526 41.7681 68.5327L41.7756 68.5261C41.844 68.4656 41.9136 68.4072 41.9843 68.3509L24.4762 67.9712C24.9244 68.4252 25.2954 68.9617 25.5602 69.5589C25.5611 69.561 25.562 69.563 25.5629 69.565L27.8265 74.6091C28.922 77.0882 28.0047 80.2857 25.2539 81.3883C22.6854 82.5442 19.6612 81.4229 18.4967 78.8034L16.2356 73.8319L16.2268 73.8123C16.0027 73.3051 15.8636 72.7794 15.804 72.2523L11.6048 81.3177C10.4928 83.93 7.4176 85.0879 4.88159 83.9828C4.83993 83.9647 4.79891 83.9451 4.75859 83.9242C2.32096 82.6579 1.13494 79.5901 2.40229 76.9771L6.52254 67.8108C6.53266 67.7883 6.54319 67.766 6.55414 67.7439C6.69403 67.4611 6.85591 67.1941 7.03701 66.9447C5.60529 66.0642 4.68837 64.4505 4.72718 62.6607C4.77361 60.5201 6.17484 58.6905 8.13601 58.0911L8.25297 52.6976C7.29322 51.7839 6.73985 50.4808 6.77056 49.0646C6.80124 47.65 7.4389 46.4065 8.40826 45.5369L8.42861 44.5982C6.63701 45.6803 4.26901 45.3841 2.69651 43.9522ZM16.6176 40.584C16.9781 40.8943 17.2905 41.2542 17.5475 41.65L17.5701 40.6047L16.6176 40.584ZM19.613 38.6485L19.4437 46.4577L16.3228 46.39L16.3644 44.4697C16.3991 42.8695 15.1813 41.4342 13.4336 41.3963C11.8731 41.3625 10.4694 42.7409 10.4347 44.3411L10.3861 46.5814C9.4387 47.0732 8.79369 48.0198 8.77009 49.108C8.74511 50.2601 9.34847 51.2338 10.275 51.7022L10.0973 59.8954L9.598 59.8846C8.03755 59.8507 6.76142 61.1038 6.72671 62.7041C6.69865 63.9983 7.49177 65.101 8.62172 65.4932C8.88882 65.5859 9.17473 65.6389 9.47308 65.6454L45.5509 66.4278C47.1113 66.4616 48.3875 65.2085 48.4222 63.6083C48.4569 62.008 47.2363 60.7008 45.6758 60.6669L41.9307 60.5857L42.1014 52.7126L49.4044 52.8709C50.9648 52.9048 52.241 51.6517 52.2757 50.0514C52.3104 48.4512 51.0898 47.1439 49.5293 47.1101L42.2264 46.9517L42.3957 39.1426L43.6441 39.1697C45.2045 39.2035 46.4807 37.9504 46.5154 36.3502C46.5501 34.7499 45.3295 33.4427 43.769 33.4088L15.1814 32.7889L15.6988 31.9676C15.9488 31.6087 16.1035 31.2135 16.1722 30.8099C16.3689 29.6525 15.8575 28.4257 14.8528 27.7867C13.438 26.7954 11.5543 27.2669 10.7747 28.6588C8.19056 32.6373 5.43023 36.0996 3.70051 38.1113C2.54922 39.3672 2.81967 41.2942 4.04305 42.4734C5.26782 43.5887 7.14315 43.5013 8.10719 42.2414L10.9993 38.4617L19.613 38.6485ZM13.4413 67.7319C13.1973 67.4788 12.9037 67.2695 12.5635 67.1213C11.4589 66.5886 10.3125 66.7285 9.43625 67.3434C9.31488 67.4285 9.19869 67.5228 9.08852 67.6257C8.79245 67.9021 8.53982 68.2405 8.34672 68.6308L4.21309 77.8269C3.42937 79.4109 4.13674 81.3474 5.68055 82.1493C7.22712 82.8233 9.11633 82.0958 9.77522 80.5091L14.0337 71.3157C14.5476 70.0781 14.3063 68.6293 13.4413 67.7319ZM15.8485 67.7841L17.3893 67.8175C16.9148 68.2767 16.537 68.8155 16.2661 69.4012C16.2102 68.8457 16.0718 68.2976 15.8485 67.7841ZM20.3212 77.9841C21.0355 79.6006 22.8942 80.2813 24.4713 79.547C26.0456 78.9407 26.7115 77.034 25.9971 75.4175L23.7335 70.3734C23.0192 68.7569 21.1633 67.9482 19.5862 68.6824C18.0077 69.4807 17.3419 71.3875 18.0562 73.0039L20.3212 77.9841ZM38.937 71.9683C38.9469 71.9907 38.9564 72.0133 38.9655 72.0361L41.3123 77.9234C42.5486 80.5997 41.163 83.6425 38.6391 84.6754C35.9133 85.988 32.9124 84.446 31.9467 81.9029L29.469 76.1293C29.4545 76.0955 29.4409 76.0613 29.4283 76.0268C28.5235 73.5498 29.4933 70.4938 32.1162 69.2726C32.1574 69.2535 32.1992 69.2357 32.2416 69.2194C34.7509 68.2531 37.7657 69.3177 38.937 71.9683ZM33.8035 81.1582C34.393 82.772 36.2475 83.6447 37.826 82.8465C39.4003 82.2402 40.2534 80.3375 39.4767 78.7197L37.1076 72.7767C36.3933 71.1602 34.5347 70.4795 32.9603 71.0858C31.3832 71.82 30.7174 73.7268 31.3069 75.3406L33.8035 81.1582ZM19.148 60.0917L16.0271 60.024L16.1978 52.1508L19.3187 52.2185L19.148 60.0917ZM27.3872 60.2703L25.0778 60.2202L25.2485 52.3471L27.558 52.3972L27.3872 60.2703ZM33.5042 60.403L36.001 60.4571L36.1717 52.584L33.675 52.5298L33.5042 60.403ZM36.466 39.014L36.2966 46.8231L33.7999 46.769L33.8277 45.4888C33.8624 43.8886 32.4573 42.4492 30.8968 42.4154C29.2115 42.3789 27.7454 43.7559 27.7107 45.3562L27.6829 46.6363L25.3734 46.5863L25.5428 38.7771L36.466 39.014ZM27.4989 40.82L27.4806 41.6672C27.8715 41.3334 28.312 41.0561 28.7861 40.8479L27.4989 40.82ZM33.001 40.9393C33.5218 41.203 33.9961 41.5565 34.4012 41.9776L34.4231 40.9702L33.001 40.9393ZM48.0488 80.8268L42.6906 74.4987C41.6573 73.1956 41.6989 71.2753 43.0999 70.0249C44.3732 68.8998 46.2458 68.9404 47.4664 70.2476L52.8231 76.6397C53.8565 77.9429 53.8148 79.8631 52.5387 81.1163C51.2668 82.1773 49.2694 82.134 48.0488 80.8268Z" fill="white"/>
<path d="M226.723 68.7263C228.223 68.7609 229.472 70.0684 229.437 71.5687C229.401 73.1245 228.095 74.3175 226.595 74.2829L212.148 73.9497C212.148 73.9497 211.979 74.057 211.864 74.2211C208.457 77.3114 200.543 82.9664 187.27 84.7729C185.763 85.0161 184.233 83.8689 184.158 82.3105C184.026 80.8064 185.169 79.4429 186.564 79.1971C193.98 78.2563 199.428 75.8801 203.091 73.7408L199.923 73.6678C198.368 73.6319 197.173 72.3812 197.209 70.8254C197.244 69.3252 198.496 68.0753 200.052 68.1112L208.109 68.297L208.169 65.6855C208.205 64.1296 209.455 62.9354 211.011 62.9713C212.511 63.0059 213.761 64.2578 213.725 65.8136L213.672 68.1473C213.672 68.1473 213.668 68.314 213.498 68.4213L226.723 68.7263ZM224.921 79.359C226.471 79.6727 227.272 81.0811 226.962 82.4638C226.482 84.0094 224.956 85.0861 223.406 84.7724C218.867 83.9449 215.022 81.9104 212.831 80.4701C211.458 79.7712 211.222 77.9312 212.195 76.7305C213.221 75.6423 214.898 75.2362 216.27 75.9906C218.301 77.1493 221.491 78.6128 224.921 79.359ZM201.862 66.7631C200.362 66.7285 199.112 65.4766 199.148 63.9207L199.387 53.53C199.438 51.3074 201.144 49.6789 203.366 49.7302L213.813 49.9711C213.934 49.5291 214.71 47.212 214.828 46.9368C215.005 46.4961 214.736 46.1007 214.291 46.0905L207.624 45.9367C207.617 46.2145 207.503 46.3231 207.33 46.5971C206.743 47.9734 205.226 48.6611 203.853 47.9067C202.31 47.3152 201.793 45.6354 202.381 44.2591C203.151 42.2199 203.748 40.399 204.166 39.1855C204.646 37.64 206.057 36.7274 207.551 37.0398C209.104 37.1868 210.013 38.7645 209.592 40.1446L209.585 40.4224L218.198 40.6211C220.254 40.6685 221.765 42.6492 221.276 44.5837C220.97 45.7997 220.363 48.0095 219.647 50.1056L221.036 50.1377C223.092 50.1851 224.887 51.8943 224.836 54.1169L224.596 64.5077C224.561 66.0635 223.254 67.2565 221.754 67.2219C220.198 67.186 219.004 65.9353 219.04 64.3795L219.226 56.3225C219.235 55.9336 218.797 55.6455 218.408 55.6365L216.018 55.5814C216.281 56.2546 216.702 57.265 217.514 58.2289C218.324 59.2483 218.129 60.4669 217.273 61.4478C216.587 62.2659 215.031 62.23 214.384 61.3812C212.49 59.1137 211.816 56.9856 211.462 55.4763L211.017 55.4661C210.878 56.686 210.391 58.5094 209.958 60.4452C209.485 61.6574 208.357 62.3541 207.141 62.0481C206.04 61.5779 205.346 60.3388 205.649 59.2339C205.963 57.6845 206.269 56.4685 206.572 55.3636L205.628 55.3418C205.183 55.3315 204.899 55.603 204.89 55.9919L204.704 64.0489C204.668 65.6047 203.418 66.799 201.862 66.7631ZM186.668 64.063C186.102 64.4947 185.706 64.7636 185.144 65.0286C183.847 65.8326 182.082 65.2359 181.392 63.8301C180.757 62.4256 181.351 60.7715 182.59 60.0773C184.165 59.2797 185.576 58.3671 186.821 57.3952L187.021 46.8628C185.521 46.8282 184.438 45.5801 184.474 44.0243C184.508 42.5241 185.649 41.2717 187.149 41.3063L187.216 38.4169C187.252 36.8611 188.558 35.6681 190.058 35.7027C191.614 35.7386 192.809 36.9892 192.773 38.545L192.706 41.4344L194.095 41.4665C195.651 41.5023 196.844 42.8086 196.809 44.3088C196.773 45.8646 195.523 47.0589 193.967 47.023L192.578 46.991L192.477 53.2448L193.216 52.5391C194.349 51.6201 196.124 51.7723 197.21 52.9092C198.187 53.9324 198.146 55.7105 197.012 56.6851C195.875 57.7707 194.18 58.9548 192.314 60.3016L192.131 68.2474C192.096 69.7477 190.844 70.9975 189.288 70.9616C187.788 70.927 186.54 69.6195 186.574 68.1193L186.668 64.063Z" fill="#24110A"/>
<path d="M48.3602 14.9719C48.9392 15.2035 49.1708 15.9677 48.8697 16.4772C47.1328 19.5341 44.3538 19.7193 43.497 19.7193C40.139 19.6035 38.68 17.7972 37.8231 15.8982C37.7537 15.7824 37.5916 15.7361 37.4758 15.8519C37.4758 15.8982 37.4063 15.8982 37.36 15.9677C35.7389 17.1024 34.3494 16.7088 33.701 16.3614C32.4272 15.7361 31.6167 14.2771 31.6167 12.8876C31.6167 11.4981 32.543 9.64545 34.1178 9.06649C34.7431 8.8349 35.9705 8.6728 37.2905 9.64545C37.4063 9.76124 37.5916 9.64545 37.5916 9.52966C37.7074 8.9507 37.7537 8.32542 37.7537 7.67699H35.8547C35.2063 7.67699 34.6968 7.1675 34.6968 6.51907C34.6968 5.89379 35.2063 5.36115 35.8547 5.36115H37.8231V3.85585C37.7537 3.23058 38.2863 2.65162 38.9116 2.58214C39.56 2.53583 40.0695 3.04531 40.139 3.69375C40.139 4.15691 40.139 4.73587 40.1853 5.36115H41.3432C41.9917 5.36115 42.5011 5.89379 42.5011 6.51907C42.5011 7.1675 41.9917 7.67699 41.3432 7.67699H40.139C40.0232 9.29807 39.7916 11.1044 39.3748 12.6097C39.3284 12.8413 39.3284 13.0034 39.3748 13.235C40.0695 15.6666 40.8337 17.2877 43.5433 17.4035C44.238 17.4035 45.697 17.2182 46.7391 15.5508C47.0865 14.9719 47.7812 14.7403 48.3602 14.9719ZM36.7115 13.1887C36.8273 13.0034 36.8273 12.7718 36.781 12.5402C36.7115 12.4939 36.7115 12.4245 36.6652 12.3781C36.5958 12.1929 36.48 12.0308 36.3178 11.8455C35.901 11.4518 35.3915 11.1044 34.9283 11.2665C34.3494 11.4518 33.9325 12.3087 33.9325 12.8876C33.9325 13.3508 34.2336 14.0455 34.7431 14.2771C34.8589 14.3466 35.2757 14.5782 36.0168 14.0455C36.3179 13.8834 36.5494 13.5824 36.7115 13.1887ZM46.276 11.2665C45.6275 11.2665 45.118 10.7571 45.118 10.1086C45.118 9.48334 45.6275 8.9507 46.276 8.9507H47.596C48.2907 9.02017 48.7539 9.52966 48.7539 10.1781C48.7539 10.8034 48.2444 11.336 47.596 11.2665H46.276Z" fill="#24110A"/>
<path d="M69.9438 6.63486C70.5922 6.63486 71.1712 7.1675 71.1712 7.86225C71.1712 8.48753 70.5922 9.06649 69.9438 9.06649H67.6974L68.0911 12.3781C68.2069 13.235 67.5817 13.9992 66.7016 14.0455C65.2658 14.115 62.5331 14.6245 62.0237 15.8982C61.6068 16.7088 62.1394 18.0288 63.3437 19.6499C63.7605 20.1825 63.6911 20.9236 63.1816 21.3867C62.6489 21.8036 61.9079 21.7341 61.491 21.2246C60.1015 19.4183 59.4762 17.8667 59.4762 16.4772C59.4762 15.8982 59.5225 15.3887 59.7541 14.9256C60.7499 12.7718 63.4131 12.0308 65.2658 11.7297C65.4279 11.7297 65.5437 11.5676 65.4974 11.3823C65.4279 10.8034 65.3121 9.99282 65.1964 9.06649H58.4341C57.7393 9.06649 57.2067 8.48753 57.2067 7.86225C57.2067 7.1675 57.7393 6.63486 58.4341 6.63486H64.9184C64.7332 5.47694 64.5711 4.31902 64.4553 3.50848C64.3858 2.8832 64.849 2.23477 65.5437 2.18845C66.1922 2.07266 66.8174 2.53583 66.8869 3.23058L67.3501 6.63486H69.9438Z" fill="#24110A"/>
<path d="M95.2559 14.8098C95.8349 15.1571 96.1128 15.8982 95.7654 16.5235C95.4875 17.1024 94.7233 17.334 94.1443 17.0561C89.5821 14.694 85.8073 11.7297 83.9083 10.1086C83.7925 9.99282 83.6073 10.0623 83.4915 10.1781L81.1293 13.814C80.7125 14.3466 79.9714 14.5087 79.3924 14.1613C78.8135 13.7676 78.6282 13.0034 79.0451 12.4245L82.2872 7.4454C82.7504 6.75065 83.7231 6.63486 84.3715 7.21382C85.1126 7.86225 89.5821 11.8455 95.2559 14.8098ZM90.6243 9.52966L90.5085 8.83491C90.3232 8.32542 90.6706 7.79278 91.2032 7.67699C91.7127 7.51488 92.2453 7.86225 92.4074 8.37174L92.5232 9.06649C92.7085 9.59913 92.3611 10.1086 91.8285 10.2244C91.319 10.3402 90.7864 10.0623 90.6243 9.52966ZM93.6348 9.76124L93.3338 9.13596C93.1022 8.6728 93.3338 8.09384 93.8664 7.86225C94.3296 7.63067 94.9086 7.86225 95.1401 8.37174L95.418 9.02017C95.6496 9.48334 95.418 10.0623 94.9085 10.2939C94.3759 10.5255 93.7969 10.2939 93.6348 9.76124Z" fill="#24110A"/>
<path d="M117.419 9.13596C119.109 11.2202 118.808 14.3929 116.492 18.9088C116.145 19.4878 115.45 19.7193 114.825 19.372C114.246 19.0246 114.061 18.2604 114.362 17.6814C116.145 14.3466 116.562 11.915 115.52 10.6413C113.829 8.557 108.039 9.29807 104.102 10.3402C103.477 10.5718 102.782 10.1781 102.597 9.52966C102.366 8.90438 102.782 8.20963 103.408 8.02436C106.534 7.21382 114.477 5.47694 117.419 9.13596Z" fill="#24110A"/>
<path d="M131.892 6.12538C131.198 6.12538 130.688 5.54642 130.688 4.85166C130.688 4.15691 131.198 3.62427 131.892 3.62427H136.061C136.756 3.62427 137.288 4.15691 137.288 4.85166C137.288 5.54642 136.756 6.12538 136.061 6.12538H131.892ZM139.419 18.214C140.114 18.2604 140.646 18.793 140.693 19.4878C140.693 20.1825 140.183 20.7615 139.488 20.692C132.657 20.5762 128.882 16.7551 127.377 14.8561C126.983 14.3466 127.145 13.5361 127.724 13.235C128.372 12.8876 129.113 13.0034 129.53 13.5824C130.804 15.1571 133.93 18.0288 139.419 18.214Z" fill="#24110A"/>
<path d="M155.63 4.55061C154.935 4.55061 154.426 4.04112 154.426 3.34637C154.356 2.69794 154.935 2.11898 155.584 2.11898H157.598C158.247 2.07266 158.826 2.65162 158.826 3.2769C158.826 3.97165 158.293 4.50429 157.598 4.55061H155.63ZM161.419 8.25595C164.384 11.6139 162.068 17.5656 160.956 19.9972C160.678 20.6457 159.914 20.8773 159.335 20.5299C158.756 20.1825 158.525 19.4878 158.826 18.8393C159.984 16.3614 161.419 11.915 159.567 9.83071C158.293 8.37174 154.703 8.9507 152.619 9.52966C151.994 9.71492 151.299 9.36755 151.068 8.71911C150.836 8.09384 151.183 7.39909 151.809 7.21382C154.125 6.51907 159.104 5.59273 161.419 8.25595Z" fill="#24110A"/>
<path d="M178.51 8.02436C180.178 8.20963 181.799 8.78859 182.957 10.0623C184.694 11.915 184.925 14.9256 183.651 18.8393C183.42 19.4878 182.725 19.8351 182.1 19.6035C181.521 19.372 181.174 18.6772 181.405 18.0288C182.1 15.7361 182.494 13.1192 181.174 11.6834C180.479 10.9192 179.321 10.5255 178.047 10.4097C177.399 13.1887 176.658 16.2919 175.778 19.0709C175.546 19.6499 174.921 19.9972 174.342 19.8351C173.693 19.6035 173.346 18.9551 173.578 18.3298C174.342 15.8519 175.037 12.9571 175.615 10.4097C174.805 10.456 173.994 10.5718 173.3 10.7571C172.651 10.8728 171.956 10.456 171.794 9.83071C171.609 9.18228 172.026 8.557 172.651 8.37174C173.531 8.20963 174.805 7.97804 176.194 7.90857C176.542 6.12538 176.82 4.55061 177.005 3.62427C177.167 2.99899 177.746 2.53583 178.395 2.65162C179.02 2.76741 179.437 3.34637 179.321 3.97165L178.51 8.02436ZM189.742 10.456C190.205 10.9192 190.205 11.6834 189.673 12.1466C189.209 12.6097 188.468 12.6097 188.005 12.0771L185.62 9.59913C185.157 9.06649 185.157 8.32542 185.689 7.86225C186.153 7.39909 186.894 7.4454 187.357 7.90857L189.742 10.456Z" fill="#24110A"/>
<path d="M212.368 16.6393C212.715 17.2182 212.553 17.9825 211.905 18.2604C209.705 19.4183 207.574 19.7193 205.536 19.0709C203.29 18.3762 201.368 16.1993 200.279 14.5782C199.469 16.014 198.589 17.5193 197.616 18.9551C197.269 19.5341 196.504 19.7193 195.925 19.3025C195.416 18.9551 195.231 18.214 195.578 17.6351C199.237 12.0771 201.599 6.40328 202.526 4.08744C202.757 3.46216 203.452 3.1611 204.1 3.34637C204.726 3.57795 205.027 4.27271 204.795 4.89798C204.262 6.35696 203.174 9.02017 201.553 12.1466C201.669 12.2623 201.715 12.3781 201.784 12.4939C202.479 13.6518 204.332 16.1298 206.3 16.7551C207.62 17.1719 209.079 16.9867 210.631 16.1993C211.279 15.8982 211.974 16.0835 212.368 16.6393Z" fill="#24110A"/>
<path d="M220.473 4.2727C221.122 4.20323 221.701 4.78219 221.701 5.43062L221.863 15.5508C221.863 16.1993 221.353 16.7551 220.659 16.7551C219.964 16.7551 219.431 16.2456 219.431 15.6203L219.269 5.47694C219.269 4.78219 219.779 4.2727 220.473 4.2727ZM234.253 16.6393C234.901 16.7551 235.364 17.334 235.248 18.0288C235.179 18.6772 234.554 19.1404 233.905 19.0246C228.81 18.1446 226.147 15.8519 225.059 14.5087C224.595 13.9992 224.758 13.235 225.29 12.9571C225.916 12.6097 226.68 12.7255 227.143 13.235C228.116 14.2771 230.269 15.8982 234.253 16.6393ZM228.185 7.05171C227.49 7.05171 226.958 6.51907 226.958 5.82432C226.958 5.19904 227.49 4.62008 228.185 4.62008H232.516C233.164 4.62008 233.743 5.19904 233.743 5.82432C233.743 6.51907 233.164 7.05171 232.516 7.05171H228.185Z" fill="#24110A"/>
<path d="M253.775 11.5676C255.165 13.3045 254.979 15.8519 253.127 19.4183C252.849 19.9972 252.154 20.1825 251.575 19.8815C251.042 19.5341 250.811 18.8393 251.112 18.2604C252.386 15.7824 252.733 13.9297 251.969 13.0034C250.695 11.4518 246.063 12.0771 243.238 12.8413C242.59 13.0034 241.964 12.656 241.779 12.0308C241.547 11.4518 241.964 10.757 242.543 10.6413C245.206 9.87703 251.39 8.60332 253.775 11.5676Z" fill="#24110A"/>
<path d="M279.875 8.37174C280.453 8.37174 280.986 8.8349 280.986 9.48334C280.986 10.1086 280.453 10.6413 279.875 10.6413H277.327L277.674 13.6982C277.744 14.5087 277.096 15.2729 276.239 15.3193C275.197 15.3887 272.881 15.7824 272.232 16.9867C271.769 17.7972 272.116 18.9551 272.649 19.9972C272.927 20.6457 272.695 21.3404 272.186 21.6878C271.607 22.0815 270.843 21.8499 270.565 21.271C269.916 19.9972 269.569 18.9088 269.569 17.8667C269.569 17.1024 269.754 16.4077 270.102 15.8519C271.074 13.9992 273.274 13.3045 274.849 13.0729C275.011 13.0034 275.127 12.8413 275.127 12.656C275.081 12.1929 275.011 11.4518 274.895 10.6413H267.948C267.323 10.6413 266.79 10.1086 266.79 9.48334C266.79 8.8349 267.323 8.37174 267.948 8.37174H274.664C274.618 7.63067 274.502 6.82013 274.432 6.12538H270.102C269.453 6.12538 268.944 5.59273 268.944 4.96746C268.944 4.3885 269.453 3.85585 270.102 3.85585H274.201C274.201 3.69375 274.154 3.50848 274.154 3.34637C274.085 2.65162 274.548 2.07266 275.243 2.00318C275.891 1.95687 276.517 2.42004 276.586 3.11479L276.632 3.85585H277.79C278.439 3.85585 278.948 4.3885 278.948 4.96746C278.948 5.59273 278.439 6.12538 277.79 6.12538H276.864L277.096 8.37174H279.875Z" fill="#24110A"/>
<path fill-rule="evenodd" clip-rule="evenodd" d="M40.139 3.69377C40.139 4.15694 40.139 4.7359 40.1853 5.36118H41.3432C41.9917 5.36118 42.5011 5.89382 42.5011 6.5191C42.5011 7.16753 41.9917 7.67702 41.3432 7.67702H40.139C40.0232 9.2981 39.7916 11.1045 39.3748 12.6098C39.3284 12.8413 39.3284 13.0034 39.3748 13.235C40.0695 15.6667 40.8337 17.2877 43.5433 17.4035C44.238 17.4035 45.697 17.2183 46.7391 15.5509C47.0865 14.9719 47.7812 14.7403 48.3602 14.9719C48.9392 15.2035 49.1708 15.9677 48.8697 16.4772C47.1328 19.5341 44.3538 19.7194 43.497 19.7194C41.09 19.6364 39.6588 18.6848 38.7255 17.4531C38.7223 17.4489 38.7191 17.4446 38.7159 17.4404C38.7143 17.4383 38.7128 17.4362 38.7112 17.4341C38.7093 17.4315 38.7073 17.429 38.7054 17.4265C38.4814 17.1275 38.2863 16.8125 38.1135 16.4896C38.108 16.4795 38.1026 16.4694 38.0973 16.4592C37.9991 16.2742 37.9082 16.0867 37.8231 15.8982C37.8129 15.8812 37.8007 15.8657 37.7869 15.8519C37.707 15.7723 37.5745 15.7532 37.4758 15.8519C37.4758 15.8758 37.4572 15.8874 37.4329 15.9026C37.4102 15.9168 37.3824 15.9341 37.36 15.9677C35.7389 17.1025 34.3494 16.7088 33.701 16.3614C32.4272 15.7361 31.6167 14.2772 31.6167 12.8877C31.6167 11.5246 32.5081 9.7159 34.0285 9.10098C34.058 9.08904 34.0878 9.07755 34.1178 9.06652C34.4719 8.93537 35.0191 8.82651 35.6669 8.93339C35.6724 8.93431 35.678 8.93525 35.6836 8.9362C35.7399 8.94579 35.797 8.95701 35.8547 8.96999C36.1871 9.04472 36.5423 9.17776 36.9089 9.39315C36.9808 9.43543 37.0532 9.48088 37.126 9.52969C37.1806 9.56636 37.2355 9.60493 37.2905 9.64548C37.3041 9.65905 37.3186 9.66943 37.3337 9.67702C37.3809 9.70079 37.4335 9.69696 37.4788 9.67702C37.5424 9.64904 37.5916 9.58937 37.5916 9.52969C37.6065 9.45487 37.6203 9.37927 37.633 9.30296C37.6416 9.25158 37.6496 9.19988 37.6572 9.14786C37.7231 8.69411 37.7518 8.21656 37.7536 7.72535C37.7536 7.70925 37.7537 7.69314 37.7537 7.67702H35.8547C35.3422 7.67702 34.9166 7.35881 34.7606 6.90528C34.7192 6.78494 34.6968 6.65508 34.6968 6.5191C34.6968 5.89382 35.2063 5.36118 35.8547 5.36118H37.8231V3.85588C37.8149 3.78122 37.8151 3.70722 37.8231 3.63467C37.8822 3.09961 38.361 2.64335 38.9116 2.58217C39.56 2.53586 40.0695 3.04534 40.139 3.69377ZM34.7431 14.2772C34.8589 14.3466 35.2757 14.5782 36.0168 14.0456C36.3179 13.8835 36.5494 13.5824 36.7115 13.1887C36.8273 13.0034 36.8273 12.7719 36.781 12.5403C36.7405 12.5132 36.7236 12.4783 36.7073 12.4447C36.6958 12.4207 36.6845 12.3974 36.6652 12.3782C36.5958 12.1929 36.48 12.0308 36.3178 11.8455C35.901 11.4518 35.3915 11.1045 34.9283 11.2666C34.3494 11.4518 33.9325 12.3087 33.9325 12.8877C33.9325 13.3508 34.2336 14.0456 34.7431 14.2772ZM35.5971 12.4762C35.5874 12.4723 35.5773 12.4684 35.567 12.4645C35.5584 12.4614 35.5496 12.4582 35.5406 12.4551C35.5385 12.4544 35.5364 12.4536 35.5343 12.4529C35.4677 12.4303 35.3977 12.4126 35.3255 12.4014C35.3137 12.3995 35.3018 12.3978 35.2899 12.3963C35.2424 12.3903 35.1941 12.3872 35.1455 12.3872C35.1382 12.3872 35.131 12.3872 35.1239 12.3874C35.0177 12.3894 34.9372 12.4059 34.884 12.4214C34.8804 12.4251 34.8771 12.4286 34.8739 12.432C34.8735 12.4325 34.873 12.433 34.8726 12.4335C34.8711 12.4382 34.8696 12.4428 34.8681 12.4474C34.8341 12.5557 34.819 12.6514 34.8133 12.7245C34.8079 12.7928 34.8101 12.8452 34.8127 12.8773C34.813 12.8809 34.8133 12.8844 34.8137 12.8877C34.8162 12.9136 34.8192 12.9291 34.8199 12.9325L35.1514 12.8662L35.5971 12.4762ZM35.9041 12.7157L35.401 12.8163L35.6841 12.5166C35.7152 12.5357 35.7423 12.5548 35.7656 12.5729C35.8035 12.6022 35.8314 12.6289 35.8502 12.6487C35.8516 12.6501 35.8529 12.6515 35.8542 12.6529C35.8616 12.6607 35.8681 12.6681 35.8738 12.6749C35.8885 12.6925 35.8982 12.7064 35.9041 12.7157ZM35.8379 3.36122C36.0227 1.84009 37.3402 0.744464 38.6907 0.594405L38.7298 0.59006L38.7691 0.587256C40.6782 0.450892 41.9528 1.95301 42.1251 3.45821C43.5104 3.81014 44.5011 5.07496 44.5011 6.5191C44.5011 6.91826 44.4283 7.29938 44.2951 7.64997C44.8322 7.2149 45.5177 6.95073 46.276 6.95073H47.6957L47.795 6.96065C49.4567 7.12682 50.7539 8.4474 50.7539 10.1781C50.7539 11.3692 50.0351 12.55 48.8925 13.0389C48.963 13.0617 49.0332 13.087 49.103 13.115C50.029 13.4854 50.6006 14.2474 50.8462 14.9995C51.087 15.737 51.0784 16.6576 50.602 17.4768C48.3347 21.4551 44.6311 21.7194 43.497 21.7194H43.4625L43.428 21.7182C41.3758 21.6474 39.7482 21.0456 38.4833 20.0477C37.8578 19.5542 37.358 18.9928 36.9519 18.4148C35.2091 19.0244 33.6815 18.6102 32.7888 18.1415C30.7761 17.1371 29.6167 14.9444 29.6167 12.8877C29.6167 11.7882 29.9698 10.624 30.5648 9.63901C31.0696 8.80338 31.8214 7.97985 32.8349 7.45161C32.7451 7.15723 32.6968 6.84415 32.6968 6.5191C32.6968 4.82071 34.0671 3.37034 35.8379 3.36122ZM47.596 11.2666C48.2444 11.336 48.7539 10.8034 48.7539 10.1781C48.7539 9.52969 48.2907 9.0202 47.596 8.95073H46.276C45.6275 8.95073 45.118 9.48337 45.118 10.1086C45.118 10.7571 45.6275 11.2666 46.276 11.2666H47.596ZM46.3511 13.2666H46.276C44.523 13.2666 43.118 11.8616 43.118 10.1086C43.118 9.71486 43.1917 9.33441 43.327 8.98216C42.9385 9.29469 42.4736 9.51666 41.9634 9.61698C41.8307 10.724 41.6385 11.8644 41.3641 12.9135C41.6815 13.9846 41.9388 14.5538 42.2258 14.8907C42.4146 15.1122 42.7123 15.3579 43.5818 15.4031C43.7523 15.3996 43.9775 15.3716 44.2088 15.2704C44.4315 15.1729 44.7376 14.9755 45.0367 14.5012C45.3628 13.9663 45.822 13.5451 46.3511 13.2666ZM64.4553 3.50851C64.3858 2.88323 64.849 2.2348 65.5437 2.18848C66.1922 2.07269 66.8174 2.53586 66.8869 3.23061L67.3501 6.63489H69.9438C70.5923 6.63489 71.1712 7.16753 71.1712 7.86228C71.1712 8.48756 70.5923 9.06652 69.9438 9.06652H67.6975L68.0911 12.3782C68.2069 13.235 67.5817 13.9993 66.7016 14.0456C65.2658 14.115 62.5331 14.6245 62.0237 15.8982C61.6068 16.7088 62.1394 18.0288 63.3437 19.6499C63.7605 20.1825 63.6911 20.9236 63.1816 21.3868C62.6489 21.8036 61.9079 21.7342 61.491 21.2247C60.1015 19.4183 59.4762 17.8667 59.4762 16.4772C59.4762 15.8982 59.5225 15.3888 59.7541 14.9256C60.7499 12.7719 63.4132 12.0308 65.2658 11.7297C65.4279 11.7297 65.5437 11.5676 65.4974 11.3824C65.4627 11.0929 65.4164 10.7456 65.3643 10.3548C65.3122 9.96398 65.2543 9.52972 65.1964 9.06652H58.4341C57.7393 9.06652 57.2067 8.48756 57.2067 7.86228C57.2067 7.16753 57.7393 6.63489 58.4341 6.63489H64.9185C64.8078 5.94358 64.7055 5.25227 64.6163 4.63489C64.574 4.34183 64.5346 4.06543 64.4988 3.81359L64.4553 3.50851ZM62.5957 4.63489C62.5684 4.44446 62.5426 4.26344 62.5186 4.0944C62.5035 3.98846 62.4891 3.88723 62.4754 3.79135L62.471 3.76042L62.4675 3.72937C62.2883 2.11632 63.4246 0.388204 65.3027 0.20186C67.0628 -0.0496306 68.6712 1.2159 68.8723 2.98806L69.0964 4.63489H69.9438C71.6475 4.63489 73.1712 6.01432 73.1712 7.86228C73.1712 9.61452 71.6756 11.0634 69.9493 11.0665L70.0756 12.1292C70.3362 14.1368 68.8478 15.9354 66.8068 16.0428L66.7983 16.0432C66.2148 16.0715 65.35 16.194 64.6227 16.4259C64.3124 16.5248 64.0829 16.6262 63.93 16.7139C63.937 16.7353 63.9451 16.7586 63.9543 16.7839C64.0911 17.1583 64.3969 17.7118 64.9379 18.442C65.998 19.8224 65.7803 21.7272 64.5269 22.8667L64.4723 22.9163L64.4142 22.9618C63.0711 24.0129 61.0852 23.887 59.9431 22.4911L59.9241 22.4679L59.9058 22.4441C58.3778 20.4577 57.4762 18.4823 57.4762 16.4772C57.4762 15.8356 57.5161 14.9474 57.9508 14.0604C58.6202 12.6303 59.7414 11.6878 60.8647 11.0665H58.4341C56.6102 11.0665 55.2067 9.5674 55.2067 7.86228C55.2067 6.06297 56.6348 4.63489 58.4341 4.63489H62.5957ZM63.8828 16.5185C63.883 16.5186 63.8836 16.5232 63.8836 16.5316C63.8825 16.5226 63.8825 16.5184 63.8828 16.5185ZM96.2343 13.0645L96.2849 13.0948C97.6163 13.8936 98.4535 15.7349 97.5421 17.4426C96.7245 19.0679 94.7418 19.5614 93.2789 18.8592L93.2516 18.8461L93.2247 18.8322C89.4917 16.8994 86.2801 14.5892 84.1239 12.8757L82.7585 14.9773L82.7043 15.0466C81.709 16.3184 79.867 16.7785 78.3634 15.8763L78.3148 15.8471L78.2678 15.8152C76.8841 14.8743 76.2822 12.8936 77.3893 11.3021L80.6171 6.34503L80.6231 6.33603C81.7889 4.58741 84.1774 4.37175 85.6916 5.71137C85.7117 5.72893 85.7343 5.74885 85.7596 5.771C86.1413 6.10587 87.1094 6.95518 88.4967 8.03258C88.7105 6.90099 89.6315 6.01439 90.6799 5.74596C91.5463 5.49618 92.3453 5.66979 92.9813 6.06796C92.9938 6.06206 93.0063 6.05625 93.0188 6.05052C94.6182 5.28412 96.3316 6.15969 96.9609 7.54416L96.9699 7.56395L97.239 8.19202C97.9891 9.7859 97.115 11.4879 95.7362 12.1146L95.7211 12.1215L95.706 12.1281C95.4541 12.2376 95.1882 12.311 94.9177 12.3484C95.3313 12.5828 95.7532 12.8131 96.1821 13.0371L96.2343 13.0645ZM94.3897 10.3784C94.5569 10.3956 94.7352 10.3693 94.9086 10.2939C95.3543 10.0913 95.5873 9.62282 95.4836 9.19861C95.4688 9.13793 95.447 9.07816 95.418 9.0202L95.1401 8.37177C95.1269 8.3426 95.1125 8.31433 95.097 8.28702C95.0922 8.2785 95.0873 8.27008 95.0823 8.26175C94.9093 7.97465 94.6181 7.79799 94.3163 7.77489C94.3071 7.77418 94.2979 7.77362 94.2886 7.7732C94.1457 7.76674 94.0012 7.79491 93.8664 7.86228C93.7977 7.89215 93.734 7.9278 93.6757 7.96823C93.5803 8.03437 93.4992 8.1133 93.434 8.20069C93.2986 8.38203 93.2315 8.59977 93.2462 8.81504C93.2492 8.85787 93.2553 8.9006 93.2648 8.94292C93.2796 9.00863 93.3025 9.07337 93.3338 9.13599L93.6348 9.76127C93.6369 9.76811 93.6391 9.77491 93.6413 9.78165C93.6534 9.81843 93.6675 9.85372 93.6835 9.88747C93.8184 10.1724 94.0858 10.3472 94.3897 10.3784ZM91.65 10.2491C91.7094 10.2461 91.7691 10.2379 91.8285 10.2244C92.2032 10.143 92.4862 9.8667 92.5566 9.52458C92.5577 9.5193 92.5587 9.51401 92.5597 9.5087C92.5776 9.41222 92.5786 9.31072 92.5601 9.20704C92.5518 9.16055 92.5396 9.11362 92.5232 9.06652L92.4075 8.37177C92.3856 8.30303 92.357 8.23724 92.3226 8.17526C92.1465 7.85803 91.8192 7.64045 91.4701 7.63685C91.3818 7.63594 91.2922 7.64871 91.2032 7.67702C90.7194 7.78219 90.3885 8.23128 90.4707 8.69455C90.479 8.74132 90.4915 8.78822 90.5085 8.83494L90.6243 9.52969C90.6357 9.56725 90.649 9.60355 90.6639 9.63853C90.6733 9.66046 90.6834 9.68186 90.6941 9.70275C90.8637 10.0338 91.193 10.2319 91.5467 10.2492C91.5809 10.2509 91.6154 10.2509 91.65 10.2491ZM89.1677 11.0284C86.7208 9.27537 84.9921 7.7584 84.4466 7.27974L84.3715 7.21385C83.7231 6.63489 82.7504 6.75068 82.2872 7.44543L79.0451 12.4245C78.6282 13.0034 78.8135 13.7677 79.3924 14.1614C79.9714 14.5087 80.7125 14.3466 81.1293 13.814L83.4915 10.1781C83.6073 10.0623 83.7925 9.99285 83.9083 10.1086C85.8073 11.7297 89.5821 14.694 94.1443 17.0562C94.7233 17.3341 95.4875 17.1025 95.7654 16.5235C96.1128 15.8982 95.8349 15.1572 95.2559 14.8098C93.6414 13.9663 92.1244 13.0403 90.7631 12.1321C90.2037 11.7589 89.6705 11.3887 89.1677 11.0284ZM114.362 17.6814C116.145 14.3466 116.562 11.915 115.52 10.6413C113.829 8.55703 108.039 9.2981 104.102 10.3402C103.477 10.5718 102.782 10.1781 102.597 9.52969C102.366 8.90441 102.782 8.20966 103.408 8.02439C106.534 7.21385 114.477 5.47697 117.419 9.13599C119.109 11.2202 118.808 14.3929 116.492 18.9088C116.145 19.4878 115.45 19.7194 114.825 19.372C114.246 19.0246 114.061 18.2604 114.362 17.6814ZM100.697 10.1545C101.19 11.7273 102.918 12.8373 104.684 12.2552C106.544 11.7675 108.782 11.3669 110.704 11.3177C111.68 11.2928 112.491 11.3611 113.098 11.5104C113.727 11.6654 113.929 11.8551 113.966 11.9012L113.972 11.9078C113.98 11.9178 114.176 12.163 114.027 13.0604C113.88 13.9425 113.439 15.1661 112.598 16.7383L112.592 16.7485L112.587 16.7587C111.828 18.2194 112.257 20.1636 113.796 21.087L113.824 21.1041L113.853 21.1203C115.5 22.0349 117.352 21.3631 118.207 19.9378L118.241 19.8807L118.272 19.8215C120.618 15.2454 121.496 10.9915 118.974 7.87935C116.864 5.25697 113.248 4.82453 110.426 4.90492C107.451 4.98965 104.507 5.67315 102.906 6.0884L102.872 6.09703L102.84 6.1068C101.296 6.56421 100.06 8.30915 100.697 10.1545ZM139.519 16.2163L139.552 16.2185C141.246 16.3315 142.575 17.6602 142.688 19.3548L142.693 19.4212V19.4878C142.693 21.056 141.466 22.8407 139.387 22.6905C131.765 22.5363 127.507 18.2398 125.809 16.0985L125.802 16.0888L125.794 16.079C124.667 14.62 125.077 12.3666 126.789 11.4668C128.151 10.743 130.01 10.8877 131.112 12.3574C132.158 13.6376 134.784 16.0565 139.486 16.2152L139.519 16.2163ZM129.53 13.5824C129.113 13.0034 128.372 12.8877 127.724 13.235C127.145 13.5361 126.983 14.3466 127.377 14.8561C128.882 16.7551 132.657 20.5762 139.488 20.692C140.183 20.7615 140.693 20.1825 140.693 19.4878C140.646 18.793 140.114 18.2604 139.419 18.2141C133.93 18.0288 130.804 15.1572 129.53 13.5824ZM155.348 4.52124C154.802 4.4035 154.426 3.94334 154.426 3.3464C154.356 2.69796 154.935 2.119 155.584 2.119H157.598C158.247 2.07269 158.826 2.65165 158.826 3.27692C158.826 3.92094 158.368 4.42566 157.748 4.53283C157.699 4.54127 157.649 4.54725 157.598 4.55063H155.63C155.532 4.55063 155.438 4.54053 155.348 4.52124ZM157.755 6.54454C157.747 6.5436 157.739 6.54266 157.731 6.54174C157.687 6.53665 157.643 6.53188 157.598 6.52741C156.947 6.46178 156.281 6.46218 155.63 6.50609C155.515 6.51385 155.4 6.52297 155.286 6.53333C153.939 6.65587 152.684 6.95138 151.809 7.21385C151.183 7.39912 150.836 8.09387 151.068 8.71914C151.299 9.36758 151.994 9.71495 152.619 9.52969C154.703 8.95073 158.293 8.37177 159.567 9.83074C161.419 11.915 159.984 16.3614 158.826 18.8394C158.525 19.4878 158.756 20.1825 159.335 20.5299C159.914 20.8773 160.678 20.6457 160.956 19.9973C162.068 17.5656 164.384 11.6139 161.419 8.25598C160.504 7.20356 159.173 6.71168 157.755 6.54454ZM162.924 6.93839C162.162 6.06422 161.239 5.48424 160.27 5.10803C160.619 4.59549 160.826 3.97141 160.826 3.27692C160.826 1.5816 159.371 0.0403697 157.545 0.119005H155.584C153.915 0.119005 152.288 1.54252 152.427 3.45041C152.443 3.97662 152.58 4.4668 152.811 4.89501C152.213 5.0231 151.678 5.16512 151.236 5.29761C149.491 5.81742 148.57 7.71324 149.188 9.40228C149.77 11.0164 151.512 11.9319 153.167 11.4533C154.117 11.1903 155.357 10.9441 156.45 10.9153C156.998 10.9008 157.43 10.9438 157.736 11.023C157.969 11.0834 158.054 11.1446 158.068 11.1548L158.072 11.1595C158.365 11.4896 158.602 12.3127 158.351 13.868C158.118 15.3052 157.547 16.8522 157.014 17.9927L157.012 17.9971C156.275 19.5842 156.861 21.3775 158.306 22.2449C159.907 23.2053 162.013 22.5641 162.783 20.8122C163.366 19.5349 164.304 17.2534 164.692 14.7843C165.073 12.3599 164.991 9.28494 162.924 6.93839ZM172.651 8.37177C173.531 8.20966 174.805 7.97807 176.194 7.9086C176.377 6.97321 176.54 6.09516 176.68 5.33798L176.681 5.33536L176.682 5.33217C176.809 4.64839 176.917 4.06347 177.005 3.6243C177.167 2.99902 177.746 2.53586 178.395 2.65165C179.02 2.76744 179.437 3.3464 179.321 3.97168L178.51 8.02439C179.065 8.08602 179.614 8.1912 180.143 8.35103C181.205 8.67169 182.184 9.2123 182.957 10.0623C184.694 11.915 184.925 14.9256 183.651 18.8394C183.42 19.4878 182.725 19.8352 182.1 19.6036C181.521 19.372 181.174 18.6772 181.405 18.0288C182.1 15.7361 182.494 13.1192 181.174 11.6834C180.862 11.3413 180.459 11.0734 179.993 10.8715C179.98 10.8658 179.967 10.8601 179.953 10.8545C179.388 10.6156 178.734 10.4722 178.047 10.4097C177.399 13.1887 176.658 16.2919 175.778 19.0709C175.546 19.6499 174.921 19.9973 174.342 19.8352C173.693 19.6036 173.346 18.9551 173.578 18.3299C174.143 16.4965 174.67 14.4348 175.141 12.4546C175.306 11.7584 175.465 11.0723 175.616 10.4097C174.88 10.4517 174.145 10.551 173.496 10.7074C173.429 10.7233 173.364 10.7399 173.3 10.7571C172.651 10.8729 171.956 10.456 171.794 9.83074C171.609 9.18231 172.026 8.55703 172.651 8.37177ZM169.865 10.3577C169.348 8.50083 170.583 6.89874 172.083 6.45417L172.185 6.42406L172.289 6.40486C172.853 6.30092 173.626 6.15899 174.513 6.05022C174.583 5.67931 174.649 5.32016 174.712 4.98263C174.844 4.27323 174.958 3.65926 175.044 3.23207L175.055 3.17687L175.069 3.12238C175.437 1.70336 176.861 0.346253 178.746 0.682792L178.759 0.685043C180.42 0.992751 181.613 2.57538 181.287 4.33585L181.285 4.3499L180.859 6.47933C181.749 6.76235 182.626 7.18184 183.422 7.78766C183.58 7.28532 183.874 6.80686 184.326 6.39858C185.67 5.10973 187.645 5.36882 188.771 6.49438L188.794 6.51761L191.185 9.07082C192.406 10.3233 192.401 12.3738 191.036 13.6103C189.78 14.8131 187.764 14.7963 186.537 13.4358L186.408 13.3014C186.594 15.1993 186.255 17.3032 185.553 19.4583L185.545 19.4853L185.535 19.512C184.958 21.1262 183.156 22.1274 181.405 21.4791L181.381 21.4701L181.357 21.4605C179.821 20.846 178.94 19.0818 179.502 17.4136C179.82 16.3561 180.03 15.3436 180.045 14.4986C180.061 13.6236 179.866 13.2167 179.701 13.037L179.694 13.0288C179.651 12.9821 179.593 12.9319 179.519 12.8808C178.983 15.1155 178.377 17.4862 177.684 19.6747L177.662 19.7451L177.635 19.8137C177.072 21.219 175.487 22.2327 173.803 21.7611L173.735 21.7422L173.669 21.7186C172.136 21.1709 171.058 19.4843 171.679 17.6989C172.15 16.1683 172.596 14.4648 173.007 12.7745C171.618 12.7405 170.259 11.8279 169.865 10.3577ZM188.005 12.0771C188.468 12.6097 189.209 12.6098 189.673 12.1466C190.205 11.6834 190.205 10.9192 189.742 10.456L187.357 7.9086C186.894 7.44543 186.153 7.39912 185.689 7.86228C185.157 8.32545 185.157 9.06652 185.62 9.59916L188.005 12.0771ZM214.044 15.5452L214.083 15.6103C214.921 17.007 214.668 19.1905 212.778 20.0608C210.236 21.3838 207.572 21.8152 204.937 20.9791C203.207 20.442 201.716 19.2894 200.548 18.0846C200.15 18.7383 199.733 19.395 199.296 20.0415C198.355 21.5374 196.317 22.0321 194.777 20.9397C193.414 19.9936 192.972 18.0909 193.863 16.6061L193.885 16.5703L193.908 16.5354C197.445 11.1619 199.745 5.65198 200.661 3.36311C201.313 1.65139 203.142 0.992552 204.65 1.42335L204.723 1.44435L204.795 1.4709C206.501 2.10277 207.266 3.97451 206.673 5.58638C206.175 6.95045 205.232 9.26881 203.861 12.0198C204.16 12.4495 204.56 12.9651 205.018 13.4506C205.736 14.2101 206.406 14.6898 206.904 14.8485C207.607 15.0698 208.519 15.0283 209.726 14.4158L209.757 14.4L209.789 14.3853C211.287 13.6898 213.032 14.1166 214 15.4833L214.044 15.5452ZM201.553 12.1466C201.64 12.2334 201.688 12.3203 201.735 12.4071C201.751 12.4361 201.767 12.465 201.784 12.494C202.479 13.6519 204.332 16.1298 206.3 16.7551C207.62 17.172 209.079 16.9867 210.631 16.1993C211.279 15.8982 211.974 16.0835 212.368 16.6393C212.715 17.2183 212.553 17.9825 211.905 18.2604C209.705 19.4183 207.574 19.7194 205.536 19.0709C204.03 18.605 202.669 17.4724 201.608 16.288C201.087 15.7063 200.638 15.1121 200.279 14.5782C199.926 15.203 199.561 15.8409 199.18 16.4806C198.685 17.3109 198.165 18.1441 197.616 18.9551C197.269 19.5341 196.504 19.7194 195.925 19.3025C195.416 18.9551 195.231 18.2141 195.578 17.6351C199.237 12.0771 201.599 6.4033 202.526 4.08747C202.757 3.46219 203.452 3.16113 204.1 3.3464C204.726 3.57798 205.027 4.27273 204.795 4.89801C204.262 6.35699 203.174 9.0202 201.553 12.1466ZM223.799 11.5682L223.701 5.40877C223.688 3.74753 222.269 2.13611 220.369 2.27431C218.62 2.32726 217.269 3.71247 217.269 5.47697V5.49295L217.431 15.6396C217.442 17.485 218.995 18.7551 220.659 18.7551C222.296 18.7551 223.545 17.578 223.811 16.1268C225.322 17.8174 228.359 20.0953 233.561 20.9947C235.306 21.3024 237.004 20.0906 237.23 18.3015C237.505 16.4696 236.232 14.966 234.613 14.6721C231.052 14.0085 229.288 12.5989 228.612 11.8774C227.498 10.664 225.728 10.4381 224.34 11.1971C224.142 11.3031 223.961 11.428 223.799 11.5682ZM225.29 12.9571C224.758 13.235 224.595 13.9993 225.059 14.5087C226.147 15.8519 228.81 18.1446 233.905 19.0246C234.554 19.1404 235.179 18.6772 235.248 18.0288C235.364 17.3341 234.901 16.7551 234.253 16.6393C230.269 15.8982 228.116 14.2772 227.143 13.235C226.68 12.7255 225.916 12.6098 225.29 12.9571ZM219.431 15.6203C219.431 16.2456 219.964 16.7551 220.659 16.7551C221.353 16.7551 221.863 16.1993 221.863 15.5509L221.701 5.43065C221.701 4.78222 221.122 4.20326 220.473 4.27273C219.779 4.27273 219.269 4.78222 219.269 5.47697L219.431 15.6203ZM255.333 10.3138L255.337 10.3182C257.52 13.0468 256.827 16.6253 254.913 20.3182C254.07 22.0246 252.082 22.3995 250.652 21.6559L250.565 21.6105L250.482 21.5567C249.196 20.718 248.507 18.9415 249.335 17.3424C249.925 16.194 250.23 15.3193 250.333 14.7161C250.369 14.4993 250.374 14.3573 250.37 14.2714C250.302 14.2429 250.193 14.2048 250.026 14.1675C249.597 14.0711 248.997 14.027 248.254 14.0527C246.776 14.104 245.068 14.4181 243.76 14.772L243.742 14.777L243.723 14.7816C242.105 15.186 240.42 14.3222 239.887 12.6828C239.554 11.7618 239.738 10.8447 240.117 10.1764C240.489 9.52028 241.153 8.91475 242.05 8.70215C243.468 8.29896 245.834 7.75432 248.223 7.70667C250.521 7.66084 253.521 8.06134 255.333 10.3138ZM242.543 10.6413C241.964 10.7571 241.547 11.4518 241.779 12.0308C241.964 12.6561 242.59 13.0034 243.238 12.8413C246.063 12.0771 250.695 11.4518 251.969 13.0034C252.733 13.9298 252.386 15.7824 251.112 18.2604C250.811 18.8394 251.042 19.5341 251.575 19.8815C252.154 20.1825 252.849 19.9973 253.127 19.4183C254.979 15.8519 255.165 13.3045 253.775 11.5676C251.39 8.60335 245.206 9.87706 242.543 10.6413ZM276.586 3.11482L276.632 3.85588H277.79C278.439 3.85588 278.948 4.38853 278.948 4.96749C278.948 5.38856 278.717 5.76762 278.368 5.9703C278.199 6.06859 278.002 6.1254 277.79 6.1254H276.864L277.096 8.37177H279.875C280.454 8.37177 280.986 8.83493 280.986 9.48337C280.986 10.1086 280.454 10.6413 279.875 10.6413H277.327L277.674 13.6982C277.744 14.5087 277.096 15.273 276.239 15.3193C275.197 15.3888 272.881 15.7824 272.232 16.9867C271.769 17.7972 272.117 18.9551 272.649 19.9973C272.927 20.6457 272.695 21.3405 272.186 21.6878C271.607 22.0815 270.843 21.8499 270.565 21.271C269.916 19.9973 269.569 18.9088 269.569 17.8667C269.569 17.1025 269.754 16.4077 270.102 15.8519C271.074 13.9993 273.274 13.3045 274.849 13.0729C275.011 13.0034 275.127 12.8413 275.127 12.6561L275.112 12.5092L275.112 12.5076C275.066 12.0426 275 11.37 274.896 10.6413H267.948C267.323 10.6413 266.79 10.1086 266.79 9.48337C266.79 8.83493 267.323 8.37177 267.948 8.37177H274.664C274.634 7.88891 274.574 7.37656 274.517 6.88597L274.517 6.88455C274.496 6.71009 274.476 6.5384 274.458 6.37177C274.449 6.28828 274.44 6.20606 274.432 6.1254H270.102C269.453 6.1254 268.944 5.59276 268.944 4.96749C268.944 4.38853 269.453 3.85588 270.102 3.85588H274.201C274.201 3.77483 274.189 3.68798 274.178 3.60114C274.166 3.5143 274.154 3.42745 274.154 3.3464C274.137 3.16853 274.154 2.99825 274.201 2.84216C274.337 2.38859 274.726 2.0549 275.243 2.00321C275.891 1.9569 276.517 2.42006 276.586 3.11482ZM272.441 1.85588C272.895 0.863899 273.843 0.133249 275.044 0.0131386L275.072 0.0103162L275.1 0.00829539C276.411 -0.0853354 277.736 0.643357 278.305 1.89797C279.792 2.14327 280.948 3.431 280.948 4.96749C280.948 5.49933 280.814 6.00684 280.575 6.4534C281.89 6.76223 282.986 7.92123 282.986 9.48337C282.986 11.1604 281.61 12.6413 279.875 12.6413H279.567L279.665 13.4999L279.667 13.5274C279.833 15.4673 278.33 17.2002 276.363 17.3155C275.956 17.3433 275.295 17.4376 274.708 17.629C274.415 17.7243 274.2 17.825 274.062 17.9134C274.046 17.9237 274.032 17.9332 274.019 17.9418C274.022 17.9689 274.027 18.0029 274.034 18.0445C274.081 18.3002 274.21 18.6561 274.43 19.087L274.461 19.1473L274.487 19.2094C275.142 20.7358 274.613 22.4536 273.313 23.3403L273.311 23.3417C271.72 24.4231 269.587 23.8159 268.774 22.1622C268.064 20.7627 267.569 19.3521 267.569 17.8667C267.569 16.8116 267.819 15.7627 268.365 14.8577C268.882 13.9017 269.596 13.1826 270.378 12.6413H267.948C266.218 12.6413 264.79 11.2132 264.79 9.48337C264.79 7.85317 265.961 6.71473 267.309 6.43733C267.075 5.99468 266.944 5.49295 266.944 4.96749C266.944 3.25769 268.375 1.85588 270.102 1.85588H272.441ZM131.892 8.1254C129.949 8.1254 128.688 6.50132 128.688 4.85169C128.688 3.103 130.043 1.6243 131.892 1.6243H136.061C137.86 1.6243 139.288 3.05237 139.288 4.85169C139.288 6.55311 137.956 8.1254 136.061 8.1254H131.892ZM228.185 9.05174C226.386 9.05174 224.958 7.62368 224.958 5.82435C224.958 4.11921 226.361 2.62011 228.185 2.62011H232.516C234.244 2.62011 235.743 4.07026 235.743 5.82435C235.743 7.67231 234.219 9.05174 232.516 9.05174H228.185ZM130.688 4.85169C130.688 5.54644 131.198 6.1254 131.892 6.1254H136.061C136.756 6.1254 137.288 5.54644 137.288 4.85169C137.288 4.15694 136.756 3.6243 136.061 3.6243H131.892C131.198 3.6243 130.688 4.15694 130.688 4.85169ZM226.958 5.82435C226.958 6.5191 227.49 7.05174 228.185 7.05174H232.516C233.164 7.05174 233.743 6.5191 233.743 5.82435C233.743 5.19907 233.164 4.62011 232.516 4.62011H228.185C227.49 4.62011 226.958 5.19907 226.958 5.82435Z" fill="white"/>
</svg>
