<svg width="120" height="75" viewBox="0 0 120 75" fill="none" xmlns="http://www.w3.org/2000/svg">
<mask id="path-1-outside-1_152_638" maskUnits="userSpaceOnUse" x="26" y="-0.5" width="68" height="75" fill="black">
<rect fill="white" x="26" y="-0.5" width="68" height="75"/>
<path fill-rule="evenodd" clip-rule="evenodd" d="M31.5232 5.63368C31.3492 5.7251 31.2263 5.84713 31.1344 6.01977L31 6.27223L31.0009 37.5238L31.0019 68.7754L31.1332 69.0055C31.2053 69.1321 31.3532 69.2952 31.4617 69.3678L31.6591 69.5H34.6579C37.5256 69.5 37.6664 69.495 37.8818 69.3859C38.2508 69.1988 38.3743 68.9333 38.4011 68.2693L38.4241 67.7029H60.0359H81.6479V68.274C81.6479 68.9159 81.732 69.115 82.1101 69.3682L82.307 69.5H85.3239H88.3409L88.5378 69.3682C88.646 69.2957 88.7944 69.1483 88.8673 69.0408L89 68.8452V37.5477C89 10.9177 88.9879 6.22139 88.9187 6.05687C88.8739 5.95049 88.7381 5.78829 88.6169 5.6964L88.3964 5.52933L60.087 5.51467L31.7776 5.5L31.5232 5.63368ZM86.9577 9.18149V10.8337H60H33.0423V9.18149V7.52932H60H86.9577V9.18149ZM36.3682 40.1668V67.471H34.7052H33.0423V40.1668V12.8626H34.7052H36.3682V40.1668ZM81.6479 16.8626V20.8626H67.2354H52.8229V17.8771V14.8916H51.5101H50.1972V17.8771V20.8626H49.3803H48.5634V17.8771V14.8916H47.2505H45.9376V17.8771V20.8626H45.1207H44.3038V17.8771V14.8916H42.9909H41.6781V17.8771V20.8626H40.0443H38.4105V16.8626V12.8626H60.0292H81.6479V16.8626ZM86.9577 40.1668V67.471H85.3239H83.6901V40.1668V12.8626H85.3239H86.9577V40.1668ZM81.6479 26.8626V30.7756H79.9849H78.3219V27.7901V24.8046H77.0382H75.7545V27.7901V30.7756H74.9085H74.0624V27.7901V24.8046H72.7787H71.495V27.7901V30.7756H70.6489H69.8028V27.7901V24.8046H68.5191H67.2354V27.7901V30.7756H52.8229H38.4105V26.8626V22.9495H60.0292H81.6479V26.8626ZM81.6479 36.7176V40.6306H69.3652H57.0825V37.5581V34.4857H55.7696H54.4567V37.5581V40.6306H53.6398H52.8229V37.5581V34.4857H51.5101H50.1972V37.5581V40.6306H49.3803H48.5634V37.5581V34.4857H47.2505H45.9376V37.5581V40.6306H42.174H38.4105V36.7176V32.8045H60.0292H81.6479V36.7176ZM81.6479 46.5726V50.4856H79.9849H78.3219V47.3842V44.2827H77.0382H75.7545V47.3842V50.4856H74.9085H74.0624V47.3842V44.2827H72.7787H71.495V47.3842V50.4856H70.6489H69.8028V47.3842V44.2827H68.5191H67.2354V47.3842V50.4856H62.159H57.0825V47.3842V44.2827H55.7696H54.4567V47.3842V50.4856H53.6398H52.8229V47.3842V44.2827H51.5101H50.1972V47.3842V50.4856H44.3038H38.4105V46.5726V42.6596H60.0292H81.6479V46.5726ZM81.6479 56.4276V60.3406H71.9053H62.1627L62.0158 59.8624C60.8419 56.0409 60.2462 54.1312 60.22 54.1051C60.1715 54.057 57.7523 54.8077 57.7614 54.868C57.7658 54.8968 58.1399 56.1274 58.5929 57.6027C59.0459 59.078 59.4165 60.2975 59.4165 60.3128C59.4165 60.3281 58.8913 60.3406 58.2495 60.3406H57.0825V57.3262V54.3117H55.7696H54.4567V57.3262V60.3406H53.6398H52.8229V57.3262V54.3117H51.5101H50.1972V57.3262V60.3406H49.3803H48.5634V57.3262V54.3117H47.2505H45.9376V57.3262V60.3406H45.1207H44.3038V57.3262V54.3117H42.9909H41.6781V57.3262V60.3406H40.0443H38.4105V56.4276V52.5146H60.0292H81.6479V56.4276ZM81.6479 64.0218V65.6739H60.0292H38.4105V64.0218V62.3696H60.0292H81.6479V64.0218Z"/>
</mask>
<path fill-rule="evenodd" clip-rule="evenodd" d="M31.5232 5.63368C31.3492 5.7251 31.2263 5.84713 31.1344 6.01977L31 6.27223L31.0009 37.5238L31.0019 68.7754L31.1332 69.0055C31.2053 69.1321 31.3532 69.2952 31.4617 69.3678L31.6591 69.5H34.6579C37.5256 69.5 37.6664 69.495 37.8818 69.3859C38.2508 69.1988 38.3743 68.9333 38.4011 68.2693L38.4241 67.7029H60.0359H81.6479V68.274C81.6479 68.9159 81.732 69.115 82.1101 69.3682L82.307 69.5H85.3239H88.3409L88.5378 69.3682C88.646 69.2957 88.7944 69.1483 88.8673 69.0408L89 68.8452V37.5477C89 10.9177 88.9879 6.22139 88.9187 6.05687C88.8739 5.95049 88.7381 5.78829 88.6169 5.6964L88.3964 5.52933L60.087 5.51467L31.7776 5.5L31.5232 5.63368ZM86.9577 9.18149V10.8337H60H33.0423V9.18149V7.52932H60H86.9577V9.18149ZM36.3682 40.1668V67.471H34.7052H33.0423V40.1668V12.8626H34.7052H36.3682V40.1668ZM81.6479 16.8626V20.8626H67.2354H52.8229V17.8771V14.8916H51.5101H50.1972V17.8771V20.8626H49.3803H48.5634V17.8771V14.8916H47.2505H45.9376V17.8771V20.8626H45.1207H44.3038V17.8771V14.8916H42.9909H41.6781V17.8771V20.8626H40.0443H38.4105V16.8626V12.8626H60.0292H81.6479V16.8626ZM86.9577 40.1668V67.471H85.3239H83.6901V40.1668V12.8626H85.3239H86.9577V40.1668ZM81.6479 26.8626V30.7756H79.9849H78.3219V27.7901V24.8046H77.0382H75.7545V27.7901V30.7756H74.9085H74.0624V27.7901V24.8046H72.7787H71.495V27.7901V30.7756H70.6489H69.8028V27.7901V24.8046H68.5191H67.2354V27.7901V30.7756H52.8229H38.4105V26.8626V22.9495H60.0292H81.6479V26.8626ZM81.6479 36.7176V40.6306H69.3652H57.0825V37.5581V34.4857H55.7696H54.4567V37.5581V40.6306H53.6398H52.8229V37.5581V34.4857H51.5101H50.1972V37.5581V40.6306H49.3803H48.5634V37.5581V34.4857H47.2505H45.9376V37.5581V40.6306H42.174H38.4105V36.7176V32.8045H60.0292H81.6479V36.7176ZM81.6479 46.5726V50.4856H79.9849H78.3219V47.3842V44.2827H77.0382H75.7545V47.3842V50.4856H74.9085H74.0624V47.3842V44.2827H72.7787H71.495V47.3842V50.4856H70.6489H69.8028V47.3842V44.2827H68.5191H67.2354V47.3842V50.4856H62.159H57.0825V47.3842V44.2827H55.7696H54.4567V47.3842V50.4856H53.6398H52.8229V47.3842V44.2827H51.5101H50.1972V47.3842V50.4856H44.3038H38.4105V46.5726V42.6596H60.0292H81.6479V46.5726ZM81.6479 56.4276V60.3406H71.9053H62.1627L62.0158 59.8624C60.8419 56.0409 60.2462 54.1312 60.22 54.1051C60.1715 54.057 57.7523 54.8077 57.7614 54.868C57.7658 54.8968 58.1399 56.1274 58.5929 57.6027C59.0459 59.078 59.4165 60.2975 59.4165 60.3128C59.4165 60.3281 58.8913 60.3406 58.2495 60.3406H57.0825V57.3262V54.3117H55.7696H54.4567V57.3262V60.3406H53.6398H52.8229V57.3262V54.3117H51.5101H50.1972V57.3262V60.3406H49.3803H48.5634V57.3262V54.3117H47.2505H45.9376V57.3262V60.3406H45.1207H44.3038V57.3262V54.3117H42.9909H41.6781V57.3262V60.3406H40.0443H38.4105V56.4276V52.5146H60.0292H81.6479V56.4276ZM81.6479 64.0218V65.6739H60.0292H38.4105V64.0218V62.3696H60.0292H81.6479V64.0218Z" fill="#AF9F9E"/>
<path fill-rule="evenodd" clip-rule="evenodd" d="M31.5232 5.63368C31.3492 5.7251 31.2263 5.84713 31.1344 6.01977L31 6.27223L31.0009 37.5238L31.0019 68.7754L31.1332 69.0055C31.2053 69.1321 31.3532 69.2952 31.4617 69.3678L31.6591 69.5H34.6579C37.5256 69.5 37.6664 69.495 37.8818 69.3859C38.2508 69.1988 38.3743 68.9333 38.4011 68.2693L38.4241 67.7029H60.0359H81.6479V68.274C81.6479 68.9159 81.732 69.115 82.1101 69.3682L82.307 69.5H85.3239H88.3409L88.5378 69.3682C88.646 69.2957 88.7944 69.1483 88.8673 69.0408L89 68.8452V37.5477C89 10.9177 88.9879 6.22139 88.9187 6.05687C88.8739 5.95049 88.7381 5.78829 88.6169 5.6964L88.3964 5.52933L60.087 5.51467L31.7776 5.5L31.5232 5.63368ZM86.9577 9.18149V10.8337H60H33.0423V9.18149V7.52932H60H86.9577V9.18149ZM36.3682 40.1668V67.471H34.7052H33.0423V40.1668V12.8626H34.7052H36.3682V40.1668ZM81.6479 16.8626V20.8626H67.2354H52.8229V17.8771V14.8916H51.5101H50.1972V17.8771V20.8626H49.3803H48.5634V17.8771V14.8916H47.2505H45.9376V17.8771V20.8626H45.1207H44.3038V17.8771V14.8916H42.9909H41.6781V17.8771V20.8626H40.0443H38.4105V16.8626V12.8626H60.0292H81.6479V16.8626ZM86.9577 40.1668V67.471H85.3239H83.6901V40.1668V12.8626H85.3239H86.9577V40.1668ZM81.6479 26.8626V30.7756H79.9849H78.3219V27.7901V24.8046H77.0382H75.7545V27.7901V30.7756H74.9085H74.0624V27.7901V24.8046H72.7787H71.495V27.7901V30.7756H70.6489H69.8028V27.7901V24.8046H68.5191H67.2354V27.7901V30.7756H52.8229H38.4105V26.8626V22.9495H60.0292H81.6479V26.8626ZM81.6479 36.7176V40.6306H69.3652H57.0825V37.5581V34.4857H55.7696H54.4567V37.5581V40.6306H53.6398H52.8229V37.5581V34.4857H51.5101H50.1972V37.5581V40.6306H49.3803H48.5634V37.5581V34.4857H47.2505H45.9376V37.5581V40.6306H42.174H38.4105V36.7176V32.8045H60.0292H81.6479V36.7176ZM81.6479 46.5726V50.4856H79.9849H78.3219V47.3842V44.2827H77.0382H75.7545V47.3842V50.4856H74.9085H74.0624V47.3842V44.2827H72.7787H71.495V47.3842V50.4856H70.6489H69.8028V47.3842V44.2827H68.5191H67.2354V47.3842V50.4856H62.159H57.0825V47.3842V44.2827H55.7696H54.4567V47.3842V50.4856H53.6398H52.8229V47.3842V44.2827H51.5101H50.1972V47.3842V50.4856H44.3038H38.4105V46.5726V42.6596H60.0292H81.6479V46.5726ZM81.6479 56.4276V60.3406H71.9053H62.1627L62.0158 59.8624C60.8419 56.0409 60.2462 54.1312 60.22 54.1051C60.1715 54.057 57.7523 54.8077 57.7614 54.868C57.7658 54.8968 58.1399 56.1274 58.5929 57.6027C59.0459 59.078 59.4165 60.2975 59.4165 60.3128C59.4165 60.3281 58.8913 60.3406 58.2495 60.3406H57.0825V57.3262V54.3117H55.7696H54.4567V57.3262V60.3406H53.6398H52.8229V57.3262V54.3117H51.5101H50.1972V57.3262V60.3406H49.3803H48.5634V57.3262V54.3117H47.2505H45.9376V57.3262V60.3406H45.1207H44.3038V57.3262V54.3117H42.9909H41.6781V57.3262V60.3406H40.0443H38.4105V56.4276V52.5146H60.0292H81.6479V56.4276ZM81.6479 64.0218V65.6739H60.0292H38.4105V64.0218V62.3696H60.0292H81.6479V64.0218Z" stroke="#FAFAFA" stroke-width="10" mask="url(#path-1-outside-1_152_638)"/>
<g filter="url(#filter0_d_152_638)">
<path d="M27.8835 33.271C31.1775 33.541 35.4435 35.296 36.9825 40.831C37.2525 41.56 36.7935 42.316 35.9835 42.451C35.2275 42.586 34.4985 42.1 34.2285 41.371C32.9325 37.186 29.7735 36.241 27.7485 36.106C27.5325 36.106 27.3435 36.241 27.3435 36.457C26.9385 40.426 25.7775 44.071 23.0235 44.8C21.4575 45.205 20.1075 45.151 19.1085 44.53C18.2175 43.99 17.6775 43.045 17.4075 41.83C17.3535 41.56 17.3535 41.29 17.3535 40.885C17.3535 38.617 18.7575 35.161 24.2925 33.676C24.5085 33.622 24.6435 33.406 24.6435 33.217V31.381H21.1875C20.3775 31.381 19.7835 30.787 19.7835 29.977C19.7835 29.167 20.3775 28.546 21.1875 28.546H24.5085C24.5085 28.087 24.4275 27.601 24.3735 27.142C24.2925 26.332 24.9135 25.657 25.6425 25.522C26.4525 25.441 27.1275 25.981 27.2085 26.791C27.2625 27.277 27.3435 27.871 27.3435 28.546H28.7475C29.5575 28.546 30.1785 29.167 30.1785 29.977C30.1785 30.787 29.5575 31.381 28.7475 31.381H27.4785C27.5325 31.786 27.5325 32.191 27.5325 32.596V32.866C27.5325 33.082 27.6675 33.271 27.8835 33.271ZM22.2675 42.046C23.3475 41.776 24.1035 39.751 24.4275 36.916C24.4275 36.781 24.2385 36.646 24.1035 36.646C20.5125 37.942 20.1885 40.156 20.1885 40.966V41.29C20.3235 41.695 20.4585 41.965 20.5935 42.1C20.9175 42.316 21.5385 42.235 22.2675 42.046ZM36.7125 30.166C37.4685 30.301 38.0085 31.057 37.8735 31.786C37.7385 32.542 36.9825 33.082 36.2535 32.947L34.8225 32.677C34.0125 32.542 33.5535 31.786 33.6885 31.057C33.8235 30.301 34.5525 29.761 35.3085 29.896L36.7125 30.166ZM55.7475 43.045C56.5035 43.261 56.9625 43.99 56.8275 44.8C56.6925 45.556 55.8825 46.015 55.1535 45.826C51.9135 44.935 49.4835 43.126 47.9175 40.507C47.3775 39.616 46.9725 38.752 46.6485 37.807H43.5435C42.7335 37.807 42.1125 37.186 42.1125 36.376C42.1125 35.647 42.7335 34.972 43.5435 34.972H45.9735C45.8385 33.757 45.7575 32.542 45.7575 31.381H43.5435C42.7335 31.381 42.1125 30.706 42.1125 29.977C42.1125 29.167 42.7335 28.546 43.5435 28.546H45.9735C46.1625 27.466 46.2975 26.521 46.5135 25.846C46.6485 25.117 47.3775 24.577 48.1875 24.712C48.8625 24.847 49.4025 25.522 49.2135 26.251C49.0785 26.872 48.9435 27.601 48.8085 28.546H51.2925C52.0485 28.546 52.7235 29.167 52.7235 29.977C52.7235 30.706 52.0485 31.381 51.2925 31.381H48.5925C48.5925 32.542 48.6735 33.757 48.8625 34.972H53.7225C54.5325 34.972 55.1535 35.647 55.1535 36.376C55.1535 37.186 54.5325 37.807 53.7225 37.807H49.6725C49.8885 38.266 50.0775 38.671 50.3475 39.022C51.5085 40.966 53.3175 42.316 55.7475 43.045ZM64.4685 28.492C64.4685 31.111 64.6575 36.862 66.6285 40.426C67.0335 41.155 66.8175 42.046 66.2235 42.505C65.6025 43.045 64.6575 42.856 64.2525 42.181C61.7685 37.861 61.5525 31.246 61.5525 28.276C61.6335 27.466 62.3085 26.872 63.0375 26.926C63.8475 27.007 64.5225 27.682 64.4685 28.492ZM78.6975 31.516C79.5075 31.516 80.1285 32.191 80.1285 33.001V38.131C80.1285 38.941 79.4535 39.616 78.6435 39.562C77.8335 39.562 77.2125 38.941 77.2125 38.131V33.001C77.2125 32.191 77.8875 31.516 78.6975 31.516ZM95.5185 27.817C95.4375 28.087 92.8725 35.026 98.2185 43.261C98.6775 43.936 98.4885 44.8 97.8675 45.286C97.2735 45.745 96.3285 45.556 95.9235 44.881C92.8185 40.156 92.0085 35.701 92.0085 32.461C92.0085 31.111 92.1435 29.977 92.2785 29.086C92.3325 28.897 92.1975 28.681 92.0085 28.681H84.7185C83.9625 28.681 83.2875 28.087 83.2875 27.277C83.2875 26.521 83.9625 25.846 84.7185 25.846H94.3575C95.3025 25.846 95.9235 26.791 95.5725 27.682L95.5185 27.817ZM99.4875 29.842L99.6225 30.652C99.7575 31.246 99.4335 31.867 98.8125 32.002C98.2185 32.137 97.5975 31.786 97.4085 31.192L97.2735 30.382C97.0575 29.761 97.4625 29.167 98.0835 28.951C98.6775 28.816 99.2985 29.221 99.4875 29.842ZM102.998 30.571C103.214 31.111 102.944 31.786 102.404 32.056C101.783 32.326 101.108 32.056 100.919 31.462L100.568 30.706C100.298 30.112 100.568 29.437 101.189 29.221C101.729 28.951 102.404 29.221 102.674 29.842L102.998 30.571Z" fill="#24110A"/>
<path d="M27.8835 33.271L28.1286 30.281L28.0062 30.271H27.8835V33.271ZM36.9825 40.831L34.0921 41.6347L34.1257 41.7554L34.1693 41.8729L36.9825 40.831ZM35.9835 42.451L35.4903 39.4918L35.4732 39.4947L35.4561 39.4977L35.9835 42.451ZM34.2285 41.371L31.3628 42.2585L31.3869 42.3364L31.4153 42.4129L34.2285 41.371ZM27.7485 36.106L27.9481 33.1126L27.8484 33.106H27.7485V36.106ZM27.3435 36.457L30.328 36.7615L30.3435 36.6097V36.457H27.3435ZM23.0235 44.8L23.7746 47.7044L23.7829 47.7023L23.7912 47.7001L23.0235 44.8ZM19.1085 44.53L20.6923 41.9821L20.6779 41.9732L20.6634 41.9644L19.1085 44.53ZM17.4075 41.83L14.4658 42.4183L14.472 42.4496L14.4789 42.4808L17.4075 41.83ZM24.2925 33.676L23.5649 30.7656L23.54 30.7718L23.5151 30.7785L24.2925 33.676ZM24.6435 31.381H27.6435V28.381H24.6435V31.381ZM24.5085 28.546V31.546H27.5085V28.546H24.5085ZM24.3735 27.142L21.3884 27.4405L21.391 27.4665L21.394 27.4925L24.3735 27.142ZM25.6425 25.522L25.344 22.5369L25.2194 22.5493L25.0962 22.5722L25.6425 25.522ZM27.2085 26.791L24.2234 27.0895L24.225 27.1059L24.2268 27.1223L27.2085 26.791ZM27.3435 28.546H24.3435V31.546H27.3435V28.546ZM27.4785 31.381V28.381H24.052L24.5048 31.7775L27.4785 31.381ZM22.2675 42.046L21.5399 39.1356L21.5272 39.1387L21.5146 39.142L22.2675 42.046ZM24.4275 36.916L27.4081 37.2566L27.4275 37.0869V36.916H24.4275ZM24.1035 36.646V33.646H23.5787L23.0851 33.8242L24.1035 36.646ZM20.1885 41.29H17.1885V41.7768L17.3424 42.2387L20.1885 41.29ZM20.5935 42.1L18.4722 44.2213L18.6822 44.4314L18.9294 44.5961L20.5935 42.1ZM36.7125 30.166L36.146 33.112L36.1655 33.1158L36.1851 33.1193L36.7125 30.166ZM37.8735 31.786L34.9237 31.2397L34.9219 31.2492L34.9202 31.2586L37.8735 31.786ZM36.2535 32.947L35.6973 35.895L35.7072 35.8968L36.2535 32.947ZM34.8225 32.677L35.3787 29.729L35.3473 29.7231L35.3157 29.7178L34.8225 32.677ZM33.6885 31.057L36.6383 31.6033L36.6401 31.5938L36.6418 31.5844L33.6885 31.057ZM35.3085 29.896L35.875 26.95L35.8555 26.9462L35.8359 26.9427L35.3085 29.896ZM27.6384 36.261C30.1012 36.4628 32.9906 37.6728 34.0921 41.6347L39.8729 40.0273C37.8964 32.9192 32.2538 30.6192 28.1286 30.281L27.6384 36.261ZM34.1693 41.8729C33.9801 41.3623 34.0381 40.772 34.331 40.2947C34.6198 39.8242 35.0706 39.5618 35.4903 39.4918L36.4767 45.4102C38.9887 44.9915 40.7737 42.4295 39.7957 39.7891L34.1693 41.8729ZM35.4561 39.4977C36.3435 39.3393 36.8869 39.9111 37.0417 40.3291L31.4153 42.4129C32.1101 44.2889 34.1115 45.8327 36.5109 45.4043L35.4561 39.4977ZM37.0942 40.4835C36.2443 37.739 34.7033 35.8682 32.8866 34.6978C31.1283 33.565 29.2936 33.2023 27.9481 33.1126L27.5489 39.0994C28.2284 39.1446 28.9857 39.322 29.6371 39.7417C30.2302 40.1238 30.9167 40.818 31.3628 42.2585L37.0942 40.4835ZM27.7485 33.106C26.4666 33.106 24.3435 34.0493 24.3435 36.457H30.3435C30.3435 37.3066 29.9409 38.051 29.3647 38.5224C28.8356 38.9553 28.2407 39.106 27.7485 39.106V33.106ZM24.359 36.1525C24.1713 37.9915 23.8256 39.5253 23.336 40.5961C22.8457 41.6684 22.4212 41.8561 22.2558 41.8999L23.7912 47.7001C26.3798 47.0149 27.9128 45.0156 28.7927 43.0909C29.6734 41.1647 30.1107 38.8915 30.328 36.7615L24.359 36.1525ZM22.2724 41.8956C21.0818 42.2035 20.697 41.9851 20.6923 41.9821L17.5247 47.0779C19.518 48.3169 21.8332 48.2065 23.7746 47.7044L22.2724 41.8956ZM20.6634 41.9644C20.66 41.9623 20.6551 41.9592 20.6457 41.9496C20.6355 41.9392 20.6124 41.9133 20.5807 41.8619C20.5142 41.7536 20.4169 41.5429 20.3361 41.1792L14.4789 42.4808C14.8539 44.1682 15.7206 45.9847 17.5536 47.0956L20.6634 41.9644ZM20.3492 41.2417C20.3611 41.3011 20.3596 41.3269 20.3573 41.2749C20.356 41.2464 20.3549 41.2038 20.3542 41.1363C20.3535 41.0672 20.3535 40.9898 20.3535 40.885H14.3535C14.3535 41.2097 14.342 41.7994 14.4658 42.4183L20.3492 41.2417ZM20.3535 40.885C20.3535 40.354 20.5197 39.5902 21.1103 38.8353C21.6867 38.0985 22.8193 37.1774 25.0699 36.5735L23.5151 30.7785C20.2307 31.6596 17.8938 33.209 16.3845 35.1384C14.8893 37.0498 14.3535 39.148 14.3535 40.885H20.3535ZM25.0201 36.5864C26.7582 36.1519 27.6435 34.5804 27.6435 33.217H21.6435C21.6435 32.6313 21.8386 32.1273 22.1144 31.7442C22.4028 31.3436 22.8841 30.9358 23.5649 30.7656L25.0201 36.5864ZM27.6435 33.217V31.381H21.6435V33.217H27.6435ZM24.6435 28.381H21.1875V34.381H24.6435V28.381ZM21.1875 28.381C21.536 28.381 21.9611 28.5195 22.3031 28.8614C22.645 29.2034 22.7835 29.6285 22.7835 29.977H16.7835C16.7835 32.4439 18.7206 34.381 21.1875 34.381V28.381ZM22.7835 29.977C22.7835 30.3186 22.6509 30.7223 22.3312 31.0506C22.0056 31.385 21.5767 31.546 21.1875 31.546V25.546C18.6457 25.546 16.7835 27.5861 16.7835 29.977H22.7835ZM21.1875 31.546H24.5085V25.546H21.1875V31.546ZM27.5085 28.546C27.5085 27.8529 27.3826 27.0436 27.353 26.7915L21.394 27.4925C21.4724 28.1584 21.5085 28.3211 21.5085 28.546H27.5085ZM27.3586 26.8435C27.4058 27.3149 27.2372 27.7223 27.02 27.986C26.8195 28.2295 26.5368 28.4074 26.1888 28.4718L25.0962 22.5722C23.0792 22.9457 21.1285 24.8414 21.3884 27.4405L27.3586 26.8435ZM25.941 28.5071C25.5904 28.5422 25.1707 28.4443 24.8145 28.1567C24.4551 27.8666 24.2608 27.4635 24.2234 27.0895L30.1936 26.4925C29.944 23.9968 27.7654 22.2947 25.344 22.5369L25.941 28.5071ZM24.2268 27.1223C24.29 27.6906 24.3435 28.0795 24.3435 28.546H30.3435C30.3435 27.6625 30.235 26.8634 30.1901 26.4597L24.2268 27.1223ZM27.3435 31.546H28.7475V25.546H27.3435V31.546ZM28.7475 31.546C28.3659 31.546 27.9579 31.3916 27.6454 31.0791C27.3329 30.7666 27.1785 30.3586 27.1785 29.977H33.1785C33.1785 27.5101 31.2144 25.546 28.7475 25.546V31.546ZM27.1785 29.977C27.1785 29.5878 27.3395 29.1589 27.6739 28.8333C28.0022 28.5136 28.4059 28.381 28.7475 28.381V34.381C31.1384 34.381 33.1785 32.5188 33.1785 29.977H27.1785ZM28.7475 28.381H27.4785V34.381H28.7475V28.381ZM24.5048 31.7775C24.5282 31.9526 24.5325 32.1587 24.5325 32.596H30.5325C30.5325 32.2233 30.5368 31.6194 30.4522 30.9845L24.5048 31.7775ZM24.5325 32.596V32.866H30.5325V32.596H24.5325ZM24.5325 32.866C24.5325 34.1479 25.4758 36.271 27.8835 36.271V30.271C28.7331 30.271 29.4775 30.6736 29.9489 31.2498C30.3818 31.7789 30.5325 32.3738 30.5325 32.866H24.5325ZM22.9951 44.9564C25.0449 44.444 25.9946 42.5922 26.4091 41.5751C26.9166 40.3299 27.2298 38.8166 27.4081 37.2566L21.4469 36.5754C21.3012 37.8504 21.0744 38.7671 20.8529 39.3107C20.7424 39.5818 20.6783 39.647 20.7148 39.6034C20.7531 39.5576 21.0115 39.2677 21.5399 39.1356L22.9951 44.9564ZM27.4275 36.916C27.4275 35.5028 26.5395 34.6634 26.1751 34.3757C25.7532 34.0427 25.0359 33.646 24.1035 33.646V39.646C23.3061 39.646 22.7508 39.3168 22.4572 39.085C22.2748 38.941 22.0503 38.7235 21.8538 38.4099C21.6592 38.0995 21.4275 37.5866 21.4275 36.916H27.4275ZM23.0851 33.8242C20.7818 34.6554 19.2266 35.9004 18.2826 37.3555C17.3529 38.7885 17.1885 40.159 17.1885 40.966H23.1885C23.1885 40.963 23.1861 40.8215 23.3161 40.621C23.4319 40.4426 23.8342 39.9326 25.1219 39.4678L23.0851 33.8242ZM17.1885 40.966V41.29H23.1885V40.966H17.1885ZM17.3424 42.2387C17.4858 42.6686 17.7966 43.5457 18.4722 44.2213L22.7148 39.9787C22.8527 40.1166 22.9408 40.238 22.9884 40.3093C23.0377 40.3833 23.065 40.4361 23.0743 40.4546C23.0903 40.4866 23.0739 40.4595 23.0345 40.3413L17.3424 42.2387ZM18.9294 44.5961C19.9178 45.2551 20.9681 45.2483 21.4548 45.2197C22.031 45.1858 22.5888 45.0619 23.0204 44.95L21.5146 39.142C21.3792 39.1771 21.2746 39.2004 21.1961 39.215C21.1148 39.2301 21.0875 39.2309 21.1025 39.2301C21.1112 39.2295 21.2222 39.2225 21.3982 39.2528C21.5742 39.2831 21.9 39.3655 22.2576 39.6038L18.9294 44.5961ZM36.1851 33.1193C35.7259 33.0373 35.3895 32.7814 35.1878 32.4996C34.9871 32.2193 34.8245 31.7752 34.9237 31.2397L40.8233 32.3323C41.2776 29.8791 39.5452 27.6244 37.2399 27.2127L36.1851 33.1193ZM34.9202 31.2586C35.0022 30.7994 35.2581 30.463 35.5399 30.2613C35.8202 30.0606 36.2643 29.898 36.7998 29.9972L35.7072 35.8968C38.1604 36.3511 40.4151 34.6187 40.8268 32.3134L34.9202 31.2586ZM36.8097 29.999L35.3787 29.729L34.2663 35.625L35.6973 35.895L36.8097 29.999ZM35.3157 29.7178C36.2759 29.8778 36.7872 30.7994 36.6383 31.6033L30.7387 30.5107C30.3198 32.7726 31.7491 35.2062 34.3293 35.6362L35.3157 29.7178ZM36.6418 31.5844C36.5036 32.358 35.7558 33.0233 34.7811 32.8493L35.8359 26.9427C33.3492 26.4987 31.1434 28.244 30.7352 30.5296L36.6418 31.5844ZM34.742 32.842L36.146 33.112L37.279 27.22L35.875 26.95L34.742 32.842ZM55.7475 43.045L54.8855 45.9185L54.9044 45.9242L54.9233 45.9296L55.7475 43.045ZM56.8275 44.8L59.7808 45.3274L59.7838 45.3103L59.7867 45.2932L56.8275 44.8ZM55.1535 45.826L54.358 48.7186L54.3793 48.7245L54.4006 48.73L55.1535 45.826ZM47.9175 40.507L50.4923 38.9674L50.4877 38.9597L50.4831 38.9521L47.9175 40.507ZM46.6485 37.807L49.4863 36.834L48.7914 34.807H46.6485V37.807ZM45.9735 34.972V37.972H49.3253L48.9552 34.6407L45.9735 34.972ZM45.7575 31.381H48.7575V28.381H45.7575V31.381ZM45.9735 28.546V31.546H48.4941L48.9286 29.0631L45.9735 28.546ZM46.5135 25.846L49.3708 26.7603L49.4287 26.5792L49.4633 26.3923L46.5135 25.846ZM48.1875 24.712L48.7758 21.7703L48.7284 21.7608L48.6807 21.7528L48.1875 24.712ZM49.2135 26.251L46.3095 25.4981L46.2946 25.5556L46.282 25.6137L49.2135 26.251ZM48.8085 28.546L45.8386 28.1217L45.3495 31.546H48.8085V28.546ZM48.5925 31.381V28.381H45.5925V31.381H48.5925ZM48.8625 34.972L45.8981 35.4331L46.2931 37.972H48.8625V34.972ZM49.6725 37.807V34.807H44.9452L46.958 39.0844L49.6725 37.807ZM50.3475 39.022L52.9231 37.4838L52.8328 37.3325L52.7254 37.1929L50.3475 39.022ZM54.9233 45.9296C54.5821 45.8321 54.2712 45.6022 54.0714 45.2798C53.8717 44.9574 53.819 44.6029 53.8683 44.3068L59.7867 45.2932C60.1646 43.026 58.8409 40.8088 56.5717 40.1604L54.9233 45.9296ZM53.8742 44.2726C53.9773 43.6954 54.3309 43.2975 54.6739 43.0924C55.0046 42.8947 55.441 42.8014 55.9064 42.922L54.4006 48.73C56.64 49.3106 59.3065 47.9832 59.7808 45.3274L53.8742 44.2726ZM55.949 42.9334C53.3919 42.2302 51.6297 40.8696 50.4923 38.9674L45.3427 42.0466C47.3373 45.3824 50.4351 47.6398 54.358 48.7186L55.949 42.9334ZM50.4831 38.9521C50.0512 38.2395 49.7387 37.5701 49.4863 36.834L43.8107 38.78C44.2063 39.9339 44.7038 40.9925 45.3519 42.0619L50.4831 38.9521ZM46.6485 34.807H43.5435V40.807H46.6485V34.807ZM43.5435 34.807C43.9251 34.807 44.3331 34.9614 44.6456 35.2739C44.9581 35.5864 45.1125 35.9944 45.1125 36.376H39.1125C39.1125 38.8429 41.0766 40.807 43.5435 40.807V34.807ZM45.1125 36.376C45.1125 37.2668 44.4272 37.972 43.5435 37.972V31.972C41.0398 31.972 39.1125 34.0272 39.1125 36.376H45.1125ZM43.5435 37.972H45.9735V31.972H43.5435V37.972ZM48.9552 34.6407C48.8294 33.5088 48.7575 32.4072 48.7575 31.381H42.7575C42.7575 32.6768 42.8476 34.0052 42.9918 35.3033L48.9552 34.6407ZM45.7575 28.381H43.5435V34.381H45.7575V28.381ZM43.5435 28.381C44.4272 28.381 45.1125 29.0862 45.1125 29.977H39.1125C39.1125 32.3258 41.0398 34.381 43.5435 34.381V28.381ZM45.1125 29.977C45.1125 30.3586 44.9581 30.7666 44.6456 31.0791C44.3331 31.3916 43.9251 31.546 43.5435 31.546V25.546C41.0766 25.546 39.1125 27.5101 39.1125 29.977H45.1125ZM43.5435 31.546H45.9735V25.546H43.5435V31.546ZM48.9286 29.0631C49.1516 27.7888 49.2372 27.1777 49.3708 26.7603L43.6562 24.9317C43.3578 25.8643 43.1734 27.1432 43.0184 28.0289L48.9286 29.0631ZM49.4633 26.3923C49.2976 27.2872 48.4823 27.8025 47.6943 27.6712L48.6807 21.7528C46.2727 21.3515 43.9994 22.9468 43.5637 25.2997L49.4633 26.3923ZM47.5992 27.6537C47.1642 27.5667 46.8103 27.3234 46.5753 26.9911C46.3189 26.6287 46.1584 26.0811 46.3095 25.4981L52.1175 27.0039C52.8182 24.301 50.814 22.1779 48.7758 21.7703L47.5992 27.6537ZM46.282 25.6137C46.1306 26.3101 45.9831 27.1104 45.8386 28.1217L51.7783 28.9703C51.9039 28.0916 52.0264 27.4339 52.145 26.8883L46.282 25.6137ZM48.8085 31.546H51.2925V25.546H48.8085V31.546ZM51.2925 31.546C50.4656 31.546 49.7235 30.8968 49.7235 29.977H55.7235C55.7235 27.4372 53.6314 25.546 51.2925 25.546V31.546ZM49.7235 29.977C49.7235 29.4163 49.9699 29.0287 50.1839 28.8174C50.4019 28.6022 50.7756 28.381 51.2925 28.381V34.381C53.6687 34.381 55.7235 32.3992 55.7235 29.977H49.7235ZM51.2925 28.381H48.5925V34.381H51.2925V28.381ZM45.5925 31.381C45.5925 32.6789 45.6829 34.0492 45.8981 35.4331L51.8268 34.5109C51.6641 33.4648 51.5925 32.4051 51.5925 31.381H45.5925ZM48.8625 37.972H53.7225V31.972H48.8625V37.972ZM53.7225 37.972C52.8388 37.972 52.1535 37.2668 52.1535 36.376H58.1535C58.1535 34.0272 56.2262 31.972 53.7225 31.972V37.972ZM52.1535 36.376C52.1535 35.9944 52.3079 35.5864 52.6204 35.2739C52.9329 34.9614 53.3409 34.807 53.7225 34.807V40.807C56.1894 40.807 58.1535 38.8429 58.1535 36.376H52.1535ZM53.7225 34.807H49.6725V40.807H53.7225V34.807ZM46.958 39.0844C47.1406 39.4724 47.464 40.1938 47.9696 40.8511L52.7254 37.1929C52.7233 37.1902 52.6959 37.1541 52.6368 37.0432C52.5712 36.9203 52.5037 36.7776 52.387 36.5296L46.958 39.0844ZM47.7719 40.5602C49.3631 43.2246 51.8281 45.0013 54.8855 45.9185L56.6095 40.1715C54.8069 39.6307 53.6539 38.7074 52.9231 37.4838L47.7719 40.5602ZM64.4685 28.492L61.4751 28.2924L61.4685 28.3921V28.492H64.4685ZM66.6285 40.426L64.0032 41.8779L64.006 41.8829L66.6285 40.426ZM66.2235 42.505L64.3892 40.1311L64.3205 40.1842L64.255 40.2412L66.2235 42.505ZM64.2525 42.181L61.6518 43.6764L61.6657 43.7006L61.68 43.7245L64.2525 42.181ZM61.5525 28.276L58.5674 27.9775L58.5525 28.1264V28.276H61.5525ZM63.0375 26.926L63.336 23.9409L63.2976 23.937L63.2591 23.9342L63.0375 26.926ZM78.6435 39.562L78.8431 36.5686L78.7434 36.562H78.6435V39.562ZM61.4685 28.492C61.4685 29.8632 61.5172 32.1031 61.8355 34.4996C62.1464 36.8407 62.7478 39.6078 64.0032 41.8779L69.2538 38.9741C68.5382 37.6802 68.0595 35.7898 67.7833 33.7096C67.5143 31.6849 67.4685 29.7398 67.4685 28.492H61.4685ZM64.006 41.8829C63.6827 41.3009 63.8233 40.5684 64.3892 40.1311L68.0578 44.8789C69.8117 43.5236 70.3843 41.0091 69.251 38.9691L64.006 41.8829ZM64.255 40.2412C65.1207 39.4884 66.3241 39.8027 66.825 40.6375L61.68 43.7245C62.9909 45.9093 66.0843 46.6016 68.192 44.7688L64.255 40.2412ZM66.8532 40.6856C65.8886 39.008 65.2837 36.7107 64.9412 34.3002C64.605 31.935 64.5525 29.6971 64.5525 28.276H58.5525C58.5525 29.8249 58.6079 32.3795 59.0008 35.1443C59.3873 37.8638 60.1324 41.034 61.6518 43.6764L66.8532 40.6856ZM64.5376 28.5745C64.4761 29.1897 63.8965 29.9978 62.8159 29.9178L63.2591 23.9342C60.7205 23.7462 58.7909 25.7423 58.5674 27.9775L64.5376 28.5745ZM62.739 29.9111C62.4156 29.8788 62.1186 29.7325 61.8909 29.4901C61.6508 29.2347 61.4406 28.811 61.4751 28.2924L67.4619 28.6916C67.6422 25.9857 65.4602 24.1533 63.336 23.9409L62.739 29.9111ZM78.6975 34.516C77.7075 34.516 77.1285 33.701 77.1285 33.001H83.1285C83.1285 30.681 81.3075 28.516 78.6975 28.516V34.516ZM77.1285 33.001V38.131H83.1285V33.001H77.1285ZM77.1285 38.131C77.1285 37.3275 77.8022 36.4993 78.8431 36.5686L78.4439 42.5554C81.1048 42.7327 83.1285 40.5545 83.1285 38.131H77.1285ZM78.6435 36.562C79.0251 36.562 79.4331 36.7164 79.7456 37.0289C80.0581 37.3414 80.2125 37.7494 80.2125 38.131H74.2125C74.2125 40.5979 76.1766 42.562 78.6435 42.562V36.562ZM80.2125 38.131V33.001H74.2125V38.131H80.2125ZM80.2125 33.001C80.2125 33.8479 79.5443 34.516 78.6975 34.516V28.516C76.2306 28.516 74.2125 30.5341 74.2125 33.001H80.2125ZM95.5185 27.817L92.7331 26.7028L92.6834 26.8269L92.645 26.9549L95.5185 27.817ZM98.2185 43.261L95.7022 44.8945L95.7197 44.9214L95.7377 44.9479L98.2185 43.261ZM97.8675 45.286L99.7018 47.6599L99.7092 47.6542L99.7164 47.6485L97.8675 45.286ZM95.9235 44.881L98.496 43.3375L98.4644 43.2848L98.4306 43.2335L95.9235 44.881ZM92.2785 29.086L89.3939 28.2618L89.3411 28.4466L89.3124 28.6366L92.2785 29.086ZM95.5725 27.682L98.3579 28.7962L98.3608 28.7889L98.3637 28.7816L95.5725 27.682ZM99.4875 29.842L102.447 29.3488L102.415 29.1557L102.358 28.9685L99.4875 29.842ZM99.6225 30.652L96.6633 31.1452L96.6777 31.2315L96.6971 31.3169L99.6225 30.652ZM98.8125 32.002L98.1752 29.0705L98.1614 29.0735L98.1476 29.0766L98.8125 32.002ZM97.4085 31.192L94.4493 31.6852L94.4846 31.897L94.5497 32.1016L97.4085 31.192ZM97.2735 30.382L100.233 29.8888L100.191 29.6373L100.107 29.3964L97.2735 30.382ZM98.0835 28.951L97.4186 26.0256L97.2557 26.0626L97.0979 26.1175L98.0835 28.951ZM102.998 30.571L105.783 29.4568L105.762 29.4043L105.739 29.3526L102.998 30.571ZM102.404 32.056L103.6 34.8072L103.673 34.7752L103.745 34.7393L102.404 32.056ZM100.919 31.462L103.777 30.5524L103.72 30.3712L103.64 30.1987L100.919 31.462ZM100.568 30.706L97.8364 31.9474L97.8414 31.9584L97.8465 31.9693L100.568 30.706ZM101.189 29.221L102.174 32.0545L102.357 31.9909L102.53 31.9043L101.189 29.221ZM102.674 29.842L99.9223 31.0382L99.9271 31.0493L99.9321 31.0604L102.674 29.842ZM92.645 26.9549C92.6577 26.9127 92.4195 27.5934 92.2161 28.5807C92.0121 29.571 91.8235 30.9317 91.8334 32.5702C91.8533 35.8704 92.6802 40.2393 95.7022 44.8945L100.735 41.6275C96.1463 34.5594 98.367 28.7625 98.392 28.679L92.645 26.9549ZM95.7377 44.9479C95.2179 44.1835 95.5275 43.3078 96.0186 42.9235L99.7164 47.6485C101.45 46.2922 102.137 43.6885 100.699 41.5741L95.7377 44.9479ZM96.0332 42.9121C96.5191 42.5367 97.0534 42.493 97.4288 42.5702C97.8089 42.6484 98.2256 42.8869 98.496 43.3375L93.351 46.4245C94.6286 48.5537 97.6083 49.2776 99.7018 47.6599L96.0332 42.9121ZM98.4306 43.2335C95.6865 39.0576 95.0085 35.1915 95.0085 32.461H89.0085C89.0085 36.2105 89.9505 41.2544 93.4164 46.5285L98.4306 43.2335ZM95.0085 32.461C95.0085 31.3137 95.1227 30.3402 95.2447 29.5354L89.3124 28.6366C89.1643 29.6138 89.0085 30.9083 89.0085 32.461H95.0085ZM95.1631 29.9102C95.4523 28.898 95.2247 27.9055 94.7475 27.1738C94.2654 26.4346 93.3221 25.681 92.0085 25.681V31.681C90.8839 31.681 90.1026 31.0354 89.7218 30.4514C89.3458 29.875 89.1587 29.085 89.3939 28.2618L95.1631 29.9102ZM92.0085 25.681H84.7185V31.681H92.0085V25.681ZM84.7185 25.681C85.4686 25.681 86.2875 26.2833 86.2875 27.277H80.2875C80.2875 29.8907 82.4564 31.681 84.7185 31.681V25.681ZM86.2875 27.277C86.2875 27.7961 86.0641 28.176 85.8408 28.3993C85.6175 28.6226 85.2376 28.846 84.7185 28.846V22.846C82.3056 22.846 80.2875 24.8641 80.2875 27.277H86.2875ZM84.7185 28.846H94.3575V22.846H84.7185V28.846ZM94.3575 28.846C93.086 28.846 92.3941 27.5652 92.7813 26.5824L98.3637 28.7816C99.4529 26.0168 97.519 22.846 94.3575 22.846V28.846ZM92.7871 26.5678L92.7331 26.7028L98.3039 28.9312L98.3579 28.7962L92.7871 26.5678ZM96.5283 30.3352L96.6633 31.1452L102.582 30.1588L102.447 29.3488L96.5283 30.3352ZM96.6971 31.3169C96.5198 30.5366 96.9246 29.3424 98.1752 29.0705L99.4498 34.9335C101.942 34.3916 102.995 31.9554 102.548 29.9871L96.6971 31.3169ZM98.1476 29.0766C99.0785 28.865 99.9853 29.3961 100.267 30.2824L94.5497 32.1016C95.2097 34.1759 97.3585 35.409 99.4774 34.9274L98.1476 29.0766ZM100.368 30.6988L100.233 29.8888L94.3143 30.8752L94.4493 31.6852L100.368 30.6988ZM100.107 29.3964C100.312 29.9866 100.209 30.6054 99.9371 31.0581C99.6916 31.4672 99.3535 31.6856 99.0691 31.7845L97.0979 26.1175C95.4125 26.7038 93.5206 28.7242 94.44 31.3676L100.107 29.3964ZM98.7484 31.8764C98.1683 32.0082 97.6582 31.8561 97.3202 31.6398C96.9859 31.4259 96.7353 31.1028 96.6175 30.7155L102.358 28.9685C101.781 27.0744 99.7723 25.4907 97.4186 26.0256L98.7484 31.8764ZM100.212 31.6852C99.9975 31.1486 100.059 30.649 100.199 30.3006C100.339 29.9503 100.617 29.595 101.062 29.3727L103.745 34.7393C105.596 33.8137 106.613 31.5314 105.783 29.4568L100.212 31.6852ZM101.207 29.3048C101.961 28.9772 103.346 29.1973 103.777 30.5524L98.0597 32.3716C98.8689 34.9147 101.604 35.6748 103.6 34.8072L101.207 29.3048ZM103.64 30.1987L103.289 29.4427L97.8465 31.9693L98.1975 32.7253L103.64 30.1987ZM103.299 29.4646C103.726 30.4046 103.296 31.6643 102.174 32.0545L100.203 26.3875C97.8393 27.2097 96.8691 29.8194 97.8364 31.9474L103.299 29.4646ZM102.53 31.9043C101.314 32.5123 100.237 31.7621 99.9223 31.0382L105.425 28.6458C104.57 26.6799 102.143 25.3897 99.8469 26.5377L102.53 31.9043ZM99.9321 31.0604L100.256 31.7894L105.739 29.3526L105.415 28.6236L99.9321 31.0604Z" fill="#FAFAFA"/>
</g>
<defs>
<filter id="filter0_d_152_638" x="14.3535" y="23.577" width="91.8604" height="27.438" filterUnits="userSpaceOnUse" color-interpolation-filters="sRGB">
<feFlood flood-opacity="0" result="BackgroundImageFix"/>
<feColorMatrix in="SourceAlpha" type="matrix" values="0 0 0 0 0 0 0 0 0 0 0 0 0 0 0 0 0 0 127 0" result="hardAlpha"/>
<feOffset dy="2"/>
<feGaussianBlur stdDeviation="1.5"/>
<feComposite in2="hardAlpha" operator="out"/>
<feColorMatrix type="matrix" values="0 0 0 0 0 0 0 0 0 0 0 0 0 0 0 0 0 0 0.19 0"/>
<feBlend mode="normal" in2="BackgroundImageFix" result="effect1_dropShadow_152_638"/>
<feBlend mode="normal" in="SourceGraphic" in2="effect1_dropShadow_152_638" result="shape"/>
</filter>
</defs>
</svg>
