<svg width="45" height="35" viewBox="0 0 45 35" fill="none" xmlns="http://www.w3.org/2000/svg">
<path d="M1 6.38123L8.0597 33.2612H36.9403L44 6.38123L30.5224 12.7812L22.8209 1.26123L15.1194 12.7812L1 6.38123Z" fill="#B2D1EE" stroke="white" stroke-width="2" stroke-linejoin="round"/>
<path d="M22.4189 28.5012C20.5949 28.5012 19.2269 27.7732 18.3149 26.3172C18.0589 25.9012 17.9949 25.5332 18.1229 25.2132C18.2509 24.8932 18.4989 24.6772 18.8669 24.5652C19.2669 24.4372 19.5949 24.4372 19.8509 24.5652C20.1069 24.6932 20.3869 24.9172 20.6909 25.2372C20.8669 25.4772 21.0909 25.6772 21.3629 25.8372C21.6509 25.9812 21.9869 26.0532 22.3709 26.0532C23.1869 26.0532 23.8349 25.8532 24.3149 25.4532C24.7949 25.0532 25.0349 24.3812 25.0349 23.4372C25.0349 22.5892 24.7949 21.9092 24.3149 21.3972C23.8349 20.8852 23.1469 20.6292 22.2509 20.6292C21.4509 20.6292 21.0509 20.2372 21.0509 19.4532C21.0509 18.6692 21.4509 18.2772 22.2509 18.2772C23.0509 18.2772 23.6429 18.0452 24.0269 17.5812C24.4109 17.1012 24.6029 16.5172 24.6029 15.8292C24.6029 15.0292 24.3709 14.4692 23.9069 14.1492C23.4589 13.8132 22.9469 13.6452 22.3709 13.6452C22.0509 13.6452 21.7629 13.7252 21.5069 13.8852C21.2669 14.0452 21.0589 14.2372 20.8829 14.4612C20.5789 14.7812 20.2909 15.0052 20.0189 15.1332C19.7629 15.2612 19.4429 15.2452 19.0589 15.0852C18.6909 14.9412 18.4509 14.7092 18.3389 14.3892C18.2269 14.0532 18.3149 13.6932 18.6029 13.3092C19.0669 12.6212 19.6269 12.1012 20.2829 11.7492C20.9549 11.3812 21.6669 11.1972 22.4189 11.1972C23.3949 11.1972 24.2429 11.3892 24.9629 11.7732C25.6989 12.1412 26.2669 12.6612 26.6669 13.3332C27.0829 14.0052 27.2909 14.7972 27.2909 15.7092C27.2909 16.5412 27.0669 17.2932 26.6189 17.9652C26.1869 18.6212 25.6349 19.1012 24.9629 19.4052C25.7629 19.7092 26.4109 20.2292 26.9069 20.9652C27.4189 21.7012 27.6749 22.5572 27.6749 23.5332C27.6749 25.0532 27.2109 26.2612 26.2829 27.1572C25.3709 28.0532 24.0829 28.5012 22.4189 28.5012Z" fill="#FAFAFA"/>
</svg>
