<svg width="45" height="35" viewBox="0 0 45 35" fill="none" xmlns="http://www.w3.org/2000/svg">
<path d="M1 6.38123L8.0597 33.2612H36.9403L44 6.38123L30.5224 12.7812L22.8209 1.26123L15.1194 12.7812L1 6.38123Z" fill="#E9C6A3" stroke="white" stroke-width="2" stroke-linejoin="round"/>
<path d="M19.6974 28.2612C18.7534 28.2612 18.2814 27.9972 18.2814 27.4692C18.2814 26.3172 18.5774 25.1972 19.1694 24.1092C19.7774 23.0212 20.7854 21.8052 22.1934 20.4612C22.6894 19.9812 23.1614 19.5012 23.6094 19.0212C24.0574 18.5252 24.4254 18.0452 24.7134 17.5812C25.0014 17.1012 25.1534 16.6452 25.1694 16.2132C25.1854 15.3812 24.9934 14.7652 24.5934 14.3652C24.2094 13.9652 23.6574 13.7652 22.9374 13.7652C21.9614 13.7652 21.3374 14.2612 21.0654 15.2532C20.9374 15.6852 20.7694 16.0212 20.5614 16.2612C20.3694 16.4852 20.0654 16.5972 19.6494 16.5972C19.2494 16.5972 18.9294 16.4612 18.6894 16.1892C18.4494 15.9172 18.3854 15.5492 18.4974 15.0852C18.7534 13.9012 19.2734 12.9812 20.0574 12.3252C20.8414 11.6532 21.8014 11.3172 22.9374 11.3172C23.8654 11.3172 24.6894 11.5092 25.4094 11.8932C26.1454 12.2772 26.7214 12.8372 27.1374 13.5732C27.5534 14.3092 27.7454 15.2132 27.7134 16.2852C27.6974 17.0372 27.5214 17.7332 27.1854 18.3732C26.8494 19.0132 26.4014 19.6372 25.8414 20.2452C25.2974 20.8372 24.6734 21.4692 23.9694 22.1412C23.2334 22.8612 22.5774 23.5492 22.0014 24.2052C21.4414 24.8612 21.1134 25.4292 21.0174 25.9092H26.0094C26.9534 25.9092 27.4254 26.3012 27.4254 27.0852C27.4254 27.8692 26.9534 28.2612 26.0094 28.2612H19.6974Z" fill="#FAFAFA"/>
</svg>
