<svg width="45" height="35" viewBox="0 0 45 35" fill="none" xmlns="http://www.w3.org/2000/svg">
<path d="M1 6.38123L8.0597 33.2612H36.9403L44 6.38123L30.5224 12.7812L22.8209 1.26123L15.1194 12.7812L1 6.38123Z" fill="#EFA6B7" stroke="white" stroke-width="2" stroke-linejoin="round"/>
<path d="M23.7298 28.2612C22.8658 28.2612 22.4338 27.7892 22.4338 26.8452V14.7252L20.7058 15.8532C19.9058 16.3972 19.2818 16.3012 18.8338 15.5652C18.3698 14.8292 18.5378 14.2132 19.3378 13.7172L22.2178 11.9172C22.5058 11.7412 22.7858 11.6212 23.0578 11.5572C23.3298 11.4772 23.6418 11.4372 23.9938 11.4372C24.6658 11.4372 25.0018 11.9092 25.0018 12.8532V26.8452C25.0018 27.7892 24.5778 28.2612 23.7298 28.2612Z" fill="#FAFAFA"/>
</svg>
