<svg width="110" height="57" viewBox="0 0 110 57" fill="none" xmlns="http://www.w3.org/2000/svg">
<g filter="url(#filter0_d_254_196)">
<path d="M33.8047 24.5122C37.378 21.3123 46.14 15.6476 50.9568 13.4355C59.8962 9.33027 81.3727 8.50488 87.8047 8.50488H100.669C101.86 8.50488 103.678 9.39925 104.957 10.7202C107.101 12.9356 106.386 15.1509 106.386 15.1509C106.386 15.1509 106.386 18.1047 102.098 19.5816C97.8101 21.0585 97.8101 19.5816 92.0927 19.5816C86.3753 19.5816 64.4785 19.8639 59.5328 20.82C51.1757 22.4356 49.5274 24.5122 39.5221 29.6813L33.8047 24.5122Z" fill="#F8E6EE"/>
<path d="M33.8047 32.4019C37.378 29.3704 46.14 24.0038 50.9568 21.9082C57.3888 19.1099 81.3727 17.2108 87.8047 17.2108H100.669C101.86 17.2108 103.678 18.0581 104.957 19.3095C107.101 21.4082 106.386 23.507 106.386 23.507C106.386 23.507 106.386 26.3053 102.098 27.7045C97.8101 29.1036 97.8101 27.7045 92.0927 27.7045C86.3753 27.7045 64.4785 27.9982 59.5328 28.904C51.1757 30.4346 49.5274 32.4019 39.5221 37.299L33.8047 32.4019Z" fill="#DCEEF7"/>
<path d="M33.8047 41.1078C37.378 38.0763 46.1399 32.7097 50.9568 30.6141C57.3888 27.8158 81.3727 25.9166 87.8047 25.9166H100.669C101.86 25.9166 103.678 26.7639 104.957 28.0154C107.101 30.1141 106.386 32.2129 106.386 32.2129C106.386 32.2129 106.386 35.0112 102.098 36.4103C97.8101 37.8095 97.8101 36.4103 92.0927 36.4103C86.3753 36.4103 64.4785 36.7041 59.5328 37.6099C51.1757 39.1405 49.5274 41.1078 39.5221 46.0049L33.8047 41.1078Z" fill="#FBFBE5"/>
<path d="M26.4095 9.12551C27.0214 7.31086 29.588 7.31086 30.1999 9.12551L34.0199 20.4549C34.2942 21.2683 35.0568 21.8159 35.9151 21.8159H48.1149C50.0703 21.8159 50.8638 24.3329 49.262 25.4543L39.5211 32.2741C38.794 32.7831 38.4894 33.7105 38.773 34.5515L42.5235 45.6746C43.1404 47.5042 41.063 49.0594 39.4813 47.952L29.4517 40.9301C28.763 40.4479 27.8463 40.4479 27.1576 40.9301L17.1281 47.952C15.5464 49.0594 13.4689 47.5042 14.0859 45.6746L17.8364 34.5515C18.1199 33.7105 17.8153 32.7831 17.0883 32.2741L7.34739 25.4543C5.74561 24.3329 6.53911 21.8159 8.49445 21.8159H20.6943C21.5526 21.8159 22.3152 21.2683 22.5895 20.4549L26.4095 9.12551Z" fill="#FEEFF1"/>
</g>
<defs>
<filter id="filter0_d_254_196" x="-2.19531" y="-0.495117" width="111.695" height="62" filterUnits="userSpaceOnUse" color-interpolation-filters="sRGB">
<feFlood flood-opacity="0" result="BackgroundImageFix"/>
<feColorMatrix in="SourceAlpha" type="matrix" values="0 0 0 0 0 0 0 0 0 0 0 0 0 0 0 0 0 0 127 0" result="hardAlpha"/>
<feOffset dy="2"/>
<feGaussianBlur stdDeviation="1.5"/>
<feComposite in2="hardAlpha" operator="out"/>
<feColorMatrix type="matrix" values="0 0 0 0 0 0 0 0 0 0 0 0 0 0 0 0 0 0 0.168 0"/>
<feBlend mode="normal" in2="BackgroundImageFix" result="effect1_dropShadow_254_196"/>
<feBlend mode="normal" in="SourceGraphic" in2="effect1_dropShadow_254_196" result="shape"/>
</filter>
</defs>
</svg>
