<svg width="120" height="67" viewBox="0 0 120 67" fill="none" xmlns="http://www.w3.org/2000/svg">
<mask id="path-1-outside-1_152_641" maskUnits="userSpaceOnUse" x="13" y="0.5" width="94" height="66" fill="black">
<rect fill="white" x="13" y="0.5" width="94" height="66"/>
<path fill-rule="evenodd" clip-rule="evenodd" d="M37.2312 6.5476C30.5892 7.05925 24.8383 8.92037 20.178 12.0664C19.4648 12.5479 19.2813 12.7103 19.1545 12.9722L19 13.2913L19.019 32.2257L19.0381 51.1601L20.7778 55.4021C21.7346 57.7353 22.5791 59.7664 22.6543 59.9157C22.8463 60.2968 23.2055 60.5 23.6873 60.5C24.0299 60.5 24.2013 60.4336 25.0923 59.9557C29.6439 57.5141 34.2357 56.2433 39.5347 55.9587C44.8168 55.6748 50.5368 56.8397 55.099 59.128L55.9055 59.5325H60.0007H64.0959L64.76 59.199C68.0404 57.5512 71.8343 56.4752 75.8124 56.0644C77.4201 55.8983 80.4467 55.8997 82.1372 56.0673C86.677 56.5171 91.0476 57.8375 94.8376 59.9042C95.8158 60.4376 95.9716 60.5 96.3258 60.4997C96.759 60.4994 97.1196 60.3299 97.3069 60.0384C97.3674 59.9444 98.223 57.8935 99.2085 55.481L101 51.0946L101 32.15C101 14.2621 100.992 13.1909 100.87 12.9469C100.634 12.4797 98.4931 11.1005 96.4238 10.0834C92.6397 8.22319 88.4143 7.08499 83.5138 6.60565C82.1756 6.47474 77.6343 6.47474 76.2961 6.60565C71.2996 7.09437 67.069 8.25274 63.1984 10.1921C62.1239 10.7304 61.1319 11.2944 60.4452 11.7574L60.0342 12.0344L59.2174 11.5225C55.0404 8.90467 50.0099 7.27782 44.1513 6.65023C42.8763 6.51366 38.5119 6.44892 37.2312 6.5476ZM43.7391 9.11148C49.4207 9.66332 54.4539 11.311 58.4179 13.9169L58.8072 14.1728L58.8086 31.2711C58.8093 40.6752 58.7891 48.3693 58.7638 48.3693C58.7385 48.3693 58.5292 48.2557 58.2988 48.1168C57.7222 47.7693 55.9471 46.889 55.0766 46.5189C52.5353 45.4383 49.5889 44.6005 46.6812 44.1317C38.0356 42.738 28.9188 44.1832 22.0701 48.0331L21.4561 48.3783L21.4749 31.2493L21.4936 14.1203L22.3121 13.6048C23.337 12.9592 25.2965 11.9652 26.5162 11.4721C30.1031 10.0221 33.6892 9.26636 38.3845 8.97098C39.2974 8.91352 42.591 9 43.7391 9.11148ZM83.5481 9.11148C89.0622 9.64702 93.8179 11.1712 97.873 13.7026L98.6189 14.1682V31.2688C98.6189 40.6741 98.6016 48.3693 98.5804 48.3693C98.5592 48.3693 98.2403 48.1993 97.8717 47.9914C94.4535 46.0643 90.1634 44.6592 85.7461 44.0202C83.7254 43.7278 82.5298 43.6527 79.905 43.6527C76.7305 43.6527 75.0765 43.7976 72.278 44.3211C68.6389 45.0019 64.762 46.3792 61.942 47.9933C61.5806 48.2001 61.2638 48.3693 61.238 48.3693C61.2121 48.3693 61.191 40.6741 61.191 31.2688V14.1682L61.9428 13.699C66.4697 10.873 71.6587 9.36295 78.1935 8.96971C79.1233 8.91382 82.408 9.00075 83.5481 9.11148ZM38.5325 16.223C35.5284 16.3715 32.3814 17.003 29.7638 17.9824C27.4425 18.8511 24.4307 20.5621 24.1011 21.1994C23.9443 21.5028 23.9554 22.0801 24.1243 22.3975C24.3918 22.9002 25.1854 23.1487 25.6829 22.8854C25.7934 22.8269 26.2173 22.5578 26.6249 22.2875C28.4492 21.0778 31.0301 19.9967 33.4723 19.4192C35.8111 18.8661 37.5781 18.6661 40.1332 18.6649C45.3477 18.6628 50.1366 19.9704 53.7501 22.3832C54.586 22.9413 54.6164 22.9545 55.0654 22.9545C55.4135 22.9545 55.5748 22.9173 55.7305 22.801C56.2509 22.4125 56.406 21.847 56.1507 21.2698C56.0315 21.0002 55.8829 20.8563 55.3424 20.4869C52.2128 18.3483 48.277 16.9448 43.896 16.4046C43.0605 16.3016 40.29 16.1331 39.8355 16.1577C39.7332 16.1632 39.1469 16.1926 38.5325 16.223ZM78.3052 16.2207C73.3593 16.4668 68.6191 17.9031 65.0975 20.2228C64.0691 20.9002 63.9143 21.0506 63.7991 21.4847C63.5873 22.2831 64.156 22.9917 65.0086 22.9917C65.2988 22.9917 65.4502 22.9215 66.1376 22.4684C69.6395 20.16 73.7753 18.902 78.5738 18.6855C84.2765 18.4282 89.6288 19.7676 93.6645 22.4618C94.3777 22.9381 94.418 22.9545 94.8682 22.9545C95.3968 22.9545 95.6524 22.8151 95.9003 22.3916C96.1021 22.047 96.0987 21.4289 95.8937 21.1516C95.3509 20.4179 92.246 18.6911 90.0499 17.9016C86.4448 16.6056 82.3498 16.0195 78.3052 16.2207ZM37.7893 25.3806C34.0841 25.6558 30.6146 26.571 27.5208 28.089C26.2034 28.7354 24.4246 29.8526 24.179 30.1879C24.0264 30.396 23.9388 30.9783 24.0144 31.2799C24.1377 31.7713 24.8403 32.2113 25.3491 32.1158C25.4883 32.0897 26.0172 31.8 26.5243 31.4721C29.4695 29.5675 32.8137 28.4299 36.9335 27.9309C38.2807 27.7678 41.5887 27.7453 42.9607 27.89C46.335 28.2458 49.601 29.1844 52.1131 30.5202C52.5018 30.727 53.2353 31.1676 53.7429 31.4995C54.5946 32.0564 54.6954 32.103 55.0481 32.103C55.7391 32.103 56.2762 31.5856 56.2786 30.9176C56.2809 30.2921 56.0161 30.0125 54.5542 29.0983C50.1077 26.3175 43.8515 24.9302 37.7893 25.3806ZM77.5326 25.3833C72.7556 25.7255 67.984 27.3067 64.594 29.6706C64.0133 30.0757 63.8562 30.2714 63.7625 30.7067C63.5888 31.5141 64.4625 32.3139 65.2619 32.079C65.3931 32.0404 65.8284 31.7919 66.2292 31.5266C68.6216 29.9432 71.5166 28.8161 74.6591 28.2447C81.6071 26.9814 88.807 28.2675 93.7971 31.6633C94.4336 32.0964 94.7535 32.1903 95.1911 32.0724C95.9641 31.8643 96.2993 30.9415 95.8628 30.2236C95.5065 29.6376 92.1059 27.7616 90.1004 27.0448C86.1607 25.6364 81.8866 25.0713 77.5326 25.3833ZM37.7148 34.4992C33.9759 34.8763 31.3326 35.5164 28.5604 36.7161C26.7511 37.4992 24.4973 38.8534 24.1482 39.3673C24.0014 39.5835 23.9778 39.6972 24.001 40.0746C24.0489 40.8544 24.5221 41.2741 25.2801 41.209C25.6017 41.1813 25.7816 41.0946 26.444 40.6478C29.1481 38.8239 32.5491 37.6339 36.6359 37.0814C37.8911 36.9118 42.0095 36.8876 43.2583 37.0427C47.6004 37.5815 51.1358 38.8166 54.0503 40.8129C54.5935 41.1849 54.69 41.2249 55.0456 41.2249C55.975 41.2249 56.5404 40.3216 56.1353 39.4844C55.998 39.2008 55.8413 39.0611 55.1403 38.5968C52.0236 36.5332 48.4696 35.2661 44.114 34.666C43.2089 34.5413 42.5266 34.5081 40.5052 34.4907C39.1342 34.4789 37.8785 34.4827 37.7148 34.4992ZM76.7845 34.5722C74.0496 34.843 71.2176 35.5324 68.818 36.5117C67.083 37.2197 64.4419 38.7313 64.0343 39.2497C63.5425 39.875 63.7493 40.8346 64.4379 41.1223C64.9819 41.3496 65.2545 41.2754 66.2567 40.6269C69.1269 38.7697 72.4425 37.6116 76.4077 37.0812C77.637 36.9168 81.8563 36.8923 83.0674 37.0427C87.274 37.5646 90.6151 38.7081 93.5669 40.6359C94.489 41.2382 94.4893 41.2383 94.918 41.2082C95.4442 41.1712 95.6925 41.0052 95.9299 40.5317C96.1504 40.092 96.1048 39.6321 95.8054 39.2757C95.5137 38.9284 94.0245 37.9792 92.7604 37.3346C89.7696 35.8099 86.2769 34.8475 82.5837 34.5307C81.3481 34.4247 78.0351 34.4484 76.7845 34.5722ZM41.5469 46.1354C45.4557 46.299 48.7343 46.8858 52.0279 48.011C54.2342 48.7648 56.4624 49.814 58.0472 50.8454L58.8099 51.3418V52.2723V53.2029L58.4193 52.9707C57.7275 52.5596 55.8238 51.6523 54.8376 51.2635C51.5103 49.9521 47.9669 49.1787 43.9397 48.8851C42.3665 48.7703 38.3323 48.8347 36.8591 48.9981C31.8607 49.5522 27.2569 50.8585 23.2902 52.8481C22.8869 53.0504 22.5466 53.2055 22.5341 53.1927C22.5216 53.1799 22.3771 52.8346 22.2131 52.4253C22.0491 52.016 21.864 51.5616 21.8019 51.4154L21.6889 51.1498L22.4467 50.6767C26.8123 47.9515 32.9148 46.278 39.0914 46.1121C39.4802 46.1017 39.8151 46.0869 39.8355 46.0793C39.856 46.0717 40.6261 46.0969 41.5469 46.1354ZM81.3783 46.1381C86.6421 46.3652 91.1242 47.424 95.266 49.4186C96.1917 49.8644 97.7684 50.7507 98.1948 51.0649C98.321 51.1579 98.305 51.2212 97.9172 52.1589C97.6909 52.7062 97.4931 53.1668 97.4776 53.1822C97.4621 53.1977 96.9341 52.9577 96.3042 52.6489C92.4613 50.7649 88.0762 49.5488 83.1418 48.9987C81.6712 48.8348 77.6396 48.77 76.0612 48.8849C72.0655 49.176 68.4495 49.9705 65.1347 51.2857C64.161 51.672 62.4493 52.4858 61.6561 52.9393L61.191 53.2053V52.2741V51.3428L61.8049 50.9497C66.2578 48.0979 72.0391 46.4007 78.1813 46.1421C78.9247 46.1108 79.5664 46.0807 79.6073 46.075C79.6482 46.0694 80.4452 46.0978 81.3783 46.1381ZM44.9698 51.3748C50.1956 51.9635 54.7321 53.449 58.196 55.7059L58.8099 56.1058V56.6285V57.151H57.7412H56.6726L55.7227 56.702C49.7927 53.8988 43.1441 52.8742 36.4382 53.7301C32.616 54.2179 28.5966 55.4376 25.1936 57.1423L24.3212 57.5793L23.8981 56.5447L23.4752 55.51L24.4363 55.0283C28.3968 53.0434 33.1532 51.7257 37.7148 51.3498C38.2469 51.306 38.8161 51.2571 38.9798 51.2412C39.694 51.1717 44.0249 51.2683 44.9698 51.3748ZM82.7325 51.3774C86.5967 51.8066 89.8415 52.5963 93.0754 53.8945C94.162 54.3308 96.1423 55.2575 96.4064 55.4535C96.5292 55.5446 96.5107 55.6169 96.1222 56.5604L95.7066 57.5697L94.949 57.1902C88.7559 54.0874 81.5333 52.84 74.6963 53.6925C71.033 54.1492 67.1198 55.2971 64.1572 56.7841L63.426 57.151H62.3085H61.191V56.6378V56.1245L61.9165 55.6541C62.8865 55.0251 64.8059 54.0455 66.034 53.5527C68.9396 52.3867 72.201 51.6255 75.4776 51.3484C75.9892 51.3051 76.5417 51.2568 76.7054 51.241C77.4317 51.1709 81.7543 51.2687 82.7325 51.3774Z"/>
</mask>
<path fill-rule="evenodd" clip-rule="evenodd" d="M37.2312 6.5476C30.5892 7.05925 24.8383 8.92037 20.178 12.0664C19.4648 12.5479 19.2813 12.7103 19.1545 12.9722L19 13.2913L19.019 32.2257L19.0381 51.1601L20.7778 55.4021C21.7346 57.7353 22.5791 59.7664 22.6543 59.9157C22.8463 60.2968 23.2055 60.5 23.6873 60.5C24.0299 60.5 24.2013 60.4336 25.0923 59.9557C29.6439 57.5141 34.2357 56.2433 39.5347 55.9587C44.8168 55.6748 50.5368 56.8397 55.099 59.128L55.9055 59.5325H60.0007H64.0959L64.76 59.199C68.0404 57.5512 71.8343 56.4752 75.8124 56.0644C77.4201 55.8983 80.4467 55.8997 82.1372 56.0673C86.677 56.5171 91.0476 57.8375 94.8376 59.9042C95.8158 60.4376 95.9716 60.5 96.3258 60.4997C96.759 60.4994 97.1196 60.3299 97.3069 60.0384C97.3674 59.9444 98.223 57.8935 99.2085 55.481L101 51.0946L101 32.15C101 14.2621 100.992 13.1909 100.87 12.9469C100.634 12.4797 98.4931 11.1005 96.4238 10.0834C92.6397 8.22319 88.4143 7.08499 83.5138 6.60565C82.1756 6.47474 77.6343 6.47474 76.2961 6.60565C71.2996 7.09437 67.069 8.25274 63.1984 10.1921C62.1239 10.7304 61.1319 11.2944 60.4452 11.7574L60.0342 12.0344L59.2174 11.5225C55.0404 8.90467 50.0099 7.27782 44.1513 6.65023C42.8763 6.51366 38.5119 6.44892 37.2312 6.5476ZM43.7391 9.11148C49.4207 9.66332 54.4539 11.311 58.4179 13.9169L58.8072 14.1728L58.8086 31.2711C58.8093 40.6752 58.7891 48.3693 58.7638 48.3693C58.7385 48.3693 58.5292 48.2557 58.2988 48.1168C57.7222 47.7693 55.9471 46.889 55.0766 46.5189C52.5353 45.4383 49.5889 44.6005 46.6812 44.1317C38.0356 42.738 28.9188 44.1832 22.0701 48.0331L21.4561 48.3783L21.4749 31.2493L21.4936 14.1203L22.3121 13.6048C23.337 12.9592 25.2965 11.9652 26.5162 11.4721C30.1031 10.0221 33.6892 9.26636 38.3845 8.97098C39.2974 8.91352 42.591 9 43.7391 9.11148ZM83.5481 9.11148C89.0622 9.64702 93.8179 11.1712 97.873 13.7026L98.6189 14.1682V31.2688C98.6189 40.6741 98.6016 48.3693 98.5804 48.3693C98.5592 48.3693 98.2403 48.1993 97.8717 47.9914C94.4535 46.0643 90.1634 44.6592 85.7461 44.0202C83.7254 43.7278 82.5298 43.6527 79.905 43.6527C76.7305 43.6527 75.0765 43.7976 72.278 44.3211C68.6389 45.0019 64.762 46.3792 61.942 47.9933C61.5806 48.2001 61.2638 48.3693 61.238 48.3693C61.2121 48.3693 61.191 40.6741 61.191 31.2688V14.1682L61.9428 13.699C66.4697 10.873 71.6587 9.36295 78.1935 8.96971C79.1233 8.91382 82.408 9.00075 83.5481 9.11148ZM38.5325 16.223C35.5284 16.3715 32.3814 17.003 29.7638 17.9824C27.4425 18.8511 24.4307 20.5621 24.1011 21.1994C23.9443 21.5028 23.9554 22.0801 24.1243 22.3975C24.3918 22.9002 25.1854 23.1487 25.6829 22.8854C25.7934 22.8269 26.2173 22.5578 26.6249 22.2875C28.4492 21.0778 31.0301 19.9967 33.4723 19.4192C35.8111 18.8661 37.5781 18.6661 40.1332 18.6649C45.3477 18.6628 50.1366 19.9704 53.7501 22.3832C54.586 22.9413 54.6164 22.9545 55.0654 22.9545C55.4135 22.9545 55.5748 22.9173 55.7305 22.801C56.2509 22.4125 56.406 21.847 56.1507 21.2698C56.0315 21.0002 55.8829 20.8563 55.3424 20.4869C52.2128 18.3483 48.277 16.9448 43.896 16.4046C43.0605 16.3016 40.29 16.1331 39.8355 16.1577C39.7332 16.1632 39.1469 16.1926 38.5325 16.223ZM78.3052 16.2207C73.3593 16.4668 68.6191 17.9031 65.0975 20.2228C64.0691 20.9002 63.9143 21.0506 63.7991 21.4847C63.5873 22.2831 64.156 22.9917 65.0086 22.9917C65.2988 22.9917 65.4502 22.9215 66.1376 22.4684C69.6395 20.16 73.7753 18.902 78.5738 18.6855C84.2765 18.4282 89.6288 19.7676 93.6645 22.4618C94.3777 22.9381 94.418 22.9545 94.8682 22.9545C95.3968 22.9545 95.6524 22.8151 95.9003 22.3916C96.1021 22.047 96.0987 21.4289 95.8937 21.1516C95.3509 20.4179 92.246 18.6911 90.0499 17.9016C86.4448 16.6056 82.3498 16.0195 78.3052 16.2207ZM37.7893 25.3806C34.0841 25.6558 30.6146 26.571 27.5208 28.089C26.2034 28.7354 24.4246 29.8526 24.179 30.1879C24.0264 30.396 23.9388 30.9783 24.0144 31.2799C24.1377 31.7713 24.8403 32.2113 25.3491 32.1158C25.4883 32.0897 26.0172 31.8 26.5243 31.4721C29.4695 29.5675 32.8137 28.4299 36.9335 27.9309C38.2807 27.7678 41.5887 27.7453 42.9607 27.89C46.335 28.2458 49.601 29.1844 52.1131 30.5202C52.5018 30.727 53.2353 31.1676 53.7429 31.4995C54.5946 32.0564 54.6954 32.103 55.0481 32.103C55.7391 32.103 56.2762 31.5856 56.2786 30.9176C56.2809 30.2921 56.0161 30.0125 54.5542 29.0983C50.1077 26.3175 43.8515 24.9302 37.7893 25.3806ZM77.5326 25.3833C72.7556 25.7255 67.984 27.3067 64.594 29.6706C64.0133 30.0757 63.8562 30.2714 63.7625 30.7067C63.5888 31.5141 64.4625 32.3139 65.2619 32.079C65.3931 32.0404 65.8284 31.7919 66.2292 31.5266C68.6216 29.9432 71.5166 28.8161 74.6591 28.2447C81.6071 26.9814 88.807 28.2675 93.7971 31.6633C94.4336 32.0964 94.7535 32.1903 95.1911 32.0724C95.9641 31.8643 96.2993 30.9415 95.8628 30.2236C95.5065 29.6376 92.1059 27.7616 90.1004 27.0448C86.1607 25.6364 81.8866 25.0713 77.5326 25.3833ZM37.7148 34.4992C33.9759 34.8763 31.3326 35.5164 28.5604 36.7161C26.7511 37.4992 24.4973 38.8534 24.1482 39.3673C24.0014 39.5835 23.9778 39.6972 24.001 40.0746C24.0489 40.8544 24.5221 41.2741 25.2801 41.209C25.6017 41.1813 25.7816 41.0946 26.444 40.6478C29.1481 38.8239 32.5491 37.6339 36.6359 37.0814C37.8911 36.9118 42.0095 36.8876 43.2583 37.0427C47.6004 37.5815 51.1358 38.8166 54.0503 40.8129C54.5935 41.1849 54.69 41.2249 55.0456 41.2249C55.975 41.2249 56.5404 40.3216 56.1353 39.4844C55.998 39.2008 55.8413 39.0611 55.1403 38.5968C52.0236 36.5332 48.4696 35.2661 44.114 34.666C43.2089 34.5413 42.5266 34.5081 40.5052 34.4907C39.1342 34.4789 37.8785 34.4827 37.7148 34.4992ZM76.7845 34.5722C74.0496 34.843 71.2176 35.5324 68.818 36.5117C67.083 37.2197 64.4419 38.7313 64.0343 39.2497C63.5425 39.875 63.7493 40.8346 64.4379 41.1223C64.9819 41.3496 65.2545 41.2754 66.2567 40.6269C69.1269 38.7697 72.4425 37.6116 76.4077 37.0812C77.637 36.9168 81.8563 36.8923 83.0674 37.0427C87.274 37.5646 90.6151 38.7081 93.5669 40.6359C94.489 41.2382 94.4893 41.2383 94.918 41.2082C95.4442 41.1712 95.6925 41.0052 95.9299 40.5317C96.1504 40.092 96.1048 39.6321 95.8054 39.2757C95.5137 38.9284 94.0245 37.9792 92.7604 37.3346C89.7696 35.8099 86.2769 34.8475 82.5837 34.5307C81.3481 34.4247 78.0351 34.4484 76.7845 34.5722ZM41.5469 46.1354C45.4557 46.299 48.7343 46.8858 52.0279 48.011C54.2342 48.7648 56.4624 49.814 58.0472 50.8454L58.8099 51.3418V52.2723V53.2029L58.4193 52.9707C57.7275 52.5596 55.8238 51.6523 54.8376 51.2635C51.5103 49.9521 47.9669 49.1787 43.9397 48.8851C42.3665 48.7703 38.3323 48.8347 36.8591 48.9981C31.8607 49.5522 27.2569 50.8585 23.2902 52.8481C22.8869 53.0504 22.5466 53.2055 22.5341 53.1927C22.5216 53.1799 22.3771 52.8346 22.2131 52.4253C22.0491 52.016 21.864 51.5616 21.8019 51.4154L21.6889 51.1498L22.4467 50.6767C26.8123 47.9515 32.9148 46.278 39.0914 46.1121C39.4802 46.1017 39.8151 46.0869 39.8355 46.0793C39.856 46.0717 40.6261 46.0969 41.5469 46.1354ZM81.3783 46.1381C86.6421 46.3652 91.1242 47.424 95.266 49.4186C96.1917 49.8644 97.7684 50.7507 98.1948 51.0649C98.321 51.1579 98.305 51.2212 97.9172 52.1589C97.6909 52.7062 97.4931 53.1668 97.4776 53.1822C97.4621 53.1977 96.9341 52.9577 96.3042 52.6489C92.4613 50.7649 88.0762 49.5488 83.1418 48.9987C81.6712 48.8348 77.6396 48.77 76.0612 48.8849C72.0655 49.176 68.4495 49.9705 65.1347 51.2857C64.161 51.672 62.4493 52.4858 61.6561 52.9393L61.191 53.2053V52.2741V51.3428L61.8049 50.9497C66.2578 48.0979 72.0391 46.4007 78.1813 46.1421C78.9247 46.1108 79.5664 46.0807 79.6073 46.075C79.6482 46.0694 80.4452 46.0978 81.3783 46.1381ZM44.9698 51.3748C50.1956 51.9635 54.7321 53.449 58.196 55.7059L58.8099 56.1058V56.6285V57.151H57.7412H56.6726L55.7227 56.702C49.7927 53.8988 43.1441 52.8742 36.4382 53.7301C32.616 54.2179 28.5966 55.4376 25.1936 57.1423L24.3212 57.5793L23.8981 56.5447L23.4752 55.51L24.4363 55.0283C28.3968 53.0434 33.1532 51.7257 37.7148 51.3498C38.2469 51.306 38.8161 51.2571 38.9798 51.2412C39.694 51.1717 44.0249 51.2683 44.9698 51.3748ZM82.7325 51.3774C86.5967 51.8066 89.8415 52.5963 93.0754 53.8945C94.162 54.3308 96.1423 55.2575 96.4064 55.4535C96.5292 55.5446 96.5107 55.6169 96.1222 56.5604L95.7066 57.5697L94.949 57.1902C88.7559 54.0874 81.5333 52.84 74.6963 53.6925C71.033 54.1492 67.1198 55.2971 64.1572 56.7841L63.426 57.151H62.3085H61.191V56.6378V56.1245L61.9165 55.6541C62.8865 55.0251 64.8059 54.0455 66.034 53.5527C68.9396 52.3867 72.201 51.6255 75.4776 51.3484C75.9892 51.3051 76.5417 51.2568 76.7054 51.241C77.4317 51.1709 81.7543 51.2687 82.7325 51.3774Z" fill="#7B6A66" fill-opacity="0.6"/>
<path fill-rule="evenodd" clip-rule="evenodd" d="M37.2312 6.5476C30.5892 7.05925 24.8383 8.92037 20.178 12.0664C19.4648 12.5479 19.2813 12.7103 19.1545 12.9722L19 13.2913L19.019 32.2257L19.0381 51.1601L20.7778 55.4021C21.7346 57.7353 22.5791 59.7664 22.6543 59.9157C22.8463 60.2968 23.2055 60.5 23.6873 60.5C24.0299 60.5 24.2013 60.4336 25.0923 59.9557C29.6439 57.5141 34.2357 56.2433 39.5347 55.9587C44.8168 55.6748 50.5368 56.8397 55.099 59.128L55.9055 59.5325H60.0007H64.0959L64.76 59.199C68.0404 57.5512 71.8343 56.4752 75.8124 56.0644C77.4201 55.8983 80.4467 55.8997 82.1372 56.0673C86.677 56.5171 91.0476 57.8375 94.8376 59.9042C95.8158 60.4376 95.9716 60.5 96.3258 60.4997C96.759 60.4994 97.1196 60.3299 97.3069 60.0384C97.3674 59.9444 98.223 57.8935 99.2085 55.481L101 51.0946L101 32.15C101 14.2621 100.992 13.1909 100.87 12.9469C100.634 12.4797 98.4931 11.1005 96.4238 10.0834C92.6397 8.22319 88.4143 7.08499 83.5138 6.60565C82.1756 6.47474 77.6343 6.47474 76.2961 6.60565C71.2996 7.09437 67.069 8.25274 63.1984 10.1921C62.1239 10.7304 61.1319 11.2944 60.4452 11.7574L60.0342 12.0344L59.2174 11.5225C55.0404 8.90467 50.0099 7.27782 44.1513 6.65023C42.8763 6.51366 38.5119 6.44892 37.2312 6.5476ZM43.7391 9.11148C49.4207 9.66332 54.4539 11.311 58.4179 13.9169L58.8072 14.1728L58.8086 31.2711C58.8093 40.6752 58.7891 48.3693 58.7638 48.3693C58.7385 48.3693 58.5292 48.2557 58.2988 48.1168C57.7222 47.7693 55.9471 46.889 55.0766 46.5189C52.5353 45.4383 49.5889 44.6005 46.6812 44.1317C38.0356 42.738 28.9188 44.1832 22.0701 48.0331L21.4561 48.3783L21.4749 31.2493L21.4936 14.1203L22.3121 13.6048C23.337 12.9592 25.2965 11.9652 26.5162 11.4721C30.1031 10.0221 33.6892 9.26636 38.3845 8.97098C39.2974 8.91352 42.591 9 43.7391 9.11148ZM83.5481 9.11148C89.0622 9.64702 93.8179 11.1712 97.873 13.7026L98.6189 14.1682V31.2688C98.6189 40.6741 98.6016 48.3693 98.5804 48.3693C98.5592 48.3693 98.2403 48.1993 97.8717 47.9914C94.4535 46.0643 90.1634 44.6592 85.7461 44.0202C83.7254 43.7278 82.5298 43.6527 79.905 43.6527C76.7305 43.6527 75.0765 43.7976 72.278 44.3211C68.6389 45.0019 64.762 46.3792 61.942 47.9933C61.5806 48.2001 61.2638 48.3693 61.238 48.3693C61.2121 48.3693 61.191 40.6741 61.191 31.2688V14.1682L61.9428 13.699C66.4697 10.873 71.6587 9.36295 78.1935 8.96971C79.1233 8.91382 82.408 9.00075 83.5481 9.11148ZM38.5325 16.223C35.5284 16.3715 32.3814 17.003 29.7638 17.9824C27.4425 18.8511 24.4307 20.5621 24.1011 21.1994C23.9443 21.5028 23.9554 22.0801 24.1243 22.3975C24.3918 22.9002 25.1854 23.1487 25.6829 22.8854C25.7934 22.8269 26.2173 22.5578 26.6249 22.2875C28.4492 21.0778 31.0301 19.9967 33.4723 19.4192C35.8111 18.8661 37.5781 18.6661 40.1332 18.6649C45.3477 18.6628 50.1366 19.9704 53.7501 22.3832C54.586 22.9413 54.6164 22.9545 55.0654 22.9545C55.4135 22.9545 55.5748 22.9173 55.7305 22.801C56.2509 22.4125 56.406 21.847 56.1507 21.2698C56.0315 21.0002 55.8829 20.8563 55.3424 20.4869C52.2128 18.3483 48.277 16.9448 43.896 16.4046C43.0605 16.3016 40.29 16.1331 39.8355 16.1577C39.7332 16.1632 39.1469 16.1926 38.5325 16.223ZM78.3052 16.2207C73.3593 16.4668 68.6191 17.9031 65.0975 20.2228C64.0691 20.9002 63.9143 21.0506 63.7991 21.4847C63.5873 22.2831 64.156 22.9917 65.0086 22.9917C65.2988 22.9917 65.4502 22.9215 66.1376 22.4684C69.6395 20.16 73.7753 18.902 78.5738 18.6855C84.2765 18.4282 89.6288 19.7676 93.6645 22.4618C94.3777 22.9381 94.418 22.9545 94.8682 22.9545C95.3968 22.9545 95.6524 22.8151 95.9003 22.3916C96.1021 22.047 96.0987 21.4289 95.8937 21.1516C95.3509 20.4179 92.246 18.6911 90.0499 17.9016C86.4448 16.6056 82.3498 16.0195 78.3052 16.2207ZM37.7893 25.3806C34.0841 25.6558 30.6146 26.571 27.5208 28.089C26.2034 28.7354 24.4246 29.8526 24.179 30.1879C24.0264 30.396 23.9388 30.9783 24.0144 31.2799C24.1377 31.7713 24.8403 32.2113 25.3491 32.1158C25.4883 32.0897 26.0172 31.8 26.5243 31.4721C29.4695 29.5675 32.8137 28.4299 36.9335 27.9309C38.2807 27.7678 41.5887 27.7453 42.9607 27.89C46.335 28.2458 49.601 29.1844 52.1131 30.5202C52.5018 30.727 53.2353 31.1676 53.7429 31.4995C54.5946 32.0564 54.6954 32.103 55.0481 32.103C55.7391 32.103 56.2762 31.5856 56.2786 30.9176C56.2809 30.2921 56.0161 30.0125 54.5542 29.0983C50.1077 26.3175 43.8515 24.9302 37.7893 25.3806ZM77.5326 25.3833C72.7556 25.7255 67.984 27.3067 64.594 29.6706C64.0133 30.0757 63.8562 30.2714 63.7625 30.7067C63.5888 31.5141 64.4625 32.3139 65.2619 32.079C65.3931 32.0404 65.8284 31.7919 66.2292 31.5266C68.6216 29.9432 71.5166 28.8161 74.6591 28.2447C81.6071 26.9814 88.807 28.2675 93.7971 31.6633C94.4336 32.0964 94.7535 32.1903 95.1911 32.0724C95.9641 31.8643 96.2993 30.9415 95.8628 30.2236C95.5065 29.6376 92.1059 27.7616 90.1004 27.0448C86.1607 25.6364 81.8866 25.0713 77.5326 25.3833ZM37.7148 34.4992C33.9759 34.8763 31.3326 35.5164 28.5604 36.7161C26.7511 37.4992 24.4973 38.8534 24.1482 39.3673C24.0014 39.5835 23.9778 39.6972 24.001 40.0746C24.0489 40.8544 24.5221 41.2741 25.2801 41.209C25.6017 41.1813 25.7816 41.0946 26.444 40.6478C29.1481 38.8239 32.5491 37.6339 36.6359 37.0814C37.8911 36.9118 42.0095 36.8876 43.2583 37.0427C47.6004 37.5815 51.1358 38.8166 54.0503 40.8129C54.5935 41.1849 54.69 41.2249 55.0456 41.2249C55.975 41.2249 56.5404 40.3216 56.1353 39.4844C55.998 39.2008 55.8413 39.0611 55.1403 38.5968C52.0236 36.5332 48.4696 35.2661 44.114 34.666C43.2089 34.5413 42.5266 34.5081 40.5052 34.4907C39.1342 34.4789 37.8785 34.4827 37.7148 34.4992ZM76.7845 34.5722C74.0496 34.843 71.2176 35.5324 68.818 36.5117C67.083 37.2197 64.4419 38.7313 64.0343 39.2497C63.5425 39.875 63.7493 40.8346 64.4379 41.1223C64.9819 41.3496 65.2545 41.2754 66.2567 40.6269C69.1269 38.7697 72.4425 37.6116 76.4077 37.0812C77.637 36.9168 81.8563 36.8923 83.0674 37.0427C87.274 37.5646 90.6151 38.7081 93.5669 40.6359C94.489 41.2382 94.4893 41.2383 94.918 41.2082C95.4442 41.1712 95.6925 41.0052 95.9299 40.5317C96.1504 40.092 96.1048 39.6321 95.8054 39.2757C95.5137 38.9284 94.0245 37.9792 92.7604 37.3346C89.7696 35.8099 86.2769 34.8475 82.5837 34.5307C81.3481 34.4247 78.0351 34.4484 76.7845 34.5722ZM41.5469 46.1354C45.4557 46.299 48.7343 46.8858 52.0279 48.011C54.2342 48.7648 56.4624 49.814 58.0472 50.8454L58.8099 51.3418V52.2723V53.2029L58.4193 52.9707C57.7275 52.5596 55.8238 51.6523 54.8376 51.2635C51.5103 49.9521 47.9669 49.1787 43.9397 48.8851C42.3665 48.7703 38.3323 48.8347 36.8591 48.9981C31.8607 49.5522 27.2569 50.8585 23.2902 52.8481C22.8869 53.0504 22.5466 53.2055 22.5341 53.1927C22.5216 53.1799 22.3771 52.8346 22.2131 52.4253C22.0491 52.016 21.864 51.5616 21.8019 51.4154L21.6889 51.1498L22.4467 50.6767C26.8123 47.9515 32.9148 46.278 39.0914 46.1121C39.4802 46.1017 39.8151 46.0869 39.8355 46.0793C39.856 46.0717 40.6261 46.0969 41.5469 46.1354ZM81.3783 46.1381C86.6421 46.3652 91.1242 47.424 95.266 49.4186C96.1917 49.8644 97.7684 50.7507 98.1948 51.0649C98.321 51.1579 98.305 51.2212 97.9172 52.1589C97.6909 52.7062 97.4931 53.1668 97.4776 53.1822C97.4621 53.1977 96.9341 52.9577 96.3042 52.6489C92.4613 50.7649 88.0762 49.5488 83.1418 48.9987C81.6712 48.8348 77.6396 48.77 76.0612 48.8849C72.0655 49.176 68.4495 49.9705 65.1347 51.2857C64.161 51.672 62.4493 52.4858 61.6561 52.9393L61.191 53.2053V52.2741V51.3428L61.8049 50.9497C66.2578 48.0979 72.0391 46.4007 78.1813 46.1421C78.9247 46.1108 79.5664 46.0807 79.6073 46.075C79.6482 46.0694 80.4452 46.0978 81.3783 46.1381ZM44.9698 51.3748C50.1956 51.9635 54.7321 53.449 58.196 55.7059L58.8099 56.1058V56.6285V57.151H57.7412H56.6726L55.7227 56.702C49.7927 53.8988 43.1441 52.8742 36.4382 53.7301C32.616 54.2179 28.5966 55.4376 25.1936 57.1423L24.3212 57.5793L23.8981 56.5447L23.4752 55.51L24.4363 55.0283C28.3968 53.0434 33.1532 51.7257 37.7148 51.3498C38.2469 51.306 38.8161 51.2571 38.9798 51.2412C39.694 51.1717 44.0249 51.2683 44.9698 51.3748ZM82.7325 51.3774C86.5967 51.8066 89.8415 52.5963 93.0754 53.8945C94.162 54.3308 96.1423 55.2575 96.4064 55.4535C96.5292 55.5446 96.5107 55.6169 96.1222 56.5604L95.7066 57.5697L94.949 57.1902C88.7559 54.0874 81.5333 52.84 74.6963 53.6925C71.033 54.1492 67.1198 55.2971 64.1572 56.7841L63.426 57.151H62.3085H61.191V56.6378V56.1245L61.9165 55.6541C62.8865 55.0251 64.8059 54.0455 66.034 53.5527C68.9396 52.3867 72.201 51.6255 75.4776 51.3484C75.9892 51.3051 76.5417 51.2568 76.7054 51.241C77.4317 51.1709 81.7543 51.2687 82.7325 51.3774Z" stroke="#FAFAFA" stroke-width="12" stroke-linejoin="round" mask="url(#path-1-outside-1_152_641)"/>
<g filter="url(#filter0_d_152_641)">
<path d="M58.9875 29.431C59.7435 29.701 60.0675 30.511 59.7435 31.267C59.3925 31.996 58.5825 32.347 57.8535 31.996C57.1785 31.726 56.5035 31.456 55.8285 31.267C55.5585 32.536 55.2885 33.967 55.0185 35.101C54.8025 35.83 53.9925 36.316 53.2635 36.046C52.5075 35.83 52.1025 35.02 52.3185 34.291C52.5885 33.157 52.8585 31.726 53.1285 30.376C51.6435 29.971 50.2125 29.647 48.9435 29.512C48.7275 29.431 48.5385 29.566 48.4575 29.836C47.9985 32.752 46.9725 35.506 45.0825 36.586C43.3275 37.666 41.3835 37.666 39.9525 36.64C38.8185 35.83 38.1435 34.426 38.1435 32.806C38.1435 32.401 38.1975 31.996 38.2785 31.591C38.6025 29.782 39.6825 28.297 41.3835 27.487C42.5985 26.812 44.0835 26.542 45.6225 26.461C45.8385 26.461 45.9735 26.272 46.0275 26.056C46.1085 25.111 46.1085 24.166 46.1085 23.302V22.897C46.1085 22.681 45.8925 22.492 45.7035 22.492H44.6235C43.8135 22.492 43.1925 21.871 43.1925 21.061C43.1925 20.251 43.8135 19.657 44.6235 19.657H46.9185C47.9985 19.657 48.8625 20.467 48.9435 21.547V23.572C48.9435 24.382 48.9435 25.246 48.8625 26.272C48.8625 26.461 48.9975 26.677 49.2135 26.677C50.6985 26.866 52.1835 27.217 53.5875 27.622C53.6685 27.271 53.6685 26.947 53.7225 26.596C53.8575 25.867 54.6135 25.327 55.3425 25.462C56.1525 25.516 56.6385 26.272 56.5575 27.001C56.5035 27.406 56.4225 27.946 56.2875 28.432C57.3135 28.756 58.2585 29.107 58.9875 29.431ZM45.5685 29.701C45.6225 29.512 45.4875 29.296 45.2985 29.296C44.2725 29.431 43.3275 29.647 42.6525 29.971C41.7885 30.457 41.2485 31.132 41.0325 32.212C40.9785 32.401 40.9785 32.671 40.9785 32.887C40.9785 33.562 41.1675 34.021 41.5725 34.372C42.1125 34.696 42.8685 34.642 43.6785 34.156C44.6235 33.616 45.2175 31.861 45.5685 29.701ZM78.5625 31.321V32.077C78.5625 34.237 77.4825 36.316 75.6735 37.72C73.0275 39.691 69.3825 39.88 65.6835 38.341C63.3075 37.315 61.7685 34.885 62.0925 32.617C62.3625 30.781 63.7935 29.512 65.8725 29.296C68.7885 28.972 71.0835 30.511 72.0825 33.292C72.3525 34.021 71.9475 34.831 71.1375 34.966C70.4085 35.101 69.6525 34.696 69.3285 33.967C68.8425 32.941 67.9785 31.861 66.2235 32.077C65.0085 32.212 64.9275 32.806 64.9275 33.022C64.7925 33.886 65.4675 35.155 66.8175 35.695C69.5175 36.91 72.1635 36.775 73.9725 35.425C75.1335 34.561 75.7275 33.346 75.7275 32.077V31.672C75.4035 28.837 72.7575 27.811 71.9475 27.622C71.0025 27.352 70.5435 26.326 70.8675 25.381C71.2185 24.436 71.6235 23.221 71.9475 22.411C72.0285 22.222 71.8935 22.006 71.6775 22.006C70.4625 21.952 68.9235 21.952 67.8435 21.871C67.0335 21.871 66.4125 21.196 66.4935 20.386C66.4935 19.657 67.1685 19.036 67.9785 19.036L74.1885 19.306C75.1335 19.306 75.8085 20.251 75.4575 21.142C74.9985 22.357 74.3775 23.977 74.0535 24.976C73.9725 25.192 74.0535 25.381 74.2425 25.462C75.9435 26.326 78.1575 28.027 78.5625 31.321Z" fill="#24110A"/>
<path d="M58.9875 29.431L57.7691 32.1724L57.8722 32.2183L57.9785 32.2562L58.9875 29.431ZM59.7435 31.267L62.4465 32.5684L62.475 32.5092L62.5009 32.4488L59.7435 31.267ZM57.8535 31.996L59.1549 29.293L59.0627 29.2486L58.9677 29.2106L57.8535 31.996ZM55.8285 31.267L56.6374 28.3781L53.5594 27.5163L52.8942 30.6427L55.8285 31.267ZM55.0185 35.101L57.8949 35.9533L57.918 35.8751L57.9369 35.7959L55.0185 35.101ZM53.2635 36.046L54.3054 33.2328L54.1979 33.1929L54.0877 33.1614L53.2635 36.046ZM52.3185 34.291L55.1949 35.1433L55.218 35.0651L55.2369 34.9859L52.3185 34.291ZM53.1285 30.376L56.0702 30.9643L56.6194 28.2185L53.9179 27.4817L53.1285 30.376ZM48.9435 29.512L47.8901 32.321L48.2471 32.4548L48.6261 32.4952L48.9435 29.512ZM48.4575 29.836L45.584 28.974L45.5256 29.1687L45.494 29.3695L48.4575 29.836ZM45.0825 36.586L43.5941 33.9813L43.5517 34.0055L43.5102 34.031L45.0825 36.586ZM39.9525 36.64L41.7006 34.2019L41.6962 34.1988L39.9525 36.64ZM38.2785 31.591L41.2202 32.1793L41.2262 32.1497L41.2315 32.1199L38.2785 31.591ZM41.3835 27.487L42.6733 30.1956L42.7582 30.1551L42.8404 30.1095L41.3835 27.487ZM45.6225 26.461V23.461H45.5436L45.4648 23.4651L45.6225 26.461ZM46.0275 26.056L48.9379 26.7836L48.9961 26.551L49.0165 26.3122L46.0275 26.056ZM48.9435 21.547H51.9435V21.4347L51.9351 21.3226L48.9435 21.547ZM48.8625 26.272L45.8718 26.0359L45.8625 26.1538V26.272H48.8625ZM49.2135 26.677L49.5923 23.701L49.4036 23.677H49.2135V26.677ZM53.5875 27.622L52.756 30.5045L55.7986 31.3821L56.5107 28.2966L53.5875 27.622ZM53.7225 26.596L50.7727 26.0497L50.7643 26.0947L50.7574 26.1398L53.7225 26.596ZM55.3425 25.462L54.7962 28.4118L54.9683 28.4437L55.1429 28.4554L55.3425 25.462ZM56.5575 27.001L59.5312 27.3975L59.5355 27.3649L59.5392 27.3323L56.5575 27.001ZM56.2875 28.432L53.3969 27.6291L52.6216 30.4204L55.3841 31.2927L56.2875 28.432ZM45.5685 29.701L42.6839 28.8768L42.6356 29.0461L42.6073 29.2198L45.5685 29.701ZM45.2985 29.296V26.296H45.102L44.9071 26.3216L45.2985 29.296ZM42.6525 29.971L41.3543 27.2664L41.2666 27.3086L41.1817 27.3563L42.6525 29.971ZM41.0325 32.212L43.9171 33.0362L43.9504 32.9194L43.9742 32.8003L41.0325 32.212ZM41.5725 34.372L39.6077 36.6391L39.8051 36.8101L40.029 36.9445L41.5725 34.372ZM43.6785 34.156L42.1901 31.5513L42.1624 31.5671L42.135 31.5835L43.6785 34.156ZM57.9785 32.2562C57.5562 32.1054 57.1814 31.7621 56.993 31.3004C56.8093 30.8504 56.848 30.4073 56.9861 30.0852L62.5009 32.4488C63.4507 30.2326 62.5116 27.504 59.9965 26.6058L57.9785 32.2562ZM57.0405 29.9656C57.1739 29.6885 57.4324 29.4085 57.8261 29.2511C58.2428 29.0844 58.7357 29.0911 59.1549 29.293L56.5521 34.699C58.9923 35.8739 61.4866 34.562 62.4465 32.5684L57.0405 29.9656ZM58.9677 29.2106C58.3219 28.9523 57.4951 28.6183 56.6374 28.3781L55.0196 34.1559C55.5119 34.2937 56.0351 34.4997 56.7393 34.7814L58.9677 29.2106ZM52.8942 30.6427C52.6001 32.0248 52.361 33.3104 52.1001 34.4061L57.9369 35.7959C58.216 34.6236 58.5169 33.0472 58.7628 31.8913L52.8942 30.6427ZM52.1421 34.2487C52.2697 33.8179 52.5491 33.5083 52.8718 33.3283C53.2106 33.1392 53.7393 33.0231 54.3054 33.2328L52.2216 38.8592C54.8191 39.8213 57.262 38.0892 57.8949 35.9533L52.1421 34.2487ZM54.0877 33.1614C55.0319 33.4312 55.4239 34.3703 55.1949 35.1433L49.4421 33.4387C48.7811 35.6697 49.9831 38.2288 52.4393 38.9306L54.0877 33.1614ZM55.2369 34.9859C55.5237 33.7815 55.8115 32.2579 56.0702 30.9643L50.1868 29.7877C49.9055 31.1941 49.6533 32.5325 49.4001 33.5961L55.2369 34.9859ZM53.9179 27.4817C52.3767 27.0614 50.7661 26.689 49.2609 26.5288L48.6261 32.4952C49.6589 32.605 50.9103 32.8806 52.3391 33.2703L53.9179 27.4817ZM49.9969 26.703C49.0127 26.3339 47.8848 26.4347 46.9629 27.0616C46.1444 27.6182 45.7565 28.3989 45.584 28.974L51.331 30.698C51.2395 31.0031 50.9866 31.5813 50.3368 32.0232C49.5837 32.5353 48.6583 32.6091 47.8901 32.321L49.9969 26.703ZM45.494 29.3695C45.2913 30.6569 44.9804 31.7836 44.5843 32.6389C44.1766 33.5194 43.795 33.8664 43.5941 33.9813L46.5709 39.1907C48.26 38.2256 49.3364 36.6556 50.0289 35.1601C50.7331 33.6394 51.1647 31.9311 51.421 30.3025L45.494 29.3695ZM43.5102 34.031C42.6037 34.5889 41.9876 34.4077 41.7006 34.2019L38.2044 39.0781C40.7794 40.9243 44.0513 40.7431 46.6548 39.141L43.5102 34.031ZM41.6962 34.1988C41.4656 34.0341 41.1435 33.6077 41.1435 32.806H35.1435C35.1435 35.2443 36.1714 37.6259 38.2088 39.0812L41.6962 34.1988ZM41.1435 32.806C41.1435 32.6625 41.163 32.4654 41.2202 32.1793L35.3368 31.0027C35.232 31.5266 35.1435 32.1395 35.1435 32.806H41.1435ZM41.2315 32.1199C41.3922 31.2226 41.8822 30.5723 42.6733 30.1956L40.0937 24.7784C37.4828 26.0217 35.8128 28.3414 35.3255 31.0621L41.2315 32.1199ZM42.8404 30.1095C43.4767 29.756 44.4338 29.5277 45.7802 29.4569L45.4648 23.4651C43.7333 23.5563 41.7203 23.868 39.9266 24.8645L42.8404 30.1095ZM45.6225 29.461C47.9803 29.461 48.7811 27.4109 48.9379 26.7836L43.1171 25.3284C43.173 25.1047 43.3104 24.7126 43.6659 24.3215C44.0706 23.8764 44.7518 23.461 45.6225 23.461V29.461ZM49.0165 26.3122C49.1102 25.2191 49.1085 24.1477 49.1085 23.302H43.1085C43.1085 24.1843 43.1068 25.0029 43.0385 25.7998L49.0165 26.3122ZM49.1085 23.302V22.897H43.1085V23.302H49.1085ZM49.1085 22.897C49.1085 21.7821 48.5686 20.9411 48.0505 20.4456C47.551 19.9678 46.7407 19.492 45.7035 19.492V25.492C44.8553 25.492 44.2475 25.1107 43.9032 24.7814C43.5405 24.4344 43.1085 23.7959 43.1085 22.897H49.1085ZM45.7035 19.492H44.6235V25.492H45.7035V19.492ZM44.6235 19.492C45.0051 19.492 45.4131 19.6464 45.7256 19.9589C46.0381 20.2714 46.1925 20.6794 46.1925 21.061H40.1925C40.1925 23.5279 42.1567 25.492 44.6235 25.492V19.492ZM46.1925 21.061C46.1925 21.4502 46.0315 21.8791 45.6971 22.2047C45.3688 22.5244 44.9651 22.657 44.6235 22.657V16.657C42.2326 16.657 40.1925 18.5192 40.1925 21.061H46.1925ZM44.6235 22.657H46.9185V16.657H44.6235V22.657ZM46.9185 22.657C46.6911 22.657 46.4467 22.5659 46.2572 22.3888C46.0687 22.2127 45.9678 21.9831 45.9519 21.7714L51.9351 21.3226C51.7382 18.697 49.5881 16.657 46.9185 16.657V22.657ZM45.9435 21.547V23.572H51.9435V21.547H45.9435ZM45.9435 23.572C45.9435 24.384 45.9425 25.1409 45.8718 26.0359L51.8532 26.5081C51.9445 25.3511 51.9435 24.38 51.9435 23.572H45.9435ZM45.8625 26.272C45.8625 27.0274 46.115 27.7816 46.5945 28.3943C47.1063 29.0482 48.0076 29.677 49.2135 29.677V23.677C50.2034 23.677 50.9292 24.1978 51.3195 24.6964C51.6775 25.1539 51.8625 25.7056 51.8625 26.272H45.8625ZM48.8347 29.653C50.1161 29.8161 51.4415 30.1253 52.756 30.5045L54.419 24.7395C52.9255 24.3087 51.2809 23.9159 49.5923 23.701L48.8347 29.653ZM56.5107 28.2966C56.5954 27.9296 56.6303 27.6071 56.6502 27.4075C56.6747 27.1633 56.6766 27.1241 56.6876 27.0522L50.7574 26.1398C50.7336 26.2947 50.7176 26.434 50.7061 26.5448C50.7004 26.6 50.6953 26.6524 50.6911 26.6956C50.6867 26.7421 50.6835 26.7759 50.68 26.8105C50.6662 26.9484 50.6606 26.9634 50.6643 26.9474L56.5107 28.2966ZM56.6723 27.1423C56.5814 27.6333 56.3071 27.9676 56.0376 28.1574C55.7662 28.3487 55.3298 28.5107 54.7962 28.4118L55.8888 22.5122C53.4671 22.0637 51.1975 23.7558 50.7727 26.0497L56.6723 27.1423ZM55.1429 28.4554C54.5972 28.419 54.1406 28.1245 53.874 27.7647C53.633 27.4396 53.5332 27.0535 53.5759 26.6697L59.5392 27.3323C59.7701 25.2534 58.3876 22.6583 55.5421 22.4686L55.1429 28.4554ZM53.5838 26.6045C53.5321 26.9923 53.4726 27.3569 53.3969 27.6291L59.1781 29.2349C59.3725 28.5351 59.4749 27.8197 59.5312 27.3975L53.5838 26.6045ZM55.3841 31.2927C56.3328 31.5923 57.1679 31.9052 57.7691 32.1724L60.2059 26.6896C59.3491 26.3088 58.2942 25.9196 57.1909 25.5713L55.3841 31.2927ZM48.4531 30.5252C48.7423 29.513 48.5147 28.5206 48.0375 27.7888C47.5554 27.0496 46.6121 26.296 45.2985 26.296V32.296C44.1739 32.296 43.3926 31.6504 43.0118 31.0664C42.6358 30.4899 42.4487 29.7 42.6839 28.8768L48.4531 30.5252ZM44.9071 26.3216C43.7776 26.4703 42.4591 26.7362 41.3543 27.2664L43.9507 32.6756C44.1959 32.5578 44.7674 32.3917 45.6899 32.2704L44.9071 26.3216ZM41.1817 27.3563C39.5929 28.25 38.4865 29.6449 38.0908 31.6237L43.9742 32.8003C43.9928 32.7075 44.0108 32.6608 44.017 32.6462C44.0223 32.6336 44.0209 32.64 44.0102 32.6544C43.9996 32.6686 43.9937 32.6724 44.0031 32.6645C44.0143 32.655 44.0494 32.6273 44.1233 32.5857L41.1817 27.3563ZM38.1479 31.3878C37.9531 32.0699 37.9785 32.8204 37.9785 32.887H43.9785C43.9785 32.8301 43.9785 32.7938 43.979 32.7601C43.9795 32.7278 43.9802 32.7132 43.9804 32.7105C43.9806 32.7066 43.9795 32.7309 43.9734 32.7752C43.9702 32.7985 43.965 32.8319 43.9566 32.8736C43.9484 32.9149 43.9359 32.9702 43.9171 33.0362L38.1479 31.3878ZM37.9785 32.887C37.9785 34.2223 38.4017 35.5939 39.6077 36.6391L43.5373 32.1049C43.67 32.2199 43.8146 32.4024 43.9064 32.6302C43.9881 32.833 43.9785 32.9504 43.9785 32.887H37.9785ZM40.029 36.9445C41.8653 38.0462 43.8671 37.5414 45.222 36.7285L42.135 31.5835C42.0304 31.6463 42.0658 31.5977 42.2425 31.581C42.4368 31.5627 42.7684 31.591 43.116 31.7995L40.029 36.9445ZM45.1669 36.7607C46.5427 35.9746 47.2496 34.6054 47.6317 33.6502C48.0564 32.5884 48.3366 31.3705 48.5297 30.1822L42.6073 29.2198C42.4494 30.1915 42.2571 30.9311 42.0608 31.4218C41.9645 31.6626 41.894 31.775 41.8743 31.8028C41.8521 31.8342 41.9412 31.6935 42.1901 31.5513L45.1669 36.7607ZM78.5625 31.321H81.5625V31.1373L81.5401 30.9549L78.5625 31.321ZM75.6735 37.72L77.4656 40.1259L77.4894 40.1082L77.5129 40.09L75.6735 37.72ZM65.6835 38.341L64.4942 41.0952L64.5126 41.1031L64.5311 41.1108L65.6835 38.341ZM62.0925 32.617L59.1244 32.1805L59.1227 32.1927L62.0925 32.617ZM65.8725 29.296L66.1825 32.2799L66.1932 32.2788L66.2038 32.2777L65.8725 29.296ZM72.0825 33.292L69.2591 34.3062L69.2641 34.3201L69.2693 34.3339L72.0825 33.292ZM71.1375 34.966L70.6443 32.0068L70.6177 32.0112L70.5912 32.0162L71.1375 34.966ZM69.3285 33.967L72.0699 32.7486L72.0552 32.7155L72.0397 32.6827L69.3285 33.967ZM66.2235 32.077L66.5548 35.0587L66.5724 35.0567L66.59 35.0545L66.2235 32.077ZM64.9275 33.022L67.8915 33.4851L67.9275 33.255V33.022H64.9275ZM66.8175 35.695L68.0486 32.9592L67.9907 32.9332L67.9317 32.9096L66.8175 35.695ZM73.9725 35.425L72.1815 33.0183L72.1782 33.0207L73.9725 35.425ZM75.7275 31.672H78.7275V31.5011L78.7081 31.3314L75.7275 31.672ZM71.9475 27.622L71.1233 30.5066L71.1941 30.5268L71.2658 30.5435L71.9475 27.622ZM70.8675 25.381L68.0552 24.3364L68.042 24.3721L68.0297 24.408L70.8675 25.381ZM71.9475 22.411L69.1901 21.2292L69.1757 21.2629L69.1621 21.2968L71.9475 22.411ZM71.6775 22.006L71.5443 25.003L71.6109 25.006H71.6775V22.006ZM67.8435 21.871L68.0679 18.8794L67.9558 18.871H67.8435V21.871ZM66.4935 20.386L69.4786 20.6845L69.4935 20.5356V20.386H66.4935ZM67.9785 19.036L68.1088 16.0388L68.0437 16.036H67.9785V19.036ZM74.1885 19.306L74.0582 22.3032L74.1233 22.306H74.1885V19.306ZM75.4575 21.142L72.6663 20.0424L72.6585 20.0621L72.6511 20.0818L75.4575 21.142ZM74.0535 24.976L76.8625 26.0294L76.8863 25.9659L76.9072 25.9015L74.0535 24.976ZM74.2425 25.462L75.6011 22.7873L75.514 22.743L75.4242 22.7046L74.2425 25.462ZM75.5625 31.321V32.077H81.5625V31.321H75.5625ZM75.5625 32.077C75.5625 33.2255 74.9805 34.4604 73.8341 35.35L77.5129 40.09C79.9846 38.1716 81.5625 35.2485 81.5625 32.077H75.5625ZM73.8814 35.3141C72.3056 36.4879 69.8432 36.8224 66.8359 35.5712L64.5311 41.1108C68.9218 42.9376 73.7494 42.8941 77.4656 40.1259L73.8814 35.3141ZM66.8728 35.5868C65.4962 34.9924 64.9648 33.7242 65.0623 33.0413L59.1227 32.1927C58.5722 36.0458 61.1188 39.6376 64.4942 41.0952L66.8728 35.5868ZM65.0606 33.0535C65.0948 32.821 65.1812 32.6935 65.2871 32.6002C65.4068 32.4947 65.6732 32.3329 66.1825 32.2799L65.5625 26.3121C62.3368 26.6472 59.6241 28.7827 59.1244 32.1805L65.0606 33.0535ZM66.2038 32.2777C67.0355 32.1852 67.6306 32.3646 68.06 32.644C68.5002 32.9305 68.9491 33.4431 69.2591 34.3062L74.9059 32.2778C74.2169 30.3599 73.0188 28.7125 71.3327 27.6152C69.6359 26.5109 67.6255 26.0828 65.5412 26.3143L66.2038 32.2777ZM69.2693 34.3339C69.106 33.8932 69.1312 33.3754 69.3791 32.9192C69.6409 32.4376 70.1165 32.0948 70.6443 32.0068L71.6307 37.9252C74.4679 37.4523 75.7589 34.5807 74.8958 32.2501L69.2693 34.3339ZM70.5912 32.0162C71.3065 31.8837 71.864 32.2852 72.0699 32.7486L66.5871 35.1854C67.441 37.1068 69.5106 38.3183 71.6838 37.9158L70.5912 32.0162ZM72.0397 32.6827C71.695 31.955 71.0972 30.9385 70.0493 30.1543C68.9111 29.3026 67.4753 28.9003 65.857 29.0995L66.59 35.0545C66.6437 35.0479 66.6696 35.0492 66.6719 35.0493C66.6735 35.0494 66.6574 35.0486 66.6282 35.041C66.5989 35.0334 66.5657 35.0215 66.5322 35.0051C66.499 34.9889 66.4729 34.972 66.4545 34.9582C66.4191 34.9317 66.4251 34.9266 66.462 34.9772C66.5002 35.0295 66.5535 35.1167 66.6173 35.2513L72.0397 32.6827ZM65.8922 29.0953C64.8432 29.2119 63.7148 29.5904 62.8842 30.5187C62.0334 31.4696 61.9275 32.5139 61.9275 33.022H67.9275C67.9275 33.3141 67.8621 33.9534 67.3556 34.5195C66.8692 35.0631 66.3888 35.0771 66.5548 35.0587L65.8922 29.0953ZM61.9635 32.5589C61.7531 33.905 62.1906 35.178 62.8011 36.1162C63.4458 37.107 64.4323 37.972 65.7033 38.4804L67.9317 32.9096C67.8527 32.878 67.8267 32.8385 67.8302 32.8438C67.8317 32.8462 67.8556 32.8824 67.8776 32.966C67.8978 33.0429 67.9324 33.2234 67.8915 33.4851L61.9635 32.5589ZM65.5864 38.4308C68.9768 39.9564 72.8468 40.0084 75.7668 37.8293L72.1782 33.0207C71.4802 33.5416 70.0582 33.8636 68.0486 32.9592L65.5864 38.4308ZM75.7635 37.8317C77.6493 36.4283 78.7275 34.3381 78.7275 32.077H72.7275C72.7275 32.3539 72.6177 32.6937 72.1815 33.0183L75.7635 37.8317ZM78.7275 32.077V31.672H72.7275V32.077H78.7275ZM78.7081 31.3314C78.4351 28.9426 77.1537 27.3072 75.8793 26.3006C74.6634 25.3401 73.3727 24.874 72.6292 24.7005L71.2658 30.5435C71.2655 30.5434 71.3952 30.577 71.5915 30.6663C71.781 30.7526 71.9817 30.8679 72.1602 31.0089C72.4923 31.2713 72.6959 31.5664 72.7469 32.0126L78.7081 31.3314ZM72.7717 24.7374C73.1832 24.855 73.4928 25.1519 73.6456 25.4762C73.7904 25.7836 73.7928 26.099 73.7053 26.354L68.0297 24.408C67.2269 26.7494 68.3026 29.7006 71.1233 30.5066L72.7717 24.7374ZM73.6798 26.4256C74.101 25.2916 74.4146 24.3211 74.7329 23.5252L69.1621 21.2968C68.8324 22.1209 68.3361 23.5804 68.0552 24.3364L73.6798 26.4256ZM74.7049 23.5928C75.6199 21.4579 74.0839 19.006 71.6775 19.006V25.006C69.7031 25.006 68.4371 22.986 69.1901 21.2292L74.7049 23.5928ZM71.8107 19.009C70.3318 18.9432 69.1359 18.9595 68.0679 18.8794L67.6191 24.8626C68.7111 24.9445 70.5932 24.9608 71.5443 25.003L71.8107 19.009ZM67.8435 18.871C68.7838 18.871 69.5767 19.7041 69.4786 20.6845L63.5084 20.0875C63.2483 22.6879 65.2832 24.871 67.8435 24.871V18.871ZM69.4935 20.386C69.4935 20.9743 69.2216 21.4099 68.9544 21.6537C68.686 21.8986 68.3409 22.036 67.9785 22.036V16.036C65.7761 16.036 63.4935 17.7475 63.4935 20.386H69.4935ZM67.8482 22.0332L74.0582 22.3032L74.3188 16.3088L68.1088 16.0388L67.8482 22.0332ZM74.1885 22.306C73.1057 22.306 72.2099 21.2009 72.6663 20.0424L78.2487 22.2416C79.4071 19.301 77.1613 16.306 74.1885 16.306V22.306ZM72.6511 20.0818C72.2106 21.2478 71.5524 22.9635 71.1998 24.0505L76.9072 25.9015C77.2026 24.9905 77.7864 23.4662 78.2639 22.2022L72.6511 20.0818ZM71.2445 23.9226C70.9851 24.6145 70.9069 25.4978 71.2613 26.3838C71.6199 27.2802 72.3108 27.898 73.0608 28.2194L75.4242 22.7046C75.9852 22.945 76.5411 23.4278 76.8322 24.1554C77.1191 24.8727 77.0409 25.5535 76.8625 26.0294L71.2445 23.9226ZM72.8839 28.1367C74.1415 28.7755 75.3523 29.7951 75.5849 31.6871L81.5401 30.9549C80.9627 26.2589 77.7456 23.8765 75.6011 22.7873L72.8839 28.1367Z" fill="#FAFAFA"/>
</g>
<defs>
<filter id="filter0_d_152_641" x="35.1436" y="18.036" width="46.4189" height="26.844" filterUnits="userSpaceOnUse" color-interpolation-filters="sRGB">
<feFlood flood-opacity="0" result="BackgroundImageFix"/>
<feColorMatrix in="SourceAlpha" type="matrix" values="0 0 0 0 0 0 0 0 0 0 0 0 0 0 0 0 0 0 127 0" result="hardAlpha"/>
<feOffset dy="2"/>
<feGaussianBlur stdDeviation="1.5"/>
<feComposite in2="hardAlpha" operator="out"/>
<feColorMatrix type="matrix" values="0 0 0 0 0 0 0 0 0 0 0 0 0 0 0 0 0 0 0.19 0"/>
<feBlend mode="normal" in2="BackgroundImageFix" result="effect1_dropShadow_152_641"/>
<feBlend mode="normal" in="SourceGraphic" in2="effect1_dropShadow_152_641" result="shape"/>
</filter>
</defs>
</svg>
