<svg width="133" height="133" viewBox="0 0 133 133" fill="none" xmlns="http://www.w3.org/2000/svg">
<g filter="url(#filter0_dd_152_645)">
<circle cx="66.5" cy="68.5" r="59.5" fill="#FFB9C1"/>
<circle cx="66.5" cy="68.5" r="62" stroke="#FAFAFA" stroke-width="5" stroke-linecap="round"/>
</g>
<path d="M51.5409 29.746C53.4849 29.962 55.3749 30.637 56.7249 32.122C58.7499 34.282 59.0199 37.792 57.5349 42.355C57.2649 43.111 56.4549 43.516 55.7259 43.246C55.0509 42.976 54.6459 42.166 54.9159 41.41C55.7259 38.737 56.1849 35.686 54.6459 34.012C53.8359 33.121 52.4859 32.662 51.0009 32.527C50.2449 35.767 49.3809 39.385 48.3549 42.625C48.0849 43.3 47.3559 43.705 46.6809 43.516C45.9249 43.246 45.5199 42.49 45.7899 41.761C46.6809 38.872 47.4909 35.497 48.1659 32.527C47.2209 32.581 46.2759 32.716 45.4659 32.932C44.7099 33.067 43.8999 32.581 43.7109 31.852C43.4949 31.096 43.9809 30.367 44.7099 30.151C45.7359 29.962 47.2209 29.692 48.8409 29.611C49.2459 27.532 49.5699 25.696 49.7859 24.616C49.9749 23.887 50.6499 23.347 51.4059 23.482C52.1349 23.617 52.6209 24.292 52.4859 25.021L51.5409 29.746ZM64.6359 32.581C65.1759 33.121 65.1759 34.012 64.5549 34.552C64.0149 35.092 63.1509 35.092 62.6109 34.471L59.8299 31.582C59.2899 30.961 59.2899 30.097 59.9109 29.557C60.4509 29.017 61.3149 29.071 61.8549 29.611L64.6359 32.581ZM77.3799 33.607C78.8109 35.416 81.5649 39.007 84.6159 41.815C85.2099 42.355 85.2099 43.3 84.7509 43.921C84.2109 44.515 83.2659 44.596 82.7259 44.056C79.0809 40.681 75.8409 36.361 74.6259 34.741C74.0049 33.796 74.0049 32.581 74.7609 31.717L81.2949 23.752C81.8349 23.131 82.7259 23.077 83.3199 23.617C83.9409 24.076 84.0759 25.021 83.5359 25.642L77.4609 32.986C77.3259 33.202 77.2449 33.391 77.3799 33.607Z" fill="#FAFAFA"/>
<path d="M51.5409 29.746L48.5992 29.1576L47.9574 32.3663L51.2096 32.7276L51.5409 29.746ZM56.7249 32.122L54.5051 34.14L54.5206 34.157L54.5363 34.1738L56.7249 32.122ZM57.5349 42.355L60.3601 43.364L60.3745 43.3239L60.3876 43.2834L57.5349 42.355ZM55.7259 43.246L54.6117 46.0314L54.6477 46.0458L54.684 46.0592L55.7259 43.246ZM54.9159 41.41L57.7411 42.419L57.7658 42.3501L57.787 42.28L54.9159 41.41ZM54.6459 34.012L52.4261 36.03L52.4317 36.0362L52.4374 36.0424L54.6459 34.012ZM51.0009 32.527L51.2725 29.5393L48.6726 29.303L48.0794 31.8453L51.0009 32.527ZM48.3549 42.625L51.1403 43.7392L51.1815 43.6363L51.2149 43.5307L48.3549 42.625ZM46.6809 43.516L45.6719 46.3412L45.7708 46.3766L45.872 46.4049L46.6809 43.516ZM45.7899 41.761L48.6032 42.8029L48.6321 42.7248L48.6567 42.6451L45.7899 41.761ZM48.1659 32.527L51.0913 33.1919L51.9748 29.3045L47.9948 29.5319L48.1659 32.527ZM45.4659 32.932L45.9933 35.8853L46.1172 35.8631L46.2389 35.8307L45.4659 32.932ZM43.7109 31.852L46.6149 31.0991L46.6056 31.0634L46.5955 31.0278L43.7109 31.852ZM44.7099 30.151L44.1664 27.2006L44.0101 27.2294L43.8576 27.2746L44.7099 30.151ZM48.8409 29.611L48.9907 32.6073L51.3365 32.49L51.7856 30.1846L48.8409 29.611ZM49.7859 24.616L46.8819 23.8631L46.8607 23.9448L46.8442 24.0276L49.7859 24.616ZM51.4059 23.482L51.9522 20.5322L51.9427 20.5304L51.9333 20.5287L51.4059 23.482ZM52.4859 25.021L55.4277 25.6093L55.4319 25.5883L55.4358 25.5673L52.4859 25.021ZM64.6359 32.581L62.4461 34.6315L62.4797 34.6675L62.5146 34.7023L64.6359 32.581ZM64.5549 34.552L62.5864 32.2882L62.5075 32.3568L62.4336 32.4307L64.5549 34.552ZM62.6109 34.471L64.8747 32.5025L64.8249 32.4452L64.7722 32.3905L62.6109 34.471ZM59.8299 31.582L57.5661 33.5505L57.6159 33.6078L57.6686 33.6625L59.8299 31.582ZM59.9109 29.557L61.8794 31.8208L61.9583 31.7522L62.0322 31.6783L59.9109 29.557ZM61.8549 29.611L64.0448 27.5605L64.0111 27.5245L63.9762 27.4897L61.8549 29.611ZM51.2096 32.7276C52.7257 32.8961 53.8162 33.3822 54.5051 34.14L58.9447 30.104C56.9336 27.8918 54.2441 27.0279 51.8722 26.7643L51.2096 32.7276ZM54.5363 34.1738C55.4203 35.1167 56.0546 37.2096 54.6822 41.4266L60.3876 43.2834C61.9852 38.3744 62.0796 33.4473 58.9135 30.0702L54.5363 34.1738ZM54.7097 41.346C54.9571 40.6533 55.8091 40.0776 56.7679 40.4328L54.684 46.0592C57.1008 46.9544 59.5727 45.5687 60.3601 43.364L54.7097 41.346ZM56.8401 40.4606C57.6275 40.7755 58.0264 41.6203 57.7411 42.419L52.0907 40.401C51.2654 42.7117 52.4744 45.1765 54.6117 46.0314L56.8401 40.4606ZM57.787 42.28C58.2266 40.8293 58.6305 39.0957 58.6613 37.3906C58.6916 35.7166 58.3661 33.6259 56.8544 31.9816L52.4374 36.0424C52.4647 36.0721 52.6792 36.3439 52.6623 37.2821C52.6459 38.1893 52.4152 39.3177 52.0448 40.54L57.787 42.28ZM56.8657 31.994C55.3196 30.2933 53.0732 29.703 51.2725 29.5393L50.7293 35.5147C51.8986 35.621 52.3522 35.9487 52.4261 36.03L56.8657 31.994ZM48.0794 31.8453C47.3216 35.0931 46.4812 38.6047 45.4949 41.7193L51.2149 43.5307C52.2806 40.1653 53.1682 36.4409 53.9224 33.2087L48.0794 31.8453ZM45.5695 41.5108C45.7019 41.1797 45.943 40.9173 46.2457 40.754C46.5538 40.5879 47.0001 40.49 47.4898 40.6271L45.872 46.4049C48.205 47.0581 50.3745 45.6538 51.1403 43.7392L45.5695 41.5108ZM47.6899 40.6908C47.9898 40.7979 48.3117 41.0378 48.5165 41.4347C48.7302 41.8486 48.7694 42.3541 48.6032 42.8029L42.9767 40.7191C42.0491 43.2234 43.5608 45.5873 45.6719 46.3412L47.6899 40.6908ZM48.6567 42.6451C49.5833 39.6406 50.414 36.1719 51.0913 33.1919L45.2405 31.8621C44.5678 34.8221 43.7785 38.1034 42.9232 40.8769L48.6567 42.6451ZM47.9948 29.5319C46.8963 29.5947 45.7428 29.7533 44.6929 30.0333L46.2389 35.8307C46.809 35.6787 47.5455 35.5673 48.3371 35.5221L47.9948 29.5319ZM44.9385 29.9787C45.35 29.9052 45.6957 30.0069 45.939 30.1555C46.1831 30.3045 46.4865 30.6038 46.6149 31.0991L40.8069 32.6049C41.4191 34.9662 43.8142 36.2744 45.9933 35.8853L44.9385 29.9787ZM46.5955 31.0278C46.9015 32.0988 46.155 32.8517 45.5622 33.0274L43.8576 27.2746C41.8068 27.8823 40.0884 30.0932 40.8263 32.6762L46.5955 31.0278ZM45.2534 33.1014C46.2785 32.9125 47.5893 32.6773 48.9907 32.6073L48.6911 26.6147C46.8525 26.7067 45.1934 27.0115 44.1664 27.2006L45.2534 33.1014ZM51.7856 30.1846C52.2174 27.9677 52.5017 26.3342 52.7276 25.2043L46.8442 24.0276C46.6381 25.0578 46.2744 27.0963 45.8963 29.0374L51.7856 30.1846ZM52.6899 25.3689C52.6153 25.6568 52.4406 25.9376 52.1512 26.1487C51.8405 26.3754 51.3799 26.5248 50.8785 26.4353L51.9333 20.5287C49.323 20.0626 47.3796 21.9435 46.8819 23.8631L52.6899 25.3689ZM50.8596 26.4318C50.0341 26.279 49.3557 25.4485 49.5361 24.4747L55.4358 25.5673C55.8861 23.1355 54.2357 20.955 51.9522 20.5322L50.8596 26.4318ZM49.5442 24.4327L48.5992 29.1576L54.4827 30.3343L55.4277 25.6093L49.5442 24.4327ZM62.5146 34.7023C61.8521 34.0398 61.8662 32.9144 62.5864 32.2882L66.5234 36.8158C68.4856 35.1096 68.4998 32.2022 66.7572 30.4597L62.5146 34.7023ZM62.4336 32.4307C62.7392 32.1251 63.1835 31.9341 63.6694 31.9481C64.17 31.9626 64.6038 32.191 64.8747 32.5025L60.3471 36.4395C62.0512 38.3993 64.9314 38.4181 66.6762 36.6733L62.4336 32.4307ZM64.7722 32.3905L61.9912 29.5015L57.6686 33.6625L60.4496 36.5515L64.7722 32.3905ZM62.0937 29.6135C62.2754 29.8224 62.4466 30.1705 62.4339 30.6232C62.4204 31.1034 62.2 31.542 61.8794 31.8208L57.9424 27.2932C55.8972 29.0716 56.0966 31.8606 57.5661 33.5505L62.0937 29.6135ZM62.0322 31.6783C61.2499 32.4607 60.2085 32.2072 59.7336 31.7323L63.9762 27.4897C62.4213 25.9348 59.6519 25.5733 57.7896 27.4357L62.0322 31.6783ZM59.6651 31.6615L62.4461 34.6315L66.8258 30.5305L64.0448 27.5605L59.6651 31.6615ZM77.3799 33.607L74.8359 35.197L74.924 35.3379L75.0271 35.4682L77.3799 33.607ZM84.6159 41.815L82.5843 44.0224L82.5911 44.0286L82.5979 44.0348L84.6159 41.815ZM84.7509 43.921L86.9707 45.939L87.073 45.8265L87.1634 45.7042L84.7509 43.921ZM82.7259 44.056L84.8472 41.9347L84.8064 41.8939L84.7641 41.8547L82.7259 44.056ZM74.6259 34.741L72.1188 36.3885L72.17 36.4664L72.2259 36.541L74.6259 34.741ZM74.7609 31.717L77.0186 33.6925L77.0501 33.6566L77.0803 33.6197L74.7609 31.717ZM81.2949 23.752L79.0311 21.7835L79.0028 21.816L78.9755 21.8493L81.2949 23.752ZM83.3199 23.617L81.3019 25.8368L81.4144 25.9391L81.5367 26.0295L83.3199 23.617ZM83.5359 25.642L81.2721 23.6735L81.2478 23.7013L81.2243 23.7298L83.5359 25.642ZM77.4609 32.986L75.1493 31.0738L75.0224 31.2272L74.9169 31.396L77.4609 32.986ZM75.0271 35.4682C76.4101 37.2165 79.3217 41.0197 82.5843 44.0224L86.6475 39.6076C83.8081 36.9943 81.2117 33.6155 79.7328 31.7458L75.0271 35.4682ZM82.5979 44.0348C82.2242 43.6951 82.0946 43.2732 82.0812 42.9702C82.0686 42.6858 82.147 42.3967 82.3384 42.1378L87.1634 45.7042C88.3593 44.0863 88.5759 41.3606 86.6339 39.5952L82.5979 44.0348ZM82.5311 41.903C82.7985 41.6088 83.1541 41.4483 83.5208 41.4217C83.8951 41.3944 84.4185 41.506 84.8472 41.9347L80.6046 46.1773C82.5511 48.1238 85.4732 47.5863 86.9707 45.939L82.5311 41.903ZM84.7641 41.8547C81.3432 38.6872 78.25 34.5731 77.0259 32.941L72.2259 36.541C73.4318 38.1489 76.8186 42.6748 80.6877 46.2573L84.7641 41.8547ZM77.133 33.0935C77.1443 33.1106 77.1793 33.1748 77.1755 33.2941C77.1712 33.4286 77.1164 33.5808 77.0186 33.6925L72.5032 29.7415C70.7404 31.7561 70.8617 34.4756 72.1188 36.3885L77.133 33.0935ZM77.0803 33.6197L83.6143 25.6547L78.9755 21.8493L72.4415 29.8143L77.0803 33.6197ZM83.5587 25.7205C83.0175 26.3429 81.9788 26.4522 81.3019 25.8368L85.3379 21.3972C83.473 19.7018 80.6523 19.9191 79.0311 21.7835L83.5587 25.7205ZM81.5367 26.0295C80.7899 25.4775 80.6312 24.4104 81.2721 23.6735L85.7997 27.6105C87.5206 25.6316 87.092 22.6745 85.1031 21.2045L81.5367 26.0295ZM81.2243 23.7298L75.1493 31.0738L79.7725 34.8982L85.8475 27.5542L81.2243 23.7298ZM74.9169 31.396C74.8247 31.5436 74.5117 32.0369 74.3774 32.7081C74.209 33.5504 74.3579 34.4322 74.8359 35.197L79.9239 32.017C80.0703 32.2512 80.2036 32.5543 80.269 32.9168C80.3345 33.28 80.3154 33.6121 80.2609 33.8849C80.1671 34.3536 79.9622 34.6444 80.0049 34.576L74.9169 31.396Z" fill="#A3716E"/>
<mask id="path-5-outside-1_152_645" maskUnits="userSpaceOnUse" x="40.7803" y="51.4474" width="64" height="62" fill="black">
<rect fill="white" x="40.7803" y="51.4474" width="64" height="62"/>
<path fill-rule="evenodd" clip-rule="evenodd" d="M48.9217 54.497C47.9612 54.6575 47.1159 55.2502 46.6756 56.0717C46.3347 56.708 46.3065 56.9505 46.3065 59.2407V61.3001H47.1749H48.0433L48.0444 59.2716C48.0455 57.345 48.0509 57.2313 48.1527 57.0075C48.2837 56.7191 48.5266 56.4598 48.8064 56.3093L49.0169 56.1961H64.0952H79.1735L79.6998 56.3431C81.9311 56.9664 83.4779 58.5911 84.0208 60.8814C84.1059 61.2405 84.1154 61.7331 84.1329 66.6528C84.1434 69.6112 84.169 72.0317 84.1896 72.0317C84.2103 72.0317 84.5881 71.6722 85.0292 71.2327L85.8312 70.4338V65.8722C85.8312 61.5922 85.8248 61.2738 85.7288 60.7148C85.3557 58.544 84.0216 56.6245 82.0942 55.4856C81.2232 54.9709 80.0827 54.6051 79.0196 54.4995C78.3362 54.4316 49.3274 54.4292 48.9217 54.497ZM44.2539 63.8769C43.9898 64.0098 43.7803 64.3405 43.7803 64.6243C43.7803 64.9074 43.9898 65.2388 44.2519 65.3703C44.4864 65.4879 44.4908 65.4881 47.1729 65.4869C49.6786 65.4859 49.8734 65.4792 50.0747 65.3883C50.3527 65.2627 50.5273 65.0165 50.5571 64.7077C50.5879 64.3887 50.4753 64.1283 50.224 63.9376L50.0252 63.7867L47.258 63.7722L44.4908 63.7577L44.2539 63.8769ZM57.9356 63.8783C57.7636 63.9646 57.6689 64.059 57.5816 64.2311L57.4625 64.466L57.4764 72.1619C57.49 79.7525 57.4917 79.8602 57.5955 80.0316C57.6534 80.1272 57.7836 80.2568 57.885 80.3195L58.0692 80.4337H66.8319H75.5947L75.7983 80.3078C75.9238 80.2303 76.0395 80.0997 76.0998 79.9675C76.1938 79.7617 76.1977 79.4482 76.1988 72.1082L76.2 64.4633L76.0816 64.2297C75.995 64.059 75.8999 63.9644 75.7283 63.8783L75.4935 63.7605H66.8319H58.1704L57.9356 63.8783ZM74.4632 72.1102V78.7324H66.8319H59.2007V72.1102V65.4881H66.8319H74.4632V72.1102ZM92.7256 67.7023C92.0402 67.8585 92.7135 67.2162 80.2095 79.6424C73.7743 86.0375 68.476 91.332 68.4355 91.4078C68.2922 91.6761 65.0425 103.156 65.0428 103.393C65.0431 103.789 65.3416 104.126 65.7614 104.205C65.886 104.228 67.3929 103.823 71.7874 102.582C75.0103 101.672 77.732 100.891 77.8355 100.846C78.0926 100.734 101.292 77.6472 101.478 77.3189C101.756 76.826 101.854 76.1154 101.722 75.5451C101.575 74.9122 101.588 74.926 98.123 71.4662C96.3268 69.6724 94.753 68.1357 94.6258 68.0513C94.1045 67.7057 93.3328 67.5639 92.7256 67.7023ZM46.3065 69.1001V70.2518H47.1749H48.0433V69.1001V67.9485H47.1749H46.3065V69.1001ZM93.5572 69.437C93.6353 69.4784 95.1143 70.9213 96.8438 72.6435C99.1508 74.9408 100.001 75.8198 100.037 75.9439C100.136 76.2859 100.034 76.4487 99.1946 77.2922L98.4125 78.078L94.8588 74.5449L91.3051 71.0117L92.0285 70.286C92.4264 69.8869 92.823 69.5158 92.9098 69.4613C93.098 69.3433 93.3612 69.3334 93.5572 69.437ZM93.6599 75.7617L97.199 79.2822L87.3574 89.0713L77.5158 98.8603L73.9632 95.327L70.4106 91.7936L80.2392 82.0174C85.6449 76.6404 90.0797 72.2411 90.0942 72.2411C90.1088 72.2411 91.7133 73.8253 93.6599 75.7617ZM44.165 72.8209C43.925 72.9739 43.7603 73.337 43.7944 73.6379C43.8234 73.8937 43.9376 74.0815 44.1689 74.2533C44.3108 74.3587 44.3796 74.3615 47.1427 74.3756L49.9711 74.39L50.147 74.2709C50.4087 74.0938 50.5286 73.9016 50.5563 73.6153C50.5874 73.2936 50.4399 72.9799 50.1833 72.8222C50.0073 72.714 49.9587 72.7122 47.1687 72.7131C44.4035 72.7139 44.3287 72.7167 44.165 72.8209ZM89.5121 74.7605C89.3607 74.802 87.7961 76.3331 81.3448 82.753C74.2161 89.8468 73.3609 90.715 73.3292 90.8904C73.2566 91.2912 73.4357 91.6692 73.7827 91.8477C73.9729 91.9455 74.3742 91.9463 74.5579 91.8492C74.6361 91.8079 78.2688 88.2213 82.6306 83.879C89.7637 76.7779 90.5648 75.964 90.5972 75.7848C90.7218 75.096 90.1741 74.5789 89.5121 74.7605ZM46.3065 77.9995V79.1511H47.1749H48.0433V77.9995V76.8478H47.1749H46.3065V77.9995ZM44.2803 81.6855C43.9801 81.8182 43.7803 82.1285 43.7803 82.4622C43.7803 82.7034 43.9739 83.0584 44.1718 83.18C44.3407 83.2839 44.4197 83.2867 47.1749 83.2867C49.9578 83.2867 50.0074 83.2849 50.1833 83.1767C50.4399 83.0191 50.5874 82.7054 50.5563 82.3836C50.5287 82.0979 50.4087 81.9052 50.149 81.7293L49.975 81.6115L47.2066 81.6136C45.0171 81.6152 44.4051 81.6302 44.2803 81.6855ZM46.3065 86.8988V88.0505H47.1749H48.0433V86.8988V85.7471H47.1749H46.3065V86.8988ZM44.2519 90.6287C43.9898 90.7601 43.7803 91.0916 43.7803 91.3746C43.7803 91.6585 43.9898 91.9891 44.2539 92.122L44.4908 92.2412L47.258 92.2267L50.0252 92.2122L50.224 92.0613C50.7394 91.6702 50.6574 90.8739 50.0747 90.6106C49.8734 90.5197 49.6786 90.5131 47.1729 90.512C44.4908 90.5109 44.4864 90.511 44.2519 90.6287ZM72.7424 96.5731L75.837 99.6515L73.558 100.292C72.3047 100.644 71.2553 100.931 71.2261 100.93C71.197 100.929 70.5258 100.284 69.7347 99.4968L68.2963 98.0654L68.9456 95.7807C69.3028 94.524 69.6069 93.4957 69.6215 93.4953C69.636 93.495 71.0405 94.88 72.7424 96.5731ZM46.3065 95.8505V97.0021H47.1749H48.0433V95.8505V94.6988H47.1749H46.3065V95.8505ZM84.979 97.4593L84.1531 98.2847L84.1319 100.954C84.1123 103.41 84.102 103.662 84.0029 104.095C83.4974 106.308 81.8668 107.992 79.6543 108.586L79.2262 108.701L64.1742 108.716C47.4078 108.733 48.8884 108.765 48.4785 108.37C48.0639 107.969 48.0714 108.017 48.0547 105.679L48.0398 103.598H47.17H46.3003L46.3174 105.81L46.3345 108.022L46.4717 108.375C46.5472 108.569 46.6888 108.86 46.7866 109.021C47.1848 109.679 48.0619 110.275 48.8144 110.4C49.0796 110.443 53.1583 110.455 64.2531 110.443L79.3314 110.427L79.8169 110.312C82.8008 109.609 84.9416 107.516 85.6612 104.599L85.7983 104.043L85.8173 100.797C85.8277 99.0123 85.8292 97.3453 85.8206 97.0929L85.8048 96.634L84.979 97.4593ZM44.2803 99.5119C44.1098 99.5811 43.8953 99.8242 43.8294 100.023C43.7036 100.402 43.844 100.778 44.2008 101.02L44.3748 101.138H47.1749H49.975L50.149 101.02C50.2446 100.955 50.3683 100.841 50.4237 100.767C50.6736 100.431 50.5646 99.8315 50.2103 99.592L50.0188 99.4625L47.2021 99.4658C45.653 99.4677 44.3381 99.4884 44.2803 99.5119Z"/>
</mask>
<path fill-rule="evenodd" clip-rule="evenodd" d="M48.9217 54.497C47.9612 54.6575 47.1159 55.2502 46.6756 56.0717C46.3347 56.708 46.3065 56.9505 46.3065 59.2407V61.3001H47.1749H48.0433L48.0444 59.2716C48.0455 57.345 48.0509 57.2313 48.1527 57.0075C48.2837 56.7191 48.5266 56.4598 48.8064 56.3093L49.0169 56.1961H64.0952H79.1735L79.6998 56.3431C81.9311 56.9664 83.4779 58.5911 84.0208 60.8814C84.1059 61.2405 84.1154 61.7331 84.1329 66.6528C84.1434 69.6112 84.169 72.0317 84.1896 72.0317C84.2103 72.0317 84.5881 71.6722 85.0292 71.2327L85.8312 70.4338V65.8722C85.8312 61.5922 85.8248 61.2738 85.7288 60.7148C85.3557 58.544 84.0216 56.6245 82.0942 55.4856C81.2232 54.9709 80.0827 54.6051 79.0196 54.4995C78.3362 54.4316 49.3274 54.4292 48.9217 54.497ZM44.2539 63.8769C43.9898 64.0098 43.7803 64.3405 43.7803 64.6243C43.7803 64.9074 43.9898 65.2388 44.2519 65.3703C44.4864 65.4879 44.4908 65.4881 47.1729 65.4869C49.6786 65.4859 49.8734 65.4792 50.0747 65.3883C50.3527 65.2627 50.5273 65.0165 50.5571 64.7077C50.5879 64.3887 50.4753 64.1283 50.224 63.9376L50.0252 63.7867L47.258 63.7722L44.4908 63.7577L44.2539 63.8769ZM57.9356 63.8783C57.7636 63.9646 57.6689 64.059 57.5816 64.2311L57.4625 64.466L57.4764 72.1619C57.49 79.7525 57.4917 79.8602 57.5955 80.0316C57.6534 80.1272 57.7836 80.2568 57.885 80.3195L58.0692 80.4337H66.8319H75.5947L75.7983 80.3078C75.9238 80.2303 76.0395 80.0997 76.0998 79.9675C76.1938 79.7617 76.1977 79.4482 76.1988 72.1082L76.2 64.4633L76.0816 64.2297C75.995 64.059 75.8999 63.9644 75.7283 63.8783L75.4935 63.7605H66.8319H58.1704L57.9356 63.8783ZM74.4632 72.1102V78.7324H66.8319H59.2007V72.1102V65.4881H66.8319H74.4632V72.1102ZM92.7256 67.7023C92.0402 67.8585 92.7135 67.2162 80.2095 79.6424C73.7743 86.0375 68.476 91.332 68.4355 91.4078C68.2922 91.6761 65.0425 103.156 65.0428 103.393C65.0431 103.789 65.3416 104.126 65.7614 104.205C65.886 104.228 67.3929 103.823 71.7874 102.582C75.0103 101.672 77.732 100.891 77.8355 100.846C78.0926 100.734 101.292 77.6472 101.478 77.3189C101.756 76.826 101.854 76.1154 101.722 75.5451C101.575 74.9122 101.588 74.926 98.123 71.4662C96.3268 69.6724 94.753 68.1357 94.6258 68.0513C94.1045 67.7057 93.3328 67.5639 92.7256 67.7023ZM46.3065 69.1001V70.2518H47.1749H48.0433V69.1001V67.9485H47.1749H46.3065V69.1001ZM93.5572 69.437C93.6353 69.4784 95.1143 70.9213 96.8438 72.6435C99.1508 74.9408 100.001 75.8198 100.037 75.9439C100.136 76.2859 100.034 76.4487 99.1946 77.2922L98.4125 78.078L94.8588 74.5449L91.3051 71.0117L92.0285 70.286C92.4264 69.8869 92.823 69.5158 92.9098 69.4613C93.098 69.3433 93.3612 69.3334 93.5572 69.437ZM93.6599 75.7617L97.199 79.2822L87.3574 89.0713L77.5158 98.8603L73.9632 95.327L70.4106 91.7936L80.2392 82.0174C85.6449 76.6404 90.0797 72.2411 90.0942 72.2411C90.1088 72.2411 91.7133 73.8253 93.6599 75.7617ZM44.165 72.8209C43.925 72.9739 43.7603 73.337 43.7944 73.6379C43.8234 73.8937 43.9376 74.0815 44.1689 74.2533C44.3108 74.3587 44.3796 74.3615 47.1427 74.3756L49.9711 74.39L50.147 74.2709C50.4087 74.0938 50.5286 73.9016 50.5563 73.6153C50.5874 73.2936 50.4399 72.9799 50.1833 72.8222C50.0073 72.714 49.9587 72.7122 47.1687 72.7131C44.4035 72.7139 44.3287 72.7167 44.165 72.8209ZM89.5121 74.7605C89.3607 74.802 87.7961 76.3331 81.3448 82.753C74.2161 89.8468 73.3609 90.715 73.3292 90.8904C73.2566 91.2912 73.4357 91.6692 73.7827 91.8477C73.9729 91.9455 74.3742 91.9463 74.5579 91.8492C74.6361 91.8079 78.2688 88.2213 82.6306 83.879C89.7637 76.7779 90.5648 75.964 90.5972 75.7848C90.7218 75.096 90.1741 74.5789 89.5121 74.7605ZM46.3065 77.9995V79.1511H47.1749H48.0433V77.9995V76.8478H47.1749H46.3065V77.9995ZM44.2803 81.6855C43.9801 81.8182 43.7803 82.1285 43.7803 82.4622C43.7803 82.7034 43.9739 83.0584 44.1718 83.18C44.3407 83.2839 44.4197 83.2867 47.1749 83.2867C49.9578 83.2867 50.0074 83.2849 50.1833 83.1767C50.4399 83.0191 50.5874 82.7054 50.5563 82.3836C50.5287 82.0979 50.4087 81.9052 50.149 81.7293L49.975 81.6115L47.2066 81.6136C45.0171 81.6152 44.4051 81.6302 44.2803 81.6855ZM46.3065 86.8988V88.0505H47.1749H48.0433V86.8988V85.7471H47.1749H46.3065V86.8988ZM44.2519 90.6287C43.9898 90.7601 43.7803 91.0916 43.7803 91.3746C43.7803 91.6585 43.9898 91.9891 44.2539 92.122L44.4908 92.2412L47.258 92.2267L50.0252 92.2122L50.224 92.0613C50.7394 91.6702 50.6574 90.8739 50.0747 90.6106C49.8734 90.5197 49.6786 90.5131 47.1729 90.512C44.4908 90.5109 44.4864 90.511 44.2519 90.6287ZM72.7424 96.5731L75.837 99.6515L73.558 100.292C72.3047 100.644 71.2553 100.931 71.2261 100.93C71.197 100.929 70.5258 100.284 69.7347 99.4968L68.2963 98.0654L68.9456 95.7807C69.3028 94.524 69.6069 93.4957 69.6215 93.4953C69.636 93.495 71.0405 94.88 72.7424 96.5731ZM46.3065 95.8505V97.0021H47.1749H48.0433V95.8505V94.6988H47.1749H46.3065V95.8505ZM84.979 97.4593L84.1531 98.2847L84.1319 100.954C84.1123 103.41 84.102 103.662 84.0029 104.095C83.4974 106.308 81.8668 107.992 79.6543 108.586L79.2262 108.701L64.1742 108.716C47.4078 108.733 48.8884 108.765 48.4785 108.37C48.0639 107.969 48.0714 108.017 48.0547 105.679L48.0398 103.598H47.17H46.3003L46.3174 105.81L46.3345 108.022L46.4717 108.375C46.5472 108.569 46.6888 108.86 46.7866 109.021C47.1848 109.679 48.0619 110.275 48.8144 110.4C49.0796 110.443 53.1583 110.455 64.2531 110.443L79.3314 110.427L79.8169 110.312C82.8008 109.609 84.9416 107.516 85.6612 104.599L85.7983 104.043L85.8173 100.797C85.8277 99.0123 85.8292 97.3453 85.8206 97.0929L85.8048 96.634L84.979 97.4593ZM44.2803 99.5119C44.1098 99.5811 43.8953 99.8242 43.8294 100.023C43.7036 100.402 43.844 100.778 44.2008 101.02L44.3748 101.138H47.1749H49.975L50.149 101.02C50.2446 100.955 50.3683 100.841 50.4237 100.767C50.6736 100.431 50.5646 99.8315 50.2103 99.592L50.0188 99.4625L47.2021 99.4658C45.653 99.4677 44.3381 99.4884 44.2803 99.5119Z" fill="#FAFAFA"/>
<path fill-rule="evenodd" clip-rule="evenodd" d="M48.9217 54.497C47.9612 54.6575 47.1159 55.2502 46.6756 56.0717C46.3347 56.708 46.3065 56.9505 46.3065 59.2407V61.3001H47.1749H48.0433L48.0444 59.2716C48.0455 57.345 48.0509 57.2313 48.1527 57.0075C48.2837 56.7191 48.5266 56.4598 48.8064 56.3093L49.0169 56.1961H64.0952H79.1735L79.6998 56.3431C81.9311 56.9664 83.4779 58.5911 84.0208 60.8814C84.1059 61.2405 84.1154 61.7331 84.1329 66.6528C84.1434 69.6112 84.169 72.0317 84.1896 72.0317C84.2103 72.0317 84.5881 71.6722 85.0292 71.2327L85.8312 70.4338V65.8722C85.8312 61.5922 85.8248 61.2738 85.7288 60.7148C85.3557 58.544 84.0216 56.6245 82.0942 55.4856C81.2232 54.9709 80.0827 54.6051 79.0196 54.4995C78.3362 54.4316 49.3274 54.4292 48.9217 54.497ZM44.2539 63.8769C43.9898 64.0098 43.7803 64.3405 43.7803 64.6243C43.7803 64.9074 43.9898 65.2388 44.2519 65.3703C44.4864 65.4879 44.4908 65.4881 47.1729 65.4869C49.6786 65.4859 49.8734 65.4792 50.0747 65.3883C50.3527 65.2627 50.5273 65.0165 50.5571 64.7077C50.5879 64.3887 50.4753 64.1283 50.224 63.9376L50.0252 63.7867L47.258 63.7722L44.4908 63.7577L44.2539 63.8769ZM57.9356 63.8783C57.7636 63.9646 57.6689 64.059 57.5816 64.2311L57.4625 64.466L57.4764 72.1619C57.49 79.7525 57.4917 79.8602 57.5955 80.0316C57.6534 80.1272 57.7836 80.2568 57.885 80.3195L58.0692 80.4337H66.8319H75.5947L75.7983 80.3078C75.9238 80.2303 76.0395 80.0997 76.0998 79.9675C76.1938 79.7617 76.1977 79.4482 76.1988 72.1082L76.2 64.4633L76.0816 64.2297C75.995 64.059 75.8999 63.9644 75.7283 63.8783L75.4935 63.7605H66.8319H58.1704L57.9356 63.8783ZM74.4632 72.1102V78.7324H66.8319H59.2007V72.1102V65.4881H66.8319H74.4632V72.1102ZM92.7256 67.7023C92.0402 67.8585 92.7135 67.2162 80.2095 79.6424C73.7743 86.0375 68.476 91.332 68.4355 91.4078C68.2922 91.6761 65.0425 103.156 65.0428 103.393C65.0431 103.789 65.3416 104.126 65.7614 104.205C65.886 104.228 67.3929 103.823 71.7874 102.582C75.0103 101.672 77.732 100.891 77.8355 100.846C78.0926 100.734 101.292 77.6472 101.478 77.3189C101.756 76.826 101.854 76.1154 101.722 75.5451C101.575 74.9122 101.588 74.926 98.123 71.4662C96.3268 69.6724 94.753 68.1357 94.6258 68.0513C94.1045 67.7057 93.3328 67.5639 92.7256 67.7023ZM46.3065 69.1001V70.2518H47.1749H48.0433V69.1001V67.9485H47.1749H46.3065V69.1001ZM93.5572 69.437C93.6353 69.4784 95.1143 70.9213 96.8438 72.6435C99.1508 74.9408 100.001 75.8198 100.037 75.9439C100.136 76.2859 100.034 76.4487 99.1946 77.2922L98.4125 78.078L94.8588 74.5449L91.3051 71.0117L92.0285 70.286C92.4264 69.8869 92.823 69.5158 92.9098 69.4613C93.098 69.3433 93.3612 69.3334 93.5572 69.437ZM93.6599 75.7617L97.199 79.2822L87.3574 89.0713L77.5158 98.8603L73.9632 95.327L70.4106 91.7936L80.2392 82.0174C85.6449 76.6404 90.0797 72.2411 90.0942 72.2411C90.1088 72.2411 91.7133 73.8253 93.6599 75.7617ZM44.165 72.8209C43.925 72.9739 43.7603 73.337 43.7944 73.6379C43.8234 73.8937 43.9376 74.0815 44.1689 74.2533C44.3108 74.3587 44.3796 74.3615 47.1427 74.3756L49.9711 74.39L50.147 74.2709C50.4087 74.0938 50.5286 73.9016 50.5563 73.6153C50.5874 73.2936 50.4399 72.9799 50.1833 72.8222C50.0073 72.714 49.9587 72.7122 47.1687 72.7131C44.4035 72.7139 44.3287 72.7167 44.165 72.8209ZM89.5121 74.7605C89.3607 74.802 87.7961 76.3331 81.3448 82.753C74.2161 89.8468 73.3609 90.715 73.3292 90.8904C73.2566 91.2912 73.4357 91.6692 73.7827 91.8477C73.9729 91.9455 74.3742 91.9463 74.5579 91.8492C74.6361 91.8079 78.2688 88.2213 82.6306 83.879C89.7637 76.7779 90.5648 75.964 90.5972 75.7848C90.7218 75.096 90.1741 74.5789 89.5121 74.7605ZM46.3065 77.9995V79.1511H47.1749H48.0433V77.9995V76.8478H47.1749H46.3065V77.9995ZM44.2803 81.6855C43.9801 81.8182 43.7803 82.1285 43.7803 82.4622C43.7803 82.7034 43.9739 83.0584 44.1718 83.18C44.3407 83.2839 44.4197 83.2867 47.1749 83.2867C49.9578 83.2867 50.0074 83.2849 50.1833 83.1767C50.4399 83.0191 50.5874 82.7054 50.5563 82.3836C50.5287 82.0979 50.4087 81.9052 50.149 81.7293L49.975 81.6115L47.2066 81.6136C45.0171 81.6152 44.4051 81.6302 44.2803 81.6855ZM46.3065 86.8988V88.0505H47.1749H48.0433V86.8988V85.7471H47.1749H46.3065V86.8988ZM44.2519 90.6287C43.9898 90.7601 43.7803 91.0916 43.7803 91.3746C43.7803 91.6585 43.9898 91.9891 44.2539 92.122L44.4908 92.2412L47.258 92.2267L50.0252 92.2122L50.224 92.0613C50.7394 91.6702 50.6574 90.8739 50.0747 90.6106C49.8734 90.5197 49.6786 90.5131 47.1729 90.512C44.4908 90.5109 44.4864 90.511 44.2519 90.6287ZM72.7424 96.5731L75.837 99.6515L73.558 100.292C72.3047 100.644 71.2553 100.931 71.2261 100.93C71.197 100.929 70.5258 100.284 69.7347 99.4968L68.2963 98.0654L68.9456 95.7807C69.3028 94.524 69.6069 93.4957 69.6215 93.4953C69.636 93.495 71.0405 94.88 72.7424 96.5731ZM46.3065 95.8505V97.0021H47.1749H48.0433V95.8505V94.6988H47.1749H46.3065V95.8505ZM84.979 97.4593L84.1531 98.2847L84.1319 100.954C84.1123 103.41 84.102 103.662 84.0029 104.095C83.4974 106.308 81.8668 107.992 79.6543 108.586L79.2262 108.701L64.1742 108.716C47.4078 108.733 48.8884 108.765 48.4785 108.37C48.0639 107.969 48.0714 108.017 48.0547 105.679L48.0398 103.598H47.17H46.3003L46.3174 105.81L46.3345 108.022L46.4717 108.375C46.5472 108.569 46.6888 108.86 46.7866 109.021C47.1848 109.679 48.0619 110.275 48.8144 110.4C49.0796 110.443 53.1583 110.455 64.2531 110.443L79.3314 110.427L79.8169 110.312C82.8008 109.609 84.9416 107.516 85.6612 104.599L85.7983 104.043L85.8173 100.797C85.8277 99.0123 85.8292 97.3453 85.8206 97.0929L85.8048 96.634L84.979 97.4593ZM44.2803 99.5119C44.1098 99.5811 43.8953 99.8242 43.8294 100.023C43.7036 100.402 43.844 100.778 44.2008 101.02L44.3748 101.138H47.1749H49.975L50.149 101.02C50.2446 100.955 50.3683 100.841 50.4237 100.767C50.6736 100.431 50.5646 99.8315 50.2103 99.592L50.0188 99.4625L47.2021 99.4658C45.653 99.4677 44.3381 99.4884 44.2803 99.5119Z" stroke="#A3716E" stroke-width="6" stroke-linejoin="round" mask="url(#path-5-outside-1_152_645)"/>
<defs>
<filter id="filter0_dd_152_645" x="0" y="0" width="133" height="133" filterUnits="userSpaceOnUse" color-interpolation-filters="sRGB">
<feFlood flood-opacity="0" result="BackgroundImageFix"/>
<feColorMatrix in="SourceAlpha" type="matrix" values="0 0 0 0 0 0 0 0 0 0 0 0 0 0 0 0 0 0 127 0" result="hardAlpha"/>
<feOffset/>
<feComposite in2="hardAlpha" operator="out"/>
<feColorMatrix type="matrix" values="0 0 0 0 0 0 0 0 0 0 0 0 0 0 0 0 0 0 0.09 0"/>
<feBlend mode="normal" in2="BackgroundImageFix" result="effect1_dropShadow_152_645"/>
<feColorMatrix in="SourceAlpha" type="matrix" values="0 0 0 0 0 0 0 0 0 0 0 0 0 0 0 0 0 0 127 0" result="hardAlpha"/>
<feOffset dy="-2"/>
<feGaussianBlur stdDeviation="1"/>
<feComposite in2="hardAlpha" operator="out"/>
<feColorMatrix type="matrix" values="0 0 0 0 0 0 0 0 0 0 0 0 0 0 0 0 0 0 0.09 0"/>
<feBlend mode="normal" in2="effect1_dropShadow_152_645" result="effect2_dropShadow_152_645"/>
<feBlend mode="normal" in="SourceGraphic" in2="effect2_dropShadow_152_645" result="shape"/>
</filter>
</defs>
</svg>
